SplineFontDB: 3.0
FontName: Spleen
FullName: Spleen
FamilyName: Spleen
Weight: Medium
Copyright: Copyright (c) 2018-2020, Frederic Cambus
Version: 1.6.0
ItalicAngle: 0
UnderlinePosition: -100
UnderlineWidth: 40
Ascent: 768
Descent: 256
InvalidEm: 0
LayerCount: 2
Layer: 0 0 "Back" 1
Layer: 1 0 "Fore" 0
FSType: 0
OS2Version: 0
OS2_WeightWidthSlopeOnly: 0
OS2_UseTypoMetrics: 0
CreationTime: 1575314000
ModificationTime: 1575314140
PfmFamily: 33
TTFWeight: 500
TTFWidth: 5
LineGap: 72
VLineGap: 0
Panose: 2 0 6 4 0 0 0 0 0 0
OS2TypoAscent: 0
OS2TypoAOffset: 1
OS2TypoDescent: 0
OS2TypoDOffset: 1
OS2TypoLinegap: 0
OS2WinAscent: 0
OS2WinAOffset: 1
OS2WinDescent: 0
OS2WinDOffset: 1
HheadAscent: 0
HheadAOffset: 1
HheadDescent: 0
HheadDOffset: 1
OS2Vendor: 'PfEd'
DEI: 91125
Encoding: UnicodeBmp
UnicodeInterp: none
DisplaySize: -24
AntiAlias: 0
FitToEm: 1
WinInfo: 64 16 4
TeXData: 1 0 0 346030 173015 115343 0 1048576 115343 783286 444596 497025 792723 393216 433062 380633 303038 157286 324010 404750 52429 2506097 1059062 262144
BeginChars: 65536 758

StartChar: EXCLAMATION MARK
Encoding: 33 33 1
Width: 512
Flags: HW
LayerCount: 2
Fore
SplineSet
320 0 m 1
 277.333333333 -0 234.666666667 0 192 0 c 1
 192 42.6666666667 192 85.3333333333 192 128 c 1
 234.666666667 128 277.333333333 128 320 128 c 1
 320 85.3333333333 320 42.6666666667 320 0 c 1
320 192 m 1
 277.333333333 192 234.666666667 192 192 192 c 1
 192 640 l 1
 234.666666667 640 277.333333333 640 320 640 c 1
 320 192 l 1
EndSplineSet
EndChar

StartChar: QUOTATION MARK
Encoding: 34 34 2
Width: 512
Flags: HW
LayerCount: 2
Fore
SplineSet
448 448 m 1
 405.333333333 448 362.666666667 448 320 448 c 1
 320 533.333333333 320 618.666666667 320 704 c 1
 362.666666667 704 405.333333333 704 448 704 c 1
 448 618.666666667 448 533.333333333 448 448 c 1
192 448 m 1
 149.333333333 448 106.666666667 448 64 448 c 1
 64 533.333333333 64 618.666666667 64 704 c 1
 106.666666667 704 149.333333333 704 192 704 c 1
 192 618.666666667 192 533.333333333 192 448 c 1
EndSplineSet
EndChar

StartChar: NUMBER SIGN
Encoding: 35 35 3
Width: 512
Flags: HW
LayerCount: 2
Fore
SplineSet
0 128 m 1
 0 192 l 1
 64 192 l 1
 64 277.333333333 64 362.666666667 64 448 c 1
 0 448 l 1
 0 512 l 1
 64 512 l 1
 64 554.666666667 64 597.333333333 64 640 c 1
 106.666666667 640 149.333333333 640 192 640 c 1
 192 597.333333333 192 554.666666667 192 512 c 1
 256 512 l 1
 256 554.666666667 256 597.333333333 256 640 c 1
 298.666666667 640 341.333333333 640 384 640 c 1
 384 597.333333333 384 554.666666667 384 512 c 1
 448 512 l 1
 448 448 l 1
 384 448 l 1
 384 362.666666667 384 277.333333333 384 192 c 1
 448 192 l 1
 448 128 l 1
 384 128 l 1
 384 85.3333333333 384 42.6666666667 384 0 c 1
 341.333333333 -0 298.666666667 0 256 0 c 1
 256 42.6666666667 256 85.3333333333 256 128 c 1
 192 128 l 1
 192 85.3333333333 192 42.6666666667 192 0 c 1
 149.333333333 -0 106.666666667 0 64 0 c 1
 64 42.6666666667 64 85.3333333333 64 128 c 1
 0 128 l 1
256 192 m 1
 256 277.333333333 256 362.666666667 256 448 c 1
 192 448 l 1
 192 362.666666667 192 277.333333333 192 192 c 1
 256 192 l 1
EndSplineSet
EndChar

StartChar: DOLLAR SIGN
Encoding: 36 36 4
Width: 512
Flags: HW
LayerCount: 2
Fore
SplineSet
0 0 m 1
 0 64 l 1
 192 64 l 1
 192 149.333333333 192 234.666666667 192 320 c 1
 149.333333333 320 106.666666667 320 64 320 c 1
 64 384 l 1
 0 384 l 1
 0 576 l 1
 64 576 l 1
 64 640 l 1
 106.666666667 640 149.333333333 640 192 640 c 1
 192 704 l 1
 256 704 l 1
 256 640 l 1
 448 640 l 1
 448 576 l 1
 256 576 l 1
 256 384 l 1
 298.666666667 384 341.333333333 384 384 384 c 1
 384 320 l 1
 448 320 l 1
 448 234.666666667 448 149.333333333 448 64 c 1
 384 64 l 1
 384 0 l 1
 341.333333333 -0 298.666666667 0 256 0 c 1
 256 -64 l 1
 192 -64 l 1
 192 0 l 1
 0 0 l 1
320 64 m 1
 320 149.333333333 320 234.666666667 320 320 c 1
 256 320 l 1
 256 234.666666667 256 149.333333333 256 64 c 1
 320 64 l 1
192 384 m 1
 192 576 l 1
 128 576 l 1
 128 384 l 1
 192 384 l 1
EndSplineSet
EndChar

StartChar: PERCENT SIGN
Encoding: 37 37 5
Width: 512
Flags: HW
LayerCount: 2
Fore
SplineSet
192 0 m 1
 149.333333333 -0 106.666666667 0 64 0 c 1
 64 42.6666666667 64 85.3333333333 64 128 c 1
 128 128 l 1
 128 170.666666667 128 213.333333333 128 256 c 1
 192 256 l 1
 192 298.666666667 192 341.333333333 192 384 c 1
 256 384 l 1
 256 426.666666667 256 469.333333333 256 512 c 1
 320 512 l 1
 320 554.666666667 320 597.333333333 320 640 c 1
 362.666666667 640 405.333333333 640 448 640 c 1
 448 597.333333333 448 554.666666667 448 512 c 1
 384 512 l 1
 384 469.333333333 384 426.666666667 384 384 c 1
 320 384 l 1
 320 341.333333333 320 298.666666667 320 256 c 1
 256 256 l 1
 256 213.333333333 256 170.666666667 256 128 c 1
 192 128 l 1
 192 85.3333333333 192 42.6666666667 192 0 c 1
448 64 m 1
 405.333333333 64 362.666666667 64 320 64 c 1
 320 106.666666667 320 149.333333333 320 192 c 1
 362.666666667 192 405.333333333 192 448 192 c 1
 448 149.333333333 448 106.666666667 448 64 c 1
192 448 m 1
 149.333333333 448 106.666666667 448 64 448 c 1
 64 490.666666667 64 533.333333333 64 576 c 1
 106.666666667 576 149.333333333 576 192 576 c 1
 192 533.333333333 192 490.666666667 192 448 c 1
EndSplineSet
EndChar

StartChar: AMPERSAND
Encoding: 38 38 6
Width: 512
Flags: HW
LayerCount: 2
Fore
SplineSet
320 0 m 1
 234.666666667 -0 149.333333333 0 64 0 c 1
 64 64 l 1
 0 64 l 1
 0 256 l 1
 64 256 l 1
 64 320 l 1
 128 320 l 1
 128 384 l 1
 64 384 l 1
 64 576 l 1
 128 576 l 1
 128 640 l 1
 320 640 l 1
 320 576 l 1
 384 576 l 1
 384 384 l 1
 320 384 l 1
 320 320 l 1
 256 320 l 1
 256 256 l 1
 320 256 l 1
 320 192 l 1
 384 192 l 1
 384 149.333333333 384 106.666666667 384 64 c 1
 448 64 l 1
 448 0 l 1
 384 0 l 1
 384 64 l 1
 320 64 l 1
 320 0 l 1
128 64 m 1
 170.666666667 64 213.333333333 64 256 64 c 1
 256 106.666666667 256 149.333333333 256 192 c 1
 192 192 l 1
 192 256 l 1
 128 256 l 1
 128 64 l 1
384 192 m 1
 384 256 l 1
 448 256 l 1
 448 192 l 1
 384 192 l 1
256 384 m 1
 256 576 l 1
 192 576 l 1
 192 384 l 1
 256 384 l 1
EndSplineSet
EndChar

StartChar: APOSTROPHE
Encoding: 39 39 7
Width: 512
Flags: HW
LayerCount: 2
Fore
SplineSet
320 448 m 1
 277.333333333 448 234.666666667 448 192 448 c 1
 192 533.333333333 192 618.666666667 192 704 c 1
 234.666666667 704 277.333333333 704 320 704 c 1
 320 618.666666667 320 533.333333333 320 448 c 1
EndSplineSet
EndChar

StartChar: LEFT PARENTHESIS
Encoding: 40 40 8
Width: 512
Flags: HW
LayerCount: 2
Fore
SplineSet
448 -192 m 1
 256 -192 l 1
 256 -128 l 1
 192 -128 l 1
 192 -64 l 1
 128 -64 l 1
 128 -21.3333333333 128 21.3333333333 128 64 c 1
 64 64 l 1
 64 192 64 320 64 448 c 1
 128 448 l 1
 128 490.666666667 128 533.333333333 128 576 c 1
 192 576 l 1
 192 640 l 1
 256 640 l 1
 256 704 l 1
 448 704 l 1
 448 640 l 1
 405.333333333 640 362.666666667 640 320 640 c 1
 320 576 l 1
 256 576 l 1
 256 533.333333333 256 490.666666667 256 448 c 1
 192 448 l 1
 192 320 192 192 192 64 c 1
 256 64 l 1
 256 21.3333333333 256 -21.3333333333 256 -64 c 1
 320 -64 l 1
 320 -128 l 1
 362.666666667 -128 405.333333333 -128 448 -128 c 1
 448 -192 l 1
EndSplineSet
EndChar

StartChar: RIGHT PARENTHESIS
Encoding: 41 41 9
Width: 512
Flags: HW
LayerCount: 2
Fore
SplineSet
64 -192 m 1
 64 -128 l 1
 106.666666667 -128 149.333333333 -128 192 -128 c 1
 192 -64 l 1
 256 -64 l 1
 256 -21.3333333333 256 21.3333333333 256 64 c 1
 320 64 l 1
 320 192 320 320 320 448 c 1
 256 448 l 1
 256 490.666666667 256 533.333333333 256 576 c 1
 192 576 l 1
 192 640 l 1
 149.333333333 640 106.666666667 640 64 640 c 1
 64 704 l 1
 256 704 l 1
 256 640 l 1
 320 640 l 1
 320 576 l 1
 384 576 l 1
 384 533.333333333 384 490.666666667 384 448 c 1
 448 448 l 1
 448 320 448 192 448 64 c 1
 384 64 l 1
 384 21.3333333333 384 -21.3333333333 384 -64 c 1
 320 -64 l 1
 320 -128 l 1
 256 -128 l 1
 256 -192 l 1
 64 -192 l 1
EndSplineSet
EndChar

StartChar: ASTERISK
Encoding: 42 42 10
Width: 512
Flags: HW
LayerCount: 2
Fore
SplineSet
64 64 m 1
 64 128 l 1
 128 128 l 1
 128 192 l 1
 192 192 l 1
 192 256 l 1
 0 256 l 1
 0 320 l 1
 192 320 l 1
 192 384 l 1
 128 384 l 1
 128 448 l 1
 64 448 l 1
 64 512 l 1
 106.666666667 512 149.333333333 512 192 512 c 1
 192 448 l 1
 234.666666667 448 277.333333333 448 320 448 c 1
 320 512 l 1
 362.666666667 512 405.333333333 512 448 512 c 1
 448 448 l 1
 384 448 l 1
 384 384 l 1
 320 384 l 1
 320 320 l 1
 512 320 l 1
 512 256 l 1
 320 256 l 1
 320 192 l 1
 384 192 l 1
 384 128 l 1
 448 128 l 1
 448 64 l 1
 405.333333333 64 362.666666667 64 320 64 c 1
 320 128 l 1
 277.333333333 128 234.666666667 128 192 128 c 1
 192 64 l 1
 149.333333333 64 106.666666667 64 64 64 c 1
EndSplineSet
EndChar

StartChar: PLUS SIGN
Encoding: 43 43 11
Width: 512
Flags: HW
LayerCount: 2
Fore
SplineSet
64 256 m 1
 64 320 l 1
 106.666666667 320 149.333333333 320 192 320 c 1
 192 362.666666667 192 405.333333333 192 448 c 1
 234.666666667 448 277.333333333 448 320 448 c 1
 320 405.333333333 320 362.666666667 320 320 c 1
 362.666666667 320 405.333333333 320 448 320 c 1
 448 256 l 1
 405.333333333 256 362.666666667 256 320 256 c 1
 320 213.333333333 320 170.666666667 320 128 c 1
 277.333333333 128 234.666666667 128 192 128 c 1
 192 170.666666667 192 213.333333333 192 256 c 1
 149.333333333 256 106.666666667 256 64 256 c 1
EndSplineSet
EndChar

StartChar: COMMA
Encoding: 44 44 12
Width: 512
Flags: HW
LayerCount: 2
Fore
SplineSet
128 -64 m 1
 128 0 l 1
 192 0 l 1
 192 42.6666666667 192 85.3333333333 192 128 c 1
 234.666666667 128 277.333333333 128 320 128 c 1
 320 85.3333333333 320 42.6666666667 320 0 c 1
 256 0 l 1
 256 -64 l 1
 213.333333333 -64 170.666666667 -64 128 -64 c 1
EndSplineSet
EndChar

StartChar: HYPHEN-MINUS
Encoding: 45 45 13
Width: 512
Flags: HW
LayerCount: 2
Fore
SplineSet
64 256 m 1
 64 320 l 1
 192 320 320 320 448 320 c 1
 448 256 l 1
 320 256 192 256 64 256 c 1
EndSplineSet
EndChar

StartChar: FULL STOP
Encoding: 46 46 14
Width: 512
Flags: HW
LayerCount: 2
Fore
SplineSet
320 0 m 1
 277.333333333 -0 234.666666667 0 192 0 c 1
 192 42.6666666667 192 85.3333333333 192 128 c 1
 234.666666667 128 277.333333333 128 320 128 c 1
 320 85.3333333333 320 42.6666666667 320 0 c 1
EndSplineSet
EndChar

StartChar: SOLIDUS
Encoding: 47 47 15
Width: 512
Flags: HW
LayerCount: 2
Fore
SplineSet
128 -192 m 1
 85.3333333333 -192 42.6666666667 -192 0 -192 c 1
 -0 -149.333333333 0 -106.666666667 0 -64 c 1
 64 -64 l 1
 64 -21.3333333333 64 21.3333333333 64 64 c 1
 128 64 l 1
 128 106.666666667 128 149.333333333 128 192 c 1
 192 192 l 1
 192 234.666666667 192 277.333333333 192 320 c 1
 256 320 l 1
 256 362.666666667 256 405.333333333 256 448 c 1
 320 448 l 1
 320 490.666666667 320 533.333333333 320 576 c 1
 384 576 l 1
 384 618.666666667 384 661.333333333 384 704 c 1
 426.666666667 704 469.333333333 704 512 704 c 1
 512 661.333333333 512 618.666666667 512 576 c 1
 448 576 l 1
 448 533.333333333 448 490.666666667 448 448 c 1
 384 448 l 1
 384 405.333333333 384 362.666666667 384 320 c 1
 320 320 l 1
 320 277.333333333 320 234.666666667 320 192 c 1
 256 192 l 1
 256 149.333333333 256 106.666666667 256 64 c 1
 192 64 l 1
 192 21.3333333333 192 -21.3333333333 192 -64 c 1
 128 -64 l 1
 128 -106.666666667 128 -149.333333333 128 -192 c 1
EndSplineSet
EndChar

StartChar: DIGIT ZERO
Encoding: 48 48 16
Width: 512
Flags: HW
LayerCount: 2
Fore
SplineSet
384 0 m 1
 64 0 l 1
 64 64 l 1
 0 64 l 1
 -0 234.666666667 0 405.333333333 0 576 c 1
 64 576 l 1
 64 640 l 1
 384 640 l 1
 384 576 l 1
 448 576 l 1
 448 405.333333333 448 234.666666667 448 64 c 1
 384 64 l 1
 384 0 l 1
128 64 m 1
 320 64 l 1
 320 149.333333333 320 234.666666667 320 320 c 1
 256 320 l 1
 256 256 l 1
 192 256 l 1
 192 192 l 1
 128 192 l 1
 128 149.333333333 128 106.666666667 128 64 c 1
192 320 m 1
 192 384 l 1
 256 384 l 1
 256 448 l 1
 320 448 l 1
 320 490.666666667 320 533.333333333 320 576 c 1
 128 576 l 1
 128 490.666666667 128 405.333333333 128 320 c 1
 192 320 l 1
EndSplineSet
EndChar

StartChar: DIGIT ONE
Encoding: 49 49 17
Width: 512
Flags: HW
LayerCount: 2
Fore
SplineSet
64 0 m 1
 64 64 l 1
 106.666666667 64 149.333333333 64 192 64 c 1
 192 192 192 320 192 448 c 1
 128 448 l 1
 128 384 l 1
 64 384 l 1
 64 426.666666667 64 469.333333333 64 512 c 1
 128 512 l 1
 128 576 l 1
 192 576 l 1
 192 640 l 1
 234.666666667 640 277.333333333 640 320 640 c 1
 320 64 l 1
 362.666666667 64 405.333333333 64 448 64 c 1
 448 0 l 1
 320 -0 192 0 64 0 c 1
EndSplineSet
EndChar

StartChar: DIGIT TWO
Encoding: 50 50 18
Width: 512
Flags: HW
LayerCount: 2
Fore
SplineSet
0 512 m 1
 0 576 l 1
 64 576 l 1
 64 640 l 1
 384 640 l 1
 384 576 l 1
 448 576 l 1
 448 384 l 1
 384 384 l 1
 384 320 l 1
 320 320 l 1
 320 256 l 1
 256 256 l 1
 256 192 l 1
 192 192 l 1
 192 128 l 1
 128 128 l 1
 128 64 l 1
 320 64 l 1
 320 128 l 1
 362.666666667 128 405.333333333 128 448 128 c 1
 448 85.3333333333 448 42.6666666667 448 0 c 1
 0 0 l 1
 -0 42.6666666667 0 85.3333333333 0 128 c 1
 64 128 l 1
 64 192 l 1
 128 192 l 1
 128 256 l 1
 192 256 l 1
 192 320 l 1
 256 320 l 1
 256 384 l 1
 320 384 l 1
 320 576 l 1
 128 576 l 1
 128 512 l 1
 85.3333333333 512 42.6666666667 512 0 512 c 1
EndSplineSet
EndChar

StartChar: DIGIT THREE
Encoding: 51 51 19
Width: 512
Flags: HW
LayerCount: 2
Fore
SplineSet
0 64 m 1
 0 128 l 1
 42.6666666667 128 85.3333333333 128 128 128 c 1
 128 64 l 1
 320 64 l 1
 320 149.333333333 320 234.666666667 320 320 c 1
 128 320 l 1
 128 384 l 1
 320 384 l 1
 320 576 l 1
 128 576 l 1
 128 512 l 1
 85.3333333333 512 42.6666666667 512 0 512 c 1
 0 576 l 1
 64 576 l 1
 64 640 l 1
 384 640 l 1
 384 576 l 1
 448 576 l 1
 448 384 l 1
 384 384 l 1
 384 320 l 1
 448 320 l 1
 448 234.666666667 448 149.333333333 448 64 c 1
 384 64 l 1
 384 0 l 1
 64 0 l 1
 64 64 l 1
 0 64 l 1
EndSplineSet
EndChar

StartChar: DIGIT FOUR
Encoding: 52 52 20
Width: 512
Flags: HW
LayerCount: 2
Fore
SplineSet
384 0 m 1
 341.333333333 -0 298.666666667 0 256 0 c 1
 256 192 l 1
 170.666666667 192 85.3333333333 192 0 192 c 1
 0 640 l 1
 42.6666666667 640 85.3333333333 640 128 640 c 1
 128 512 128 384 128 256 c 1
 170.666666667 256 213.333333333 256 256 256 c 1
 256 341.333333333 256 426.666666667 256 512 c 1
 298.666666667 512 341.333333333 512 384 512 c 1
 384 426.666666667 384 341.333333333 384 256 c 1
 448 256 l 1
 448 192 l 1
 384 192 l 1
 384 0 l 1
EndSplineSet
EndChar

StartChar: DIGIT FIVE
Encoding: 53 53 21
Width: 512
Flags: HW
LayerCount: 2
Fore
SplineSet
0 64 m 1
 0 128 l 1
 42.6666666667 128 85.3333333333 128 128 128 c 1
 128 64 l 1
 320 64 l 1
 320 149.333333333 320 234.666666667 320 320 c 1
 0 320 l 1
 0 640 l 1
 448 640 l 1
 448 597.333333333 448 554.666666667 448 512 c 1
 405.333333333 512 362.666666667 512 320 512 c 1
 320 576 l 1
 128 576 l 1
 128 384 l 1
 213.333333333 384 298.666666667 384 384 384 c 1
 384 320 l 1
 448 320 l 1
 448 234.666666667 448 149.333333333 448 64 c 1
 384 64 l 1
 384 0 l 1
 64 0 l 1
 64 64 l 1
 0 64 l 1
EndSplineSet
EndChar

StartChar: DIGIT SIX
Encoding: 54 54 22
Width: 512
Flags: HW
LayerCount: 2
Fore
SplineSet
384 0 m 1
 64 0 l 1
 64 64 l 1
 0 64 l 1
 -0 234.666666667 0 405.333333333 0 576 c 1
 64 576 l 1
 64 640 l 1
 384 640 l 1
 384 576 l 1
 448 576 l 1
 448 512 l 1
 405.333333333 512 362.666666667 512 320 512 c 1
 320 576 l 1
 128 576 l 1
 128 384 l 1
 213.333333333 384 298.666666667 384 384 384 c 1
 384 320 l 1
 448 320 l 1
 448 234.666666667 448 149.333333333 448 64 c 1
 384 64 l 1
 384 0 l 1
128 64 m 1
 320 64 l 1
 320 149.333333333 320 234.666666667 320 320 c 1
 128 320 l 1
 128 234.666666667 128 149.333333333 128 64 c 1
EndSplineSet
EndChar

StartChar: DIGIT SEVEN
Encoding: 55 55 23
Width: 512
Flags: HW
LayerCount: 2
Fore
SplineSet
256 0 m 1
 213.333333333 -0 170.666666667 0 128 0 c 1
 128 85.3333333333 128 170.666666667 128 256 c 1
 192 256 l 1
 192 320 l 1
 256 320 l 1
 256 384 l 1
 320 384 l 1
 320 576 l 1
 128 576 l 1
 128 512 l 1
 85.3333333333 512 42.6666666667 512 0 512 c 1
 -0 554.666666667 0 597.333333333 0 640 c 1
 448 640 l 1
 448 554.666666667 448 469.333333333 448 384 c 1
 384 384 l 1
 384 320 l 1
 320 320 l 1
 320 256 l 1
 256 256 l 1
 256 170.666666667 256 85.3333333333 256 0 c 1
EndSplineSet
EndChar

StartChar: DIGIT EIGHT
Encoding: 56 56 24
Width: 512
Flags: HW
LayerCount: 2
Fore
SplineSet
384 0 m 1
 64 0 l 1
 64 64 l 1
 0 64 l 1
 -0 149.333333333 0 234.666666667 0 320 c 1
 64 320 l 1
 64 384 l 1
 0 384 l 1
 0 576 l 1
 64 576 l 1
 64 640 l 1
 384 640 l 1
 384 576 l 1
 448 576 l 1
 448 384 l 1
 384 384 l 1
 384 320 l 1
 448 320 l 1
 448 234.666666667 448 149.333333333 448 64 c 1
 384 64 l 1
 384 0 l 1
128 64 m 1
 320 64 l 1
 320 149.333333333 320 234.666666667 320 320 c 1
 128 320 l 1
 128 234.666666667 128 149.333333333 128 64 c 1
128 384 m 1
 320 384 l 1
 320 576 l 1
 128 576 l 1
 128 384 l 1
EndSplineSet
EndChar

StartChar: DIGIT NINE
Encoding: 57 57 25
Width: 512
Flags: HW
LayerCount: 2
Fore
SplineSet
0 64 m 1
 0 128 l 1
 42.6666666667 128 85.3333333333 128 128 128 c 1
 128 64 l 1
 320 64 l 1
 320 256 l 1
 234.666666667 256 149.333333333 256 64 256 c 1
 64 320 l 1
 0 320 l 1
 -0 405.333333333 0 490.666666667 0 576 c 1
 64 576 l 1
 64 640 l 1
 384 640 l 1
 384 576 l 1
 448 576 l 1
 448 405.333333333 448 234.666666667 448 64 c 1
 384 64 l 1
 384 0 l 1
 64 0 l 1
 64 64 l 1
 0 64 l 1
128 320 m 1
 320 320 l 1
 320 405.333333333 320 490.666666667 320 576 c 1
 128 576 l 1
 128 490.666666667 128 405.333333333 128 320 c 1
EndSplineSet
EndChar

StartChar: COLON
Encoding: 58 58 26
Width: 512
Flags: HW
LayerCount: 2
Fore
SplineSet
320 0 m 1
 277.333333333 -0 234.666666667 0 192 0 c 1
 192 42.6666666667 192 85.3333333333 192 128 c 1
 234.666666667 128 277.333333333 128 320 128 c 1
 320 85.3333333333 320 42.6666666667 320 0 c 1
320 320 m 1
 277.333333333 320 234.666666667 320 192 320 c 1
 192 362.666666667 192 405.333333333 192 448 c 1
 234.666666667 448 277.333333333 448 320 448 c 1
 320 405.333333333 320 362.666666667 320 320 c 1
EndSplineSet
EndChar

StartChar: SEMICOLON
Encoding: 59 59 27
Width: 512
Flags: HW
LayerCount: 2
Fore
SplineSet
128 -64 m 1
 128 0 l 1
 192 0 l 1
 192 42.6666666667 192 85.3333333333 192 128 c 1
 234.666666667 128 277.333333333 128 320 128 c 1
 320 85.3333333333 320 42.6666666667 320 0 c 1
 256 0 l 1
 256 -64 l 1
 213.333333333 -64 170.666666667 -64 128 -64 c 1
320 320 m 1
 277.333333333 320 234.666666667 320 192 320 c 1
 192 362.666666667 192 405.333333333 192 448 c 1
 234.666666667 448 277.333333333 448 320 448 c 1
 320 405.333333333 320 362.666666667 320 320 c 1
EndSplineSet
EndChar

StartChar: LESS-THAN SIGN
Encoding: 60 60 28
Width: 512
Flags: HW
LayerCount: 2
Fore
SplineSet
448 0 m 1
 405.333333333 -0 362.666666667 0 320 0 c 1
 320 64 l 1
 256 64 l 1
 256 128 l 1
 192 128 l 1
 192 192 l 1
 128 192 l 1
 128 256 l 1
 64 256 l 1
 64 298.666666667 64 341.333333333 64 384 c 1
 128 384 l 1
 128 448 l 1
 192 448 l 1
 192 512 l 1
 256 512 l 1
 256 576 l 1
 320 576 l 1
 320 640 l 1
 362.666666667 640 405.333333333 640 448 640 c 1
 448 576 l 1
 384 576 l 1
 384 512 l 1
 320 512 l 1
 320 448 l 1
 256 448 l 1
 256 384 l 1
 192 384 l 1
 192 341.333333333 192 298.666666667 192 256 c 1
 256 256 l 1
 256 192 l 1
 320 192 l 1
 320 128 l 1
 384 128 l 1
 384 64 l 1
 448 64 l 1
 448 0 l 1
EndSplineSet
EndChar

StartChar: EQUALS SIGN
Encoding: 61 61 29
Width: 512
Flags: HW
LayerCount: 2
Fore
SplineSet
64 192 m 1
 64 256 l 1
 192 256 320 256 448 256 c 1
 448 192 l 1
 320 192 192 192 64 192 c 1
64 384 m 1
 64 448 l 1
 192 448 320 448 448 448 c 1
 448 384 l 1
 320 384 192 384 64 384 c 1
EndSplineSet
EndChar

StartChar: GREATER-THAN SIGN
Encoding: 62 62 30
Width: 512
Flags: HW
LayerCount: 2
Fore
SplineSet
64 0 m 1
 64 64 l 1
 128 64 l 1
 128 128 l 1
 192 128 l 1
 192 192 l 1
 256 192 l 1
 256 256 l 1
 320 256 l 1
 320 298.666666667 320 341.333333333 320 384 c 1
 256 384 l 1
 256 448 l 1
 192 448 l 1
 192 512 l 1
 128 512 l 1
 128 576 l 1
 64 576 l 1
 64 640 l 1
 106.666666667 640 149.333333333 640 192 640 c 1
 192 576 l 1
 256 576 l 1
 256 512 l 1
 320 512 l 1
 320 448 l 1
 384 448 l 1
 384 384 l 1
 448 384 l 1
 448 341.333333333 448 298.666666667 448 256 c 1
 384 256 l 1
 384 192 l 1
 320 192 l 1
 320 128 l 1
 256 128 l 1
 256 64 l 1
 192 64 l 1
 192 0 l 1
 149.333333333 -0 106.666666667 0 64 0 c 1
EndSplineSet
EndChar

StartChar: QUESTION MARK
Encoding: 63 63 31
Width: 512
Flags: HW
LayerCount: 2
Fore
SplineSet
0 512 m 1
 0 576 l 1
 64 576 l 1
 64 640 l 1
 384 640 l 1
 384 576 l 1
 448 576 l 1
 448 533.333333333 448 490.666666667 448 448 c 1
 384 448 l 1
 384 384 l 1
 320 384 l 1
 320 320 l 1
 256 320 l 1
 256 277.333333333 256 234.666666667 256 192 c 1
 213.333333333 192 170.666666667 192 128 192 c 1
 128 234.666666667 128 277.333333333 128 320 c 1
 192 320 l 1
 192 384 l 1
 256 384 l 1
 256 448 l 1
 320 448 l 1
 320 490.666666667 320 533.333333333 320 576 c 1
 128 576 l 1
 128 512 l 1
 85.3333333333 512 42.6666666667 512 0 512 c 1
256 0 m 1
 213.333333333 -0 170.666666667 0 128 0 c 1
 128 42.6666666667 128 85.3333333333 128 128 c 1
 170.666666667 128 213.333333333 128 256 128 c 1
 256 85.3333333333 256 42.6666666667 256 0 c 1
EndSplineSet
EndChar

StartChar: COMMERCIAL AT
Encoding: 64 64 32
Width: 512
Flags: HW
LayerCount: 2
Fore
SplineSet
384 0 m 1
 64 0 l 1
 64 64 l 1
 0 64 l 1
 0 512 l 1
 64 512 l 1
 64 576 l 1
 384 576 l 1
 384 512 l 1
 448 512 l 1
 448 384 448 256 448 128 c 1
 362.666666667 128 277.333333333 128 192 128 c 1
 192 448 l 1
 234.666666667 448 277.333333333 448 320 448 c 1
 320 362.666666667 320 277.333333333 320 192 c 1
 384 192 l 1
 384 512 l 1
 298.666666667 512 213.333333333 512 128 512 c 1
 128 64 l 1
 213.333333333 64 298.666666667 64 384 64 c 1
 384 0 l 1
EndSplineSet
EndChar

StartChar: LATIN CAPITAL LETTER A
Encoding: 65 65 33
Width: 512
Flags: HW
LayerCount: 2
Fore
SplineSet
448 0 m 1
 405.333333333 -0 362.666666667 0 320 0 c 1
 320 320 l 1
 128 320 l 1
 128 0 l 1
 85.3333333333 -0 42.6666666667 0 0 0 c 1
 0 576 l 1
 64 576 l 1
 64 640 l 1
 384 640 l 1
 384 576 l 1
 448 576 l 1
 448 0 l 1
128 384 m 1
 320 384 l 1
 320 576 l 1
 128 576 l 1
 128 384 l 1
EndSplineSet
EndChar

StartChar: LATIN CAPITAL LETTER B
Encoding: 66 66 34
Width: 512
Flags: HW
LayerCount: 2
Fore
SplineSet
384 0 m 1
 256 -0 128 0 0 0 c 1
 -0 213.333333333 0 426.666666667 0 640 c 1
 128 640 256 640 384 640 c 1
 384 576 l 1
 448 576 l 1
 448 384 l 1
 384 384 l 1
 384 320 l 1
 448 320 l 1
 448 234.666666667 448 149.333333333 448 64 c 1
 384 64 l 1
 384 0 l 1
128 64 m 1
 320 64 l 1
 320 149.333333333 320 234.666666667 320 320 c 1
 128 320 l 1
 128 234.666666667 128 149.333333333 128 64 c 1
128 384 m 1
 320 384 l 1
 320 576 l 1
 128 576 l 1
 128 384 l 1
EndSplineSet
EndChar

StartChar: LATIN CAPITAL LETTER C
Encoding: 67 67 35
Width: 512
Flags: HW
LayerCount: 2
Fore
SplineSet
448 0 m 1
 320 -0 192 0 64 0 c 1
 64 64 l 1
 0 64 l 1
 -0 234.666666667 0 405.333333333 0 576 c 1
 64 576 l 1
 64 640 l 1
 192 640 320 640 448 640 c 1
 448 576 l 1
 128 576 l 1
 128 405.333333333 128 234.666666667 128 64 c 1
 448 64 l 1
 448 0 l 1
EndSplineSet
EndChar

StartChar: LATIN CAPITAL LETTER D
Encoding: 68 68 36
Width: 512
Flags: HW
LayerCount: 2
Fore
SplineSet
384 0 m 1
 256 -0 128 0 0 0 c 1
 -0 213.333333333 0 426.666666667 0 640 c 1
 128 640 256 640 384 640 c 1
 384 576 l 1
 448 576 l 1
 448 405.333333333 448 234.666666667 448 64 c 1
 384 64 l 1
 384 0 l 1
128 64 m 1
 320 64 l 1
 320 234.666666667 320 405.333333333 320 576 c 1
 128 576 l 1
 128 405.333333333 128 234.666666667 128 64 c 1
EndSplineSet
EndChar

StartChar: LATIN CAPITAL LETTER E
Encoding: 69 69 37
Width: 512
Flags: HW
LayerCount: 2
Fore
SplineSet
448 0 m 1
 320 -0 192 0 64 0 c 1
 64 64 l 1
 0 64 l 1
 -0 234.666666667 0 405.333333333 0 576 c 1
 64 576 l 1
 64 640 l 1
 192 640 320 640 448 640 c 1
 448 576 l 1
 128 576 l 1
 128 384 l 1
 320 384 l 1
 320 320 l 1
 128 320 l 1
 128 234.666666667 128 149.333333333 128 64 c 1
 448 64 l 1
 448 0 l 1
EndSplineSet
EndChar

StartChar: LATIN CAPITAL LETTER F
Encoding: 70 70 38
Width: 512
Flags: HW
LayerCount: 2
Fore
SplineSet
128 0 m 1
 85.3333333333 -0 42.6666666667 0 0 0 c 1
 0 576 l 1
 64 576 l 1
 64 640 l 1
 192 640 320 640 448 640 c 1
 448 576 l 1
 128 576 l 1
 128 384 l 1
 320 384 l 1
 320 320 l 1
 128 320 l 1
 128 0 l 1
EndSplineSet
EndChar

StartChar: LATIN CAPITAL LETTER G
Encoding: 71 71 39
Width: 512
Flags: HW
LayerCount: 2
Fore
SplineSet
192 320 m 1
 192 384 l 1
 277.333333333 384 362.666666667 384 448 384 c 1
 448 256 448 128 448 0 c 1
 320 -0 192 0 64 0 c 1
 64 64 l 1
 0 64 l 1
 -0 234.666666667 0 405.333333333 0 576 c 1
 64 576 l 1
 64 640 l 1
 192 640 320 640 448 640 c 1
 448 576 l 1
 128 576 l 1
 128 405.333333333 128 234.666666667 128 64 c 1
 320 64 l 1
 320 149.333333333 320 234.666666667 320 320 c 1
 277.333333333 320 234.666666667 320 192 320 c 1
EndSplineSet
EndChar

StartChar: LATIN CAPITAL LETTER H
Encoding: 72 72 40
Width: 512
Flags: HW
LayerCount: 2
Fore
SplineSet
448 0 m 1
 405.333333333 -0 362.666666667 0 320 0 c 1
 320 320 l 1
 128 320 l 1
 128 0 l 1
 85.3333333333 -0 42.6666666667 0 0 0 c 1
 -0 213.333333333 0 426.666666667 0 640 c 1
 42.6666666667 640 85.3333333333 640 128 640 c 1
 128 554.666666667 128 469.333333333 128 384 c 1
 320 384 l 1
 320 469.333333333 320 554.666666667 320 640 c 1
 362.666666667 640 405.333333333 640 448 640 c 1
 448 426.666666667 448 213.333333333 448 0 c 1
EndSplineSet
EndChar

StartChar: LATIN CAPITAL LETTER I
Encoding: 73 73 41
Width: 512
Flags: HW
LayerCount: 2
Fore
SplineSet
64 0 m 1
 64 64 l 1
 106.666666667 64 149.333333333 64 192 64 c 1
 192 234.666666667 192 405.333333333 192 576 c 1
 149.333333333 576 106.666666667 576 64 576 c 1
 64 640 l 1
 192 640 320 640 448 640 c 1
 448 576 l 1
 405.333333333 576 362.666666667 576 320 576 c 1
 320 405.333333333 320 234.666666667 320 64 c 1
 362.666666667 64 405.333333333 64 448 64 c 1
 448 0 l 1
 320 -0 192 0 64 0 c 1
EndSplineSet
EndChar

StartChar: LATIN CAPITAL LETTER J
Encoding: 74 74 42
Width: 512
Flags: HW
LayerCount: 2
Fore
SplineSet
0 0 m 1
 0 64 l 1
 192 64 l 1
 192 234.666666667 192 405.333333333 192 576 c 1
 149.333333333 576 106.666666667 576 64 576 c 1
 64 640 l 1
 192 640 320 640 448 640 c 1
 448 576 l 1
 405.333333333 576 362.666666667 576 320 576 c 1
 320 405.333333333 320 234.666666667 320 64 c 1
 256 64 l 1
 256 0 l 1
 170.666666667 -0 85.3333333333 0 0 0 c 1
EndSplineSet
EndChar

StartChar: LATIN CAPITAL LETTER K
Encoding: 75 75 43
Width: 512
Flags: HW
LayerCount: 2
Fore
SplineSet
448 0 m 1
 405.333333333 -0 362.666666667 0 320 0 c 1
 320 85.3333333333 320 170.666666667 320 256 c 1
 256 256 l 1
 256 320 l 1
 213.333333333 320 170.666666667 320 128 320 c 1
 128 0 l 1
 85.3333333333 -0 42.6666666667 0 0 0 c 1
 -0 213.333333333 0 426.666666667 0 640 c 1
 42.6666666667 640 85.3333333333 640 128 640 c 1
 128 554.666666667 128 469.333333333 128 384 c 1
 170.666666667 384 213.333333333 384 256 384 c 1
 256 448 l 1
 320 448 l 1
 320 640 l 1
 362.666666667 640 405.333333333 640 448 640 c 1
 448 448 l 1
 384 448 l 1
 384 384 l 1
 320 384 l 1
 320 320 l 1
 384 320 l 1
 384 256 l 1
 448 256 l 1
 448 170.666666667 448 85.3333333333 448 0 c 1
EndSplineSet
EndChar

StartChar: LATIN CAPITAL LETTER L
Encoding: 76 76 44
Width: 512
Flags: HW
LayerCount: 2
Fore
SplineSet
448 0 m 1
 320 -0 192 0 64 0 c 1
 64 64 l 1
 0 64 l 1
 0 640 l 1
 42.6666666667 640 85.3333333333 640 128 640 c 1
 128 64 l 1
 448 64 l 1
 448 0 l 1
EndSplineSet
EndChar

StartChar: LATIN CAPITAL LETTER M
Encoding: 77 77 45
Width: 512
Flags: HW
LayerCount: 2
Fore
SplineSet
448 0 m 1
 405.333333333 -0 362.666666667 0 320 0 c 1
 320 448 l 1
 256 448 l 1
 256 384 l 1
 192 384 l 1
 192 448 l 1
 128 448 l 1
 128 0 l 1
 85.3333333333 -0 42.6666666667 0 0 0 c 1
 -0 213.333333333 0 426.666666667 0 640 c 1
 42.6666666667 640 85.3333333333 640 128 640 c 1
 128 576 l 1
 192 576 l 1
 192 512 l 1
 256 512 l 1
 256 576 l 1
 320 576 l 1
 320 640 l 1
 362.666666667 640 405.333333333 640 448 640 c 1
 448 426.666666667 448 213.333333333 448 0 c 1
EndSplineSet
EndChar

StartChar: LATIN CAPITAL LETTER N
Encoding: 78 78 46
Width: 512
Flags: HW
LayerCount: 2
Fore
SplineSet
448 0 m 1
 405.333333333 -0 362.666666667 0 320 0 c 1
 320 42.6666666667 320 85.3333333333 320 128 c 1
 256 128 l 1
 256 170.666666667 256 213.333333333 256 256 c 1
 320 256 l 1
 320 384 320 512 320 640 c 1
 362.666666667 640 405.333333333 640 448 640 c 1
 448 426.666666667 448 213.333333333 448 0 c 1
128 0 m 1
 85.3333333333 -0 42.6666666667 0 0 0 c 1
 -0 213.333333333 0 426.666666667 0 640 c 1
 42.6666666667 640 85.3333333333 640 128 640 c 1
 128 597.333333333 128 554.666666667 128 512 c 1
 192 512 l 1
 192 469.333333333 192 426.666666667 192 384 c 1
 256 384 l 1
 256 341.333333333 256 298.666666667 256 256 c 1
 192 256 l 1
 192 298.666666667 192 341.333333333 192 384 c 1
 128 384 l 1
 128 256 128 128 128 0 c 1
EndSplineSet
EndChar

StartChar: LATIN CAPITAL LETTER O
Encoding: 79 79 47
Width: 512
Flags: HW
LayerCount: 2
Fore
SplineSet
384 0 m 1
 64 0 l 1
 64 64 l 1
 0 64 l 1
 -0 234.666666667 0 405.333333333 0 576 c 1
 64 576 l 1
 64 640 l 1
 384 640 l 1
 384 576 l 1
 448 576 l 1
 448 405.333333333 448 234.666666667 448 64 c 1
 384 64 l 1
 384 0 l 1
128 64 m 1
 320 64 l 1
 320 234.666666667 320 405.333333333 320 576 c 1
 128 576 l 1
 128 405.333333333 128 234.666666667 128 64 c 1
EndSplineSet
EndChar

StartChar: LATIN CAPITAL LETTER P
Encoding: 80 80 48
Width: 512
Flags: HW
LayerCount: 2
Fore
SplineSet
128 0 m 1
 85.3333333333 -0 42.6666666667 0 0 0 c 1
 -0 213.333333333 0 426.666666667 0 640 c 1
 128 640 256 640 384 640 c 1
 384 576 l 1
 448 576 l 1
 448 384 l 1
 384 384 l 1
 384 320 l 1
 298.666666667 320 213.333333333 320 128 320 c 1
 128 0 l 1
128 384 m 1
 320 384 l 1
 320 576 l 1
 128 576 l 1
 128 384 l 1
EndSplineSet
EndChar

StartChar: LATIN CAPITAL LETTER Q
Encoding: 81 81 49
Width: 512
Flags: HW
LayerCount: 2
Fore
SplineSet
384 -128 m 1
 341.333333333 -128 298.666666667 -128 256 -128 c 1
 256 -64 l 1
 192 -64 l 1
 192 0 l 1
 149.333333333 -0 106.666666667 0 64 0 c 1
 64 64 l 1
 0 64 l 1
 -0 234.666666667 0 405.333333333 0 576 c 1
 64 576 l 1
 64 640 l 1
 384 640 l 1
 384 576 l 1
 448 576 l 1
 448 405.333333333 448 234.666666667 448 64 c 1
 384 64 l 1
 384 0 l 1
 320 0 l 1
 320 -64 l 1
 384 -64 l 1
 384 -128 l 1
320 64 m 1
 320 234.666666667 320 405.333333333 320 576 c 1
 128 576 l 1
 128 405.333333333 128 234.666666667 128 64 c 1
 192 64 l 1
 192 106.666666667 192 149.333333333 192 192 c 1
 256 192 l 1
 256 149.333333333 256 106.666666667 256 64 c 1
 320 64 l 1
EndSplineSet
EndChar

StartChar: LATIN CAPITAL LETTER R
Encoding: 82 82 50
Width: 512
Flags: HW
LayerCount: 2
Fore
SplineSet
448 0 m 1
 405.333333333 -0 362.666666667 0 320 0 c 1
 320 320 l 1
 128 320 l 1
 128 0 l 1
 85.3333333333 -0 42.6666666667 0 0 0 c 1
 -0 213.333333333 0 426.666666667 0 640 c 1
 128 640 256 640 384 640 c 1
 384 576 l 1
 448 576 l 1
 448 384 l 1
 384 384 l 1
 384 320 l 1
 448 320 l 1
 448 0 l 1
128 384 m 1
 320 384 l 1
 320 576 l 1
 128 576 l 1
 128 384 l 1
EndSplineSet
EndChar

StartChar: LATIN CAPITAL LETTER S
Encoding: 83 83 51
Width: 512
Flags: HW
LayerCount: 2
Fore
SplineSet
0 0 m 1
 0 64 l 1
 320 64 l 1
 320 149.333333333 320 234.666666667 320 320 c 1
 234.666666667 320 149.333333333 320 64 320 c 1
 64 384 l 1
 0 384 l 1
 0 576 l 1
 64 576 l 1
 64 640 l 1
 192 640 320 640 448 640 c 1
 448 576 l 1
 128 576 l 1
 128 384 l 1
 213.333333333 384 298.666666667 384 384 384 c 1
 384 320 l 1
 448 320 l 1
 448 234.666666667 448 149.333333333 448 64 c 1
 384 64 l 1
 384 0 l 1
 256 -0 128 0 0 0 c 1
EndSplineSet
EndChar

StartChar: LATIN CAPITAL LETTER T
Encoding: 84 84 52
Width: 512
Flags: HW
LayerCount: 2
Fore
SplineSet
0 576 m 1
 0 640 l 1
 170.666666667 640 341.333333333 640 512 640 c 1
 512 576 l 1
 320 576 l 1
 320 0 l 1
 277.333333333 -0 234.666666667 0 192 0 c 1
 192 576 l 1
 0 576 l 1
EndSplineSet
EndChar

StartChar: LATIN CAPITAL LETTER U
Encoding: 85 85 53
Width: 512
Flags: HW
LayerCount: 2
Fore
SplineSet
448 0 m 1
 320 -0 192 0 64 0 c 1
 64 64 l 1
 0 64 l 1
 0 640 l 1
 42.6666666667 640 85.3333333333 640 128 640 c 1
 128 64 l 1
 320 64 l 1
 320 640 l 1
 362.666666667 640 405.333333333 640 448 640 c 1
 448 426.666666667 448 213.333333333 448 0 c 1
EndSplineSet
EndChar

StartChar: LATIN CAPITAL LETTER V
Encoding: 86 86 54
Width: 512
Flags: HW
LayerCount: 2
Fore
SplineSet
256 64 m 1
 256 0 l 1
 192 0 l 1
 192 64 l 1
 128 64 l 1
 128 128 l 1
 64 128 l 1
 64 192 l 1
 0 192 l 1
 0 640 l 1
 42.6666666667 640 85.3333333333 640 128 640 c 1
 128 192 l 1
 192 192 l 1
 192 128 l 1
 256 128 l 1
 256 192 l 1
 320 192 l 1
 320 640 l 1
 362.666666667 640 405.333333333 640 448 640 c 1
 448 192 l 1
 384 192 l 1
 384 128 l 1
 320 128 l 1
 320 64 l 1
 256 64 l 1
EndSplineSet
EndChar

StartChar: LATIN CAPITAL LETTER W
Encoding: 87 87 55
Width: 512
Flags: HW
LayerCount: 2
Fore
SplineSet
448 0 m 1
 405.333333333 -0 362.666666667 0 320 0 c 1
 320 64 l 1
 256 64 l 1
 256 128 l 1
 192 128 l 1
 192 64 l 1
 128 64 l 1
 128 0 l 1
 85.3333333333 -0 42.6666666667 0 0 0 c 1
 -0 213.333333333 0 426.666666667 0 640 c 1
 42.6666666667 640 85.3333333333 640 128 640 c 1
 128 192 l 1
 192 192 l 1
 192 256 l 1
 256 256 l 1
 256 192 l 1
 320 192 l 1
 320 640 l 1
 362.666666667 640 405.333333333 640 448 640 c 1
 448 426.666666667 448 213.333333333 448 0 c 1
EndSplineSet
EndChar

StartChar: LATIN CAPITAL LETTER X
Encoding: 88 88 56
Width: 512
Flags: HW
LayerCount: 2
Fore
SplineSet
448 0 m 1
 405.333333333 -0 362.666666667 0 320 0 c 1
 320 85.3333333333 320 170.666666667 320 256 c 1
 256 256 l 1
 256 320 l 1
 192 320 l 1
 192 256 l 1
 128 256 l 1
 128 170.666666667 128 85.3333333333 128 0 c 1
 85.3333333333 -0 42.6666666667 0 0 0 c 1
 -0 85.3333333333 0 170.666666667 0 256 c 1
 64 256 l 1
 64 320 l 1
 128 320 l 1
 128 384 l 1
 64 384 l 1
 64 448 l 1
 0 448 l 1
 0 640 l 1
 42.6666666667 640 85.3333333333 640 128 640 c 1
 128 448 l 1
 192 448 l 1
 192 384 l 1
 256 384 l 1
 256 448 l 1
 320 448 l 1
 320 640 l 1
 362.666666667 640 405.333333333 640 448 640 c 1
 448 448 l 1
 384 448 l 1
 384 384 l 1
 320 384 l 1
 320 320 l 1
 384 320 l 1
 384 256 l 1
 448 256 l 1
 448 170.666666667 448 85.3333333333 448 0 c 1
EndSplineSet
EndChar

StartChar: LATIN CAPITAL LETTER Y
Encoding: 89 89 57
Width: 512
Flags: HW
LayerCount: 2
Fore
SplineSet
0 0 m 1
 0 64 l 1
 320 64 l 1
 320 149.333333333 320 234.666666667 320 320 c 1
 234.666666667 320 149.333333333 320 64 320 c 1
 64 384 l 1
 0 384 l 1
 -0 469.333333333 0 554.666666667 0 640 c 1
 42.6666666667 640 85.3333333333 640 128 640 c 1
 128 554.666666667 128 469.333333333 128 384 c 1
 320 384 l 1
 320 469.333333333 320 554.666666667 320 640 c 1
 362.666666667 640 405.333333333 640 448 640 c 1
 448 64 l 1
 384 64 l 1
 384 0 l 1
 256 -0 128 0 0 0 c 1
EndSplineSet
EndChar

StartChar: LATIN CAPITAL LETTER Z
Encoding: 90 90 58
Width: 512
Flags: HW
LayerCount: 2
Fore
SplineSet
0 576 m 1
 0 640 l 1
 448 640 l 1
 448 448 l 1
 384 448 l 1
 384 384 l 1
 320 384 l 1
 320 320 l 1
 256 320 l 1
 256 256 l 1
 192 256 l 1
 192 192 l 1
 128 192 l 1
 128 149.333333333 128 106.666666667 128 64 c 1
 448 64 l 1
 448 0 l 1
 0 0 l 1
 0 192 l 1
 64 192 l 1
 64 256 l 1
 128 256 l 1
 128 320 l 1
 192 320 l 1
 192 384 l 1
 256 384 l 1
 256 448 l 1
 320 448 l 1
 320 490.666666667 320 533.333333333 320 576 c 1
 0 576 l 1
EndSplineSet
EndChar

StartChar: LEFT SQUARE BRACKET
Encoding: 91 91 59
Width: 512
Flags: HW
LayerCount: 2
Fore
SplineSet
448 -192 m 1
 128 -192 l 1
 128 106.666666667 128 405.333333333 128 704 c 1
 448 704 l 1
 448 640 l 1
 256 640 l 1
 256 384 256 128 256 -128 c 1
 448 -128 l 1
 448 -192 l 1
EndSplineSet
EndChar

StartChar: REVERSE SOLIDUS
Encoding: 92 92 60
Width: 512
Flags: HW
LayerCount: 2
Fore
SplineSet
512 -192 m 1
 469.333333333 -192 426.666666667 -192 384 -192 c 1
 384 -149.333333333 384 -106.666666667 384 -64 c 1
 320 -64 l 1
 320 -21.3333333333 320 21.3333333333 320 64 c 1
 256 64 l 1
 256 106.666666667 256 149.333333333 256 192 c 1
 192 192 l 1
 192 234.666666667 192 277.333333333 192 320 c 1
 128 320 l 1
 128 362.666666667 128 405.333333333 128 448 c 1
 64 448 l 1
 64 490.666666667 64 533.333333333 64 576 c 1
 0 576 l 1
 -0 618.666666667 0 661.333333333 0 704 c 1
 42.6666666667 704 85.3333333333 704 128 704 c 1
 128 661.333333333 128 618.666666667 128 576 c 1
 192 576 l 1
 192 533.333333333 192 490.666666667 192 448 c 1
 256 448 l 1
 256 405.333333333 256 362.666666667 256 320 c 1
 320 320 l 1
 320 277.333333333 320 234.666666667 320 192 c 1
 384 192 l 1
 384 149.333333333 384 106.666666667 384 64 c 1
 448 64 l 1
 448 21.3333333333 448 -21.3333333333 448 -64 c 1
 512 -64 l 1
 512 -106.666666667 512 -149.333333333 512 -192 c 1
EndSplineSet
EndChar

StartChar: RIGHT SQUARE BRACKET
Encoding: 93 93 61
Width: 512
Flags: HW
LayerCount: 2
Fore
SplineSet
64 -192 m 1
 64 -128 l 1
 256 -128 l 1
 256 128 256 384 256 640 c 1
 64 640 l 1
 64 704 l 1
 384 704 l 1
 384 405.333333333 384 106.666666667 384 -192 c 1
 64 -192 l 1
EndSplineSet
EndChar

StartChar: CIRCUMFLEX ACCENT
Encoding: 94 94 62
Width: 512
Flags: HW
LayerCount: 2
Fore
SplineSet
0 448 m 1
 0 512 l 1
 64 512 l 1
 64 576 l 1
 128 576 l 1
 128 640 l 1
 192 640 l 1
 192 704 l 1
 256 704 l 1
 256 640 l 1
 320 640 l 1
 320 576 l 1
 384 576 l 1
 384 512 l 1
 448 512 l 1
 448 448 l 1
 405.333333333 448 362.666666667 448 320 448 c 1
 320 512 l 1
 256 512 l 1
 256 576 l 1
 192 576 l 1
 192 512 l 1
 128 512 l 1
 128 448 l 1
 85.3333333333 448 42.6666666667 448 0 448 c 1
EndSplineSet
EndChar

StartChar: LOW LINE
Encoding: 95 95 63
Width: 512
Flags: HW
LayerCount: 2
Fore
SplineSet
0 -192 m 1
 0 -128 l 1
 448 -128 l 1
 448 -192 l 1
 0 -192 l 1
EndSplineSet
EndChar

StartChar: GRAVE ACCENT
Encoding: 96 96 64
Width: 512
Flags: HW
LayerCount: 2
Fore
SplineSet
128 640 m 1
 128 704 l 1
 170.666666667 704 213.333333333 704 256 704 c 1
 256 640 l 1
 320 640 l 1
 320 576 l 1
 384 576 l 1
 384 512 l 1
 341.333333333 512 298.666666667 512 256 512 c 1
 256 576 l 1
 192 576 l 1
 192 640 l 1
 128 640 l 1
EndSplineSet
EndChar

StartChar: LATIN SMALL LETTER A
Encoding: 97 97 65
Width: 512
Flags: HW
LayerCount: 2
Fore
SplineSet
64 384 m 1
 64 448 l 1
 384 448 l 1
 384 384 l 1
 448 384 l 1
 448 256 448 128 448 0 c 1
 320 -0 192 0 64 0 c 1
 64 64 l 1
 0 64 l 1
 0 256 l 1
 64 256 l 1
 64 320 l 1
 149.333333333 320 234.666666667 320 320 320 c 1
 320 384 l 1
 234.666666667 384 149.333333333 384 64 384 c 1
128 64 m 1
 320 64 l 1
 320 256 l 1
 128 256 l 1
 128 64 l 1
EndSplineSet
EndChar

StartChar: LATIN SMALL LETTER B
Encoding: 98 98 66
Width: 512
Flags: HW
LayerCount: 2
Fore
SplineSet
384 0 m 1
 256 -0 128 0 0 0 c 1
 -0 213.333333333 0 426.666666667 0 640 c 1
 42.6666666667 640 85.3333333333 640 128 640 c 1
 128 448 l 1
 213.333333333 448 298.666666667 448 384 448 c 1
 384 384 l 1
 448 384 l 1
 448 64 l 1
 384 64 l 1
 384 0 l 1
128 64 m 1
 320 64 l 1
 320 384 l 1
 128 384 l 1
 128 64 l 1
EndSplineSet
EndChar

StartChar: LATIN SMALL LETTER C
Encoding: 99 99 67
Width: 512
Flags: HW
LayerCount: 2
Fore
SplineSet
448 0 m 1
 320 -0 192 0 64 0 c 1
 64 64 l 1
 0 64 l 1
 0 384 l 1
 64 384 l 1
 64 448 l 1
 192 448 320 448 448 448 c 1
 448 384 l 1
 128 384 l 1
 128 64 l 1
 448 64 l 1
 448 0 l 1
EndSplineSet
EndChar

StartChar: LATIN SMALL LETTER D
Encoding: 100 100 68
Width: 512
Flags: HW
LayerCount: 2
Fore
SplineSet
448 0 m 1
 320 -0 192 0 64 0 c 1
 64 64 l 1
 0 64 l 1
 0 384 l 1
 64 384 l 1
 64 448 l 1
 149.333333333 448 234.666666667 448 320 448 c 1
 320 640 l 1
 362.666666667 640 405.333333333 640 448 640 c 1
 448 426.666666667 448 213.333333333 448 0 c 1
128 64 m 1
 320 64 l 1
 320 384 l 1
 128 384 l 1
 128 64 l 1
EndSplineSet
EndChar

StartChar: LATIN SMALL LETTER E
Encoding: 101 101 69
Width: 512
Flags: HW
LayerCount: 2
Fore
SplineSet
448 0 m 1
 320 -0 192 0 64 0 c 1
 64 64 l 1
 0 64 l 1
 0 384 l 1
 64 384 l 1
 64 448 l 1
 192 448 320 448 448 448 c 1
 448 362.666666667 448 277.333333333 448 192 c 1
 128 192 l 1
 128 149.333333333 128 106.666666667 128 64 c 1
 448 64 l 1
 448 0 l 1
128 256 m 1
 320 256 l 1
 320 298.666666667 320 341.333333333 320 384 c 1
 128 384 l 1
 128 341.333333333 128 298.666666667 128 256 c 1
EndSplineSet
EndChar

StartChar: LATIN SMALL LETTER F
Encoding: 102 102 70
Width: 512
Flags: HW
LayerCount: 2
Fore
SplineSet
64 320 m 1
 64 384 l 1
 128 384 l 1
 128 576 l 1
 192 576 l 1
 192 640 l 1
 277.333333333 640 362.666666667 640 448 640 c 1
 448 576 l 1
 256 576 l 1
 256 384 l 1
 298.666666667 384 341.333333333 384 384 384 c 1
 384 320 l 1
 341.333333333 320 298.666666667 320 256 320 c 1
 256 0 l 1
 213.333333333 -0 170.666666667 0 128 0 c 1
 128 320 l 1
 64 320 l 1
EndSplineSet
EndChar

StartChar: LATIN SMALL LETTER G
Encoding: 103 103 71
Width: 512
Flags: HW
LayerCount: 2
Fore
SplineSet
0 -192 m 1
 0 -128 l 1
 320 -128 l 1
 320 -85.3333333333 320 -42.6666666667 320 0 c 1
 234.666666667 -0 149.333333333 0 64 0 c 1
 64 64 l 1
 0 64 l 1
 0 384 l 1
 64 384 l 1
 64 448 l 1
 192 448 320 448 448 448 c 1
 448 320 448 192 448 64 c 1
 384 64 l 1
 384 0 l 1
 448 0 l 1
 448 -42.6666666667 448 -85.3333333333 448 -128 c 1
 384 -128 l 1
 384 -192 l 1
 256 -192 128 -192 0 -192 c 1
128 64 m 1
 320 64 l 1
 320 384 l 1
 128 384 l 1
 128 64 l 1
EndSplineSet
EndChar

StartChar: LATIN SMALL LETTER H
Encoding: 104 104 72
Width: 512
Flags: HW
LayerCount: 2
Fore
SplineSet
448 0 m 1
 405.333333333 -0 362.666666667 0 320 0 c 1
 320 128 320 256 320 384 c 1
 128 384 l 1
 128 256 128 128 128 0 c 1
 85.3333333333 -0 42.6666666667 0 0 0 c 1
 -0 213.333333333 0 426.666666667 0 640 c 1
 42.6666666667 640 85.3333333333 640 128 640 c 1
 128 448 l 1
 213.333333333 448 298.666666667 448 384 448 c 1
 384 384 l 1
 448 384 l 1
 448 256 448 128 448 0 c 1
EndSplineSet
EndChar

StartChar: LATIN SMALL LETTER I
Encoding: 105 105 73
Width: 512
Flags: HW
LayerCount: 2
Fore
SplineSet
128 384 m 1
 128 448 l 1
 320 448 l 1
 320 320 320 192 320 64 c 1
 384 64 l 1
 384 0 l 1
 192 0 l 1
 192 128 192 256 192 384 c 1
 128 384 l 1
320 512 m 1
 277.333333333 512 234.666666667 512 192 512 c 1
 192 554.666666667 192 597.333333333 192 640 c 1
 234.666666667 640 277.333333333 640 320 640 c 1
 320 597.333333333 320 554.666666667 320 512 c 1
EndSplineSet
EndChar

StartChar: LATIN SMALL LETTER J
Encoding: 106 106 74
Width: 512
Flags: HW
LayerCount: 2
Fore
SplineSet
64 -192 m 1
 64 -128 l 1
 106.666666667 -128 149.333333333 -128 192 -128 c 1
 192 448 l 1
 234.666666667 448 277.333333333 448 320 448 c 1
 320 -128 l 1
 256 -128 l 1
 256 -192 l 1
 64 -192 l 1
320 512 m 1
 277.333333333 512 234.666666667 512 192 512 c 1
 192 554.666666667 192 597.333333333 192 640 c 1
 234.666666667 640 277.333333333 640 320 640 c 1
 320 597.333333333 320 554.666666667 320 512 c 1
EndSplineSet
EndChar

StartChar: LATIN SMALL LETTER K
Encoding: 107 107 75
Width: 512
Flags: HW
LayerCount: 2
Fore
SplineSet
448 0 m 1
 405.333333333 -0 362.666666667 0 320 0 c 1
 320 64 l 1
 256 64 l 1
 256 128 l 1
 192 128 l 1
 192 192 l 1
 128 192 l 1
 128 0 l 1
 85.3333333333 -0 42.6666666667 0 0 0 c 1
 -0 213.333333333 0 426.666666667 0 640 c 1
 42.6666666667 640 85.3333333333 640 128 640 c 1
 128 320 l 1
 192 320 l 1
 192 384 l 1
 256 384 l 1
 256 448 l 1
 298.666666667 448 341.333333333 448 384 448 c 1
 384 384 l 1
 320 384 l 1
 320 320 l 1
 256 320 l 1
 256 277.333333333 256 234.666666667 256 192 c 1
 320 192 l 1
 320 128 l 1
 384 128 l 1
 384 64 l 1
 448 64 l 1
 448 0 l 1
EndSplineSet
EndChar

StartChar: LATIN SMALL LETTER L
Encoding: 108 108 76
Width: 512
Flags: HW
LayerCount: 2
Fore
SplineSet
384 0 m 1
 192 0 l 1
 192 64 l 1
 128 64 l 1
 128 640 l 1
 170.666666667 640 213.333333333 640 256 640 c 1
 256 64 l 1
 298.666666667 64 341.333333333 64 384 64 c 1
 384 0 l 1
EndSplineSet
EndChar

StartChar: LATIN SMALL LETTER M
Encoding: 109 109 77
Width: 512
Flags: HW
LayerCount: 2
Fore
SplineSet
448 0 m 1
 405.333333333 -0 362.666666667 0 320 0 c 1
 320 128 320 256 320 384 c 1
 256 384 l 1
 256 298.666666667 256 213.333333333 256 128 c 1
 192 128 l 1
 192 213.333333333 192 298.666666667 192 384 c 1
 256 384 l 1
 256 448 l 1
 298.666666667 448 341.333333333 448 384 448 c 1
 384 384 l 1
 448 384 l 1
 448 256 448 128 448 0 c 1
128 0 m 1
 85.3333333333 -0 42.6666666667 0 0 0 c 1
 0 448 l 1
 192 448 l 1
 192 384 l 1
 128 384 l 1
 128 256 128 128 128 0 c 1
EndSplineSet
EndChar

StartChar: LATIN SMALL LETTER N
Encoding: 110 110 78
Width: 512
Flags: HW
LayerCount: 2
Fore
SplineSet
448 0 m 1
 405.333333333 -0 362.666666667 0 320 0 c 1
 320 128 320 256 320 384 c 1
 128 384 l 1
 128 256 128 128 128 0 c 1
 85.3333333333 -0 42.6666666667 0 0 0 c 1
 0 448 l 1
 128 448 256 448 384 448 c 1
 384 384 l 1
 448 384 l 1
 448 256 448 128 448 0 c 1
EndSplineSet
EndChar

StartChar: LATIN SMALL LETTER O
Encoding: 111 111 79
Width: 512
Flags: HW
LayerCount: 2
Fore
SplineSet
384 0 m 1
 64 0 l 1
 64 64 l 1
 0 64 l 1
 0 384 l 1
 64 384 l 1
 64 448 l 1
 384 448 l 1
 384 384 l 1
 448 384 l 1
 448 64 l 1
 384 64 l 1
 384 0 l 1
128 64 m 1
 320 64 l 1
 320 384 l 1
 128 384 l 1
 128 64 l 1
EndSplineSet
EndChar

StartChar: LATIN SMALL LETTER P
Encoding: 112 112 80
Width: 512
Flags: HW
LayerCount: 2
Fore
SplineSet
128 -192 m 1
 85.3333333333 -192 42.6666666667 -192 0 -192 c 1
 -0 21.3333333333 0 234.666666667 0 448 c 1
 128 448 256 448 384 448 c 1
 384 384 l 1
 448 384 l 1
 448 64 l 1
 384 64 l 1
 384 0 l 1
 298.666666667 -0 213.333333333 0 128 0 c 1
 128 -192 l 1
128 64 m 1
 320 64 l 1
 320 384 l 1
 128 384 l 1
 128 64 l 1
EndSplineSet
EndChar

StartChar: LATIN SMALL LETTER Q
Encoding: 113 113 81
Width: 512
Flags: HW
LayerCount: 2
Fore
SplineSet
448 -192 m 1
 405.333333333 -192 362.666666667 -192 320 -192 c 1
 320 0 l 1
 234.666666667 -0 149.333333333 0 64 0 c 1
 64 64 l 1
 0 64 l 1
 0 384 l 1
 64 384 l 1
 64 448 l 1
 192 448 320 448 448 448 c 1
 448 234.666666667 448 21.3333333333 448 -192 c 1
128 64 m 1
 320 64 l 1
 320 384 l 1
 128 384 l 1
 128 64 l 1
EndSplineSet
EndChar

StartChar: LATIN SMALL LETTER R
Encoding: 114 114 82
Width: 512
Flags: HW
LayerCount: 2
Fore
SplineSet
128 0 m 1
 85.3333333333 -0 42.6666666667 0 0 0 c 1
 -0 128 0 256 0 384 c 1
 64 384 l 1
 64 448 l 1
 192 448 320 448 448 448 c 1
 448 405.333333333 448 362.666666667 448 320 c 1
 405.333333333 320 362.666666667 320 320 320 c 1
 320 384 l 1
 128 384 l 1
 128 256 128 128 128 0 c 1
EndSplineSet
EndChar

StartChar: LATIN SMALL LETTER S
Encoding: 115 115 83
Width: 512
Flags: HW
LayerCount: 2
Fore
SplineSet
0 0 m 1
 0 64 l 1
 320 64 l 1
 320 106.666666667 320 149.333333333 320 192 c 1
 234.666666667 192 149.333333333 192 64 192 c 1
 64 256 l 1
 0 256 l 1
 -0 298.666666667 0 341.333333333 0 384 c 1
 64 384 l 1
 64 448 l 1
 192 448 320 448 448 448 c 1
 448 384 l 1
 128 384 l 1
 128 341.333333333 128 298.666666667 128 256 c 1
 213.333333333 256 298.666666667 256 384 256 c 1
 384 192 l 1
 448 192 l 1
 448 149.333333333 448 106.666666667 448 64 c 1
 384 64 l 1
 384 0 l 1
 256 -0 128 0 0 0 c 1
EndSplineSet
EndChar

StartChar: LATIN SMALL LETTER T
Encoding: 116 116 84
Width: 512
Flags: HW
LayerCount: 2
Fore
SplineSet
64 384 m 1
 64 448 l 1
 128 448 l 1
 128 640 l 1
 170.666666667 640 213.333333333 640 256 640 c 1
 256 448 l 1
 298.666666667 448 341.333333333 448 384 448 c 1
 384 384 l 1
 341.333333333 384 298.666666667 384 256 384 c 1
 256 64 l 1
 448 64 l 1
 448 0 l 1
 362.666666667 -0 277.333333333 0 192 0 c 1
 192 64 l 1
 128 64 l 1
 128 384 l 1
 64 384 l 1
EndSplineSet
EndChar

StartChar: LATIN SMALL LETTER U
Encoding: 117 117 85
Width: 512
Flags: HW
LayerCount: 2
Fore
SplineSet
448 0 m 1
 320 -0 192 0 64 0 c 1
 64 64 l 1
 0 64 l 1
 -0 192 0 320 0 448 c 1
 42.6666666667 448 85.3333333333 448 128 448 c 1
 128 320 128 192 128 64 c 1
 320 64 l 1
 320 192 320 320 320 448 c 1
 362.666666667 448 405.333333333 448 448 448 c 1
 448 0 l 1
EndSplineSet
EndChar

StartChar: LATIN SMALL LETTER V
Encoding: 118 118 86
Width: 512
Flags: HW
LayerCount: 2
Fore
SplineSet
256 64 m 1
 256 0 l 1
 192 0 l 1
 192 64 l 1
 128 64 l 1
 128 128 l 1
 64 128 l 1
 64 192 l 1
 0 192 l 1
 -0 277.333333333 0 362.666666667 0 448 c 1
 42.6666666667 448 85.3333333333 448 128 448 c 1
 128 362.666666667 128 277.333333333 128 192 c 1
 192 192 l 1
 192 128 l 1
 256 128 l 1
 256 192 l 1
 320 192 l 1
 320 277.333333333 320 362.666666667 320 448 c 1
 362.666666667 448 405.333333333 448 448 448 c 1
 448 362.666666667 448 277.333333333 448 192 c 1
 384 192 l 1
 384 128 l 1
 320 128 l 1
 320 64 l 1
 256 64 l 1
EndSplineSet
EndChar

StartChar: LATIN SMALL LETTER W
Encoding: 119 119 87
Width: 512
Flags: HW
LayerCount: 2
Fore
SplineSet
448 0 m 1
 256 0 l 1
 256 64 l 1
 320 64 l 1
 320 192 320 320 320 448 c 1
 362.666666667 448 405.333333333 448 448 448 c 1
 448 0 l 1
192 0 m 1
 149.333333333 -0 106.666666667 0 64 0 c 1
 64 64 l 1
 0 64 l 1
 -0 192 0 320 0 448 c 1
 42.6666666667 448 85.3333333333 448 128 448 c 1
 128 320 128 192 128 64 c 1
 192 64 l 1
 192 0 l 1
256 64 m 1
 192 64 l 1
 192 149.333333333 192 234.666666667 192 320 c 1
 256 320 l 1
 256 234.666666667 256 149.333333333 256 64 c 1
EndSplineSet
EndChar

StartChar: LATIN SMALL LETTER X
Encoding: 120 120 88
Width: 512
Flags: HW
LayerCount: 2
Fore
SplineSet
0 384 m 1
 0 448 l 1
 42.6666666667 448 85.3333333333 448 128 448 c 1
 128 384 l 1
 192 384 l 1
 192 320 l 1
 256 320 l 1
 256 384 l 1
 320 384 l 1
 320 448 l 1
 362.666666667 448 405.333333333 448 448 448 c 1
 448 384 l 1
 384 384 l 1
 384 320 l 1
 320 320 l 1
 320 277.333333333 320 234.666666667 320 192 c 1
 384 192 l 1
 384 128 l 1
 448 128 l 1
 448 85.3333333333 448 42.6666666667 448 0 c 1
 405.333333333 -0 362.666666667 0 320 0 c 1
 320 42.6666666667 320 85.3333333333 320 128 c 1
 256 128 l 1
 256 192 l 1
 192 192 l 1
 192 128 l 1
 128 128 l 1
 128 85.3333333333 128 42.6666666667 128 0 c 1
 85.3333333333 -0 42.6666666667 0 0 0 c 1
 -0 42.6666666667 0 85.3333333333 0 128 c 1
 64 128 l 1
 64 192 l 1
 128 192 l 1
 128 234.666666667 128 277.333333333 128 320 c 1
 64 320 l 1
 64 384 l 1
 0 384 l 1
EndSplineSet
EndChar

StartChar: LATIN SMALL LETTER Y
Encoding: 121 121 89
Width: 512
Flags: HW
LayerCount: 2
Fore
SplineSet
0 -192 m 1
 0 -128 l 1
 320 -128 l 1
 320 -85.3333333333 320 -42.6666666667 320 0 c 1
 234.666666667 -0 149.333333333 0 64 0 c 1
 64 64 l 1
 0 64 l 1
 -0 192 0 320 0 448 c 1
 42.6666666667 448 85.3333333333 448 128 448 c 1
 128 320 128 192 128 64 c 1
 320 64 l 1
 320 192 320 320 320 448 c 1
 362.666666667 448 405.333333333 448 448 448 c 1
 448 -128 l 1
 384 -128 l 1
 384 -192 l 1
 256 -192 128 -192 0 -192 c 1
EndSplineSet
EndChar

StartChar: LATIN SMALL LETTER Z
Encoding: 122 122 90
Width: 512
Flags: HW
LayerCount: 2
Fore
SplineSet
0 0 m 1
 0 64 l 1
 64 64 l 1
 64 128 l 1
 128 128 l 1
 128 192 l 1
 192 192 l 1
 192 256 l 1
 256 256 l 1
 256 320 l 1
 320 320 l 1
 320 384 l 1
 0 384 l 1
 0 448 l 1
 448 448 l 1
 448 405.333333333 448 362.666666667 448 320 c 1
 384 320 l 1
 384 256 l 1
 320 256 l 1
 320 192 l 1
 256 192 l 1
 256 128 l 1
 192 128 l 1
 192 64 l 1
 277.333333333 64 362.666666667 64 448 64 c 1
 448 0 l 1
 0 0 l 1
EndSplineSet
EndChar

StartChar: LEFT CURLY BRACKET
Encoding: 123 123 91
Width: 512
Flags: HW
LayerCount: 2
Fore
SplineSet
448 -192 m 1
 256 -192 l 1
 256 -128 l 1
 192 -128 l 1
 192 192 l 1
 149.333333333 192 106.666666667 192 64 192 c 1
 64 234.666666667 64 277.333333333 64 320 c 1
 106.666666667 320 149.333333333 320 192 320 c 1
 192 640 l 1
 256 640 l 1
 256 704 l 1
 448 704 l 1
 448 640 l 1
 405.333333333 640 362.666666667 640 320 640 c 1
 320 320 l 1
 256 320 l 1
 256 277.333333333 256 234.666666667 256 192 c 1
 320 192 l 1
 320 -128 l 1
 362.666666667 -128 405.333333333 -128 448 -128 c 1
 448 -192 l 1
EndSplineSet
EndChar

StartChar: VERTICAL LINE
Encoding: 124 124 92
Width: 512
Flags: HW
LayerCount: 2
Fore
SplineSet
320 -128 m 1
 277.333333333 -128 234.666666667 -128 192 -128 c 1
 192 128 192 384 192 640 c 1
 234.666666667 640 277.333333333 640 320 640 c 1
 320 384 320 128 320 -128 c 1
EndSplineSet
EndChar

StartChar: RIGHT CURLY BRACKET
Encoding: 125 125 93
Width: 512
Flags: HW
LayerCount: 2
Fore
SplineSet
64 -192 m 1
 64 -128 l 1
 106.666666667 -128 149.333333333 -128 192 -128 c 1
 192 192 l 1
 256 192 l 1
 256 234.666666667 256 277.333333333 256 320 c 1
 192 320 l 1
 192 640 l 1
 149.333333333 640 106.666666667 640 64 640 c 1
 64 704 l 1
 256 704 l 1
 256 640 l 1
 320 640 l 1
 320 320 l 1
 362.666666667 320 405.333333333 320 448 320 c 1
 448 277.333333333 448 234.666666667 448 192 c 1
 405.333333333 192 362.666666667 192 320 192 c 1
 320 -128 l 1
 256 -128 l 1
 256 -192 l 1
 64 -192 l 1
EndSplineSet
EndChar

StartChar: TILDE
Encoding: 126 126 94
Width: 512
Flags: HW
LayerCount: 2
Fore
SplineSet
384 512 m 1
 341.333333333 512 298.666666667 512 256 512 c 1
 256 576 l 1
 213.333333333 576 170.666666667 576 128 576 c 1
 128 512 l 1
 64 512 l 1
 64 554.666666667 64 597.333333333 64 640 c 1
 128 640 l 1
 128 704 l 1
 170.666666667 704 213.333333333 704 256 704 c 1
 256 640 l 1
 298.666666667 640 341.333333333 640 384 640 c 1
 384 704 l 1
 448 704 l 1
 448 661.333333333 448 618.666666667 448 576 c 1
 384 576 l 1
 384 512 l 1
EndSplineSet
EndChar

StartChar: INVERTED EXCLAMATION MARK
Encoding: 161 161 97
Width: 512
Flags: HW
LayerCount: 2
Fore
SplineSet
320 0 m 1
 277.333333333 -0 234.666666667 0 192 0 c 1
 192 448 l 1
 234.666666667 448 277.333333333 448 320 448 c 1
 320 0 l 1
320 512 m 1
 277.333333333 512 234.666666667 512 192 512 c 1
 192 554.666666667 192 597.333333333 192 640 c 1
 234.666666667 640 277.333333333 640 320 640 c 1
 320 597.333333333 320 554.666666667 320 512 c 1
EndSplineSet
EndChar

StartChar: CENT SIGN
Encoding: 162 162 98
Width: 512
Flags: HW
LayerCount: 2
Fore
SplineSet
448 0 m 1
 405.333333333 -0 362.666666667 0 320 0 c 1
 320 -64 l 1
 256 -64 l 1
 256 0 l 1
 64 0 l 1
 64 64 l 1
 0 64 l 1
 0 384 l 1
 64 384 l 1
 64 448 l 1
 256 448 l 1
 256 512 l 1
 320 512 l 1
 320 448 l 1
 362.666666667 448 405.333333333 448 448 448 c 1
 448 384 l 1
 405.333333333 384 362.666666667 384 320 384 c 1
 320 64 l 1
 362.666666667 64 405.333333333 64 448 64 c 1
 448 0 l 1
128 64 m 1
 170.666666667 64 213.333333333 64 256 64 c 1
 256 384 l 1
 213.333333333 384 170.666666667 384 128 384 c 1
 128 64 l 1
EndSplineSet
EndChar

StartChar: POUND SIGN
Encoding: 163 163 99
Width: 512
Flags: HW
LayerCount: 2
Fore
SplineSet
0 256 m 1
 0 320 l 1
 64 320 l 1
 64 405.333333333 64 490.666666667 64 576 c 1
 128 576 l 1
 128 640 l 1
 320 640 l 1
 320 576 l 1
 384 576 l 1
 384 512 l 1
 341.333333333 512 298.666666667 512 256 512 c 1
 256 576 l 1
 192 576 l 1
 192 490.666666667 192 405.333333333 192 320 c 1
 234.666666667 320 277.333333333 320 320 320 c 1
 320 256 l 1
 277.333333333 256 234.666666667 256 192 256 c 1
 192 213.333333333 192 170.666666667 192 128 c 1
 128 128 l 1
 128 64 l 1
 448 64 l 1
 448 0 l 1
 0 0 l 1
 -0 42.6666666667 0 85.3333333333 0 128 c 1
 64 128 l 1
 64 170.666666667 64 213.333333333 64 256 c 1
 0 256 l 1
EndSplineSet
EndChar

StartChar: CURRENCY SIGN
Encoding: 164 164 100
Width: 512
Flags: HW
LayerCount: 2
Fore
SplineSet
64 0 m 1
 64 64 l 1
 128 64 l 1
 128 128 l 1
 64 128 l 1
 64 320 l 1
 128 320 l 1
 128 384 l 1
 64 384 l 1
 64 448 l 1
 106.666666667 448 149.333333333 448 192 448 c 1
 192 384 l 1
 234.666666667 384 277.333333333 384 320 384 c 1
 320 448 l 1
 362.666666667 448 405.333333333 448 448 448 c 1
 448 384 l 1
 384 384 l 1
 384 320 l 1
 448 320 l 1
 448 128 l 1
 384 128 l 1
 384 64 l 1
 448 64 l 1
 448 0 l 1
 405.333333333 -0 362.666666667 0 320 0 c 1
 320 64 l 1
 277.333333333 64 234.666666667 64 192 64 c 1
 192 0 l 1
 149.333333333 -0 106.666666667 0 64 0 c 1
192 128 m 1
 234.666666667 128 277.333333333 128 320 128 c 1
 320 320 l 1
 277.333333333 320 234.666666667 320 192 320 c 1
 192 128 l 1
EndSplineSet
EndChar

StartChar: YEN SIGN
Encoding: 165 165 101
Width: 512
Flags: HW
LayerCount: 2
Fore
SplineSet
128 128 m 1
 128 192 l 1
 192 192 l 1
 192 256 l 1
 128 256 l 1
 128 320 l 1
 192 320 l 1
 192 384 l 1
 128 384 l 1
 128 448 l 1
 64 448 l 1
 64 512 l 1
 0 512 l 1
 -0 554.666666667 0 597.333333333 0 640 c 1
 42.6666666667 640 85.3333333333 640 128 640 c 1
 128 597.333333333 128 554.666666667 128 512 c 1
 192 512 l 1
 192 448 l 1
 234.666666667 448 277.333333333 448 320 448 c 1
 320 512 l 1
 384 512 l 1
 384 554.666666667 384 597.333333333 384 640 c 1
 426.666666667 640 469.333333333 640 512 640 c 1
 512 597.333333333 512 554.666666667 512 512 c 1
 448 512 l 1
 448 448 l 1
 384 448 l 1
 384 384 l 1
 320 384 l 1
 320 320 l 1
 384 320 l 1
 384 256 l 1
 320 256 l 1
 320 192 l 1
 384 192 l 1
 384 128 l 1
 320 128 l 1
 320 85.3333333333 320 42.6666666667 320 0 c 1
 277.333333333 -0 234.666666667 0 192 0 c 1
 192 42.6666666667 192 85.3333333333 192 128 c 1
 128 128 l 1
EndSplineSet
EndChar

StartChar: BROKEN BAR
Encoding: 166 166 102
Width: 512
Flags: HW
LayerCount: 2
Fore
SplineSet
320 -128 m 1
 277.333333333 -128 234.666666667 -128 192 -128 c 1
 192 192 l 1
 234.666666667 192 277.333333333 192 320 192 c 1
 320 -128 l 1
320 320 m 1
 277.333333333 320 234.666666667 320 192 320 c 1
 192 640 l 1
 234.666666667 640 277.333333333 640 320 640 c 1
 320 320 l 1
EndSplineSet
EndChar

StartChar: SECTION SIGN
Encoding: 167 167 103
Width: 512
Flags: HW
LayerCount: 2
Fore
SplineSet
64 -128 m 1
 64 -64 l 1
 106.666666667 -64 149.333333333 -64 192 -64 c 1
 192 -128 l 1
 234.666666667 -128 277.333333333 -128 320 -128 c 1
 320 -85.3333333333 320 -42.6666666667 320 0 c 1
 256 0 l 1
 256 64 l 1
 213.333333333 64 170.666666667 64 128 64 c 1
 128 128 l 1
 64 128 l 1
 64 213.333333333 64 298.666666667 64 384 c 1
 128 384 l 1
 128 426.666666667 128 469.333333333 128 512 c 1
 64 512 l 1
 64 554.666666667 64 597.333333333 64 640 c 1
 128 640 l 1
 128 704 l 1
 213.333333333 704 298.666666667 704 384 704 c 1
 384 640 l 1
 448 640 l 1
 448 576 l 1
 405.333333333 576 362.666666667 576 320 576 c 1
 320 640 l 1
 277.333333333 640 234.666666667 640 192 640 c 1
 192 597.333333333 192 554.666666667 192 512 c 1
 256 512 l 1
 256 448 l 1
 298.666666667 448 341.333333333 448 384 448 c 1
 384 384 l 1
 448 384 l 1
 448 298.666666667 448 213.333333333 448 128 c 1
 384 128 l 1
 384 85.3333333333 384 42.6666666667 384 0 c 1
 448 0 l 1
 448 -42.6666666667 448 -85.3333333333 448 -128 c 1
 384 -128 l 1
 384 -192 l 1
 298.666666667 -192 213.333333333 -192 128 -192 c 1
 128 -128 l 1
 64 -128 l 1
192 128 m 1
 234.666666667 128 277.333333333 128 320 128 c 1
 320 213.333333333 320 298.666666667 320 384 c 1
 277.333333333 384 234.666666667 384 192 384 c 1
 192 298.666666667 192 213.333333333 192 128 c 1
EndSplineSet
EndChar

StartChar: DIAERESIS
Encoding: 168 168 104
Width: 512
Flags: HW
LayerCount: 2
Fore
SplineSet
384 512 m 1
 341.333333333 512 298.666666667 512 256 512 c 1
 256 554.666666667 256 597.333333333 256 640 c 1
 298.666666667 640 341.333333333 640 384 640 c 1
 384 597.333333333 384 554.666666667 384 512 c 1
192 512 m 1
 149.333333333 512 106.666666667 512 64 512 c 1
 64 554.666666667 64 597.333333333 64 640 c 1
 106.666666667 640 149.333333333 640 192 640 c 1
 192 597.333333333 192 554.666666667 192 512 c 1
EndSplineSet
EndChar

StartChar: COPYRIGHT SIGN
Encoding: 169 169 105
Width: 512
Flags: HW
LayerCount: 2
Fore
SplineSet
384 0 m 1
 64 0 l 1
 64 64 l 1
 384 64 l 1
 384 0 l 1
384 64 m 1
 384 512 l 1
 448 512 l 1
 448 64 l 1
 384 64 l 1
64 64 m 1
 0 64 l 1
 0 512 l 1
 64 512 l 1
 64 64 l 1
320 128 m 1
 277.333333333 128 234.666666667 128 192 128 c 1
 192 192 l 1
 234.666666667 192 277.333333333 192 320 192 c 1
 320 128 l 1
192 192 m 1
 128 192 l 1
 128 384 l 1
 192 384 l 1
 192 192 l 1
320 384 m 1
 277.333333333 384 234.666666667 384 192 384 c 1
 192 448 l 1
 234.666666667 448 277.333333333 448 320 448 c 1
 320 384 l 1
384 512 m 1
 64 512 l 1
 64 576 l 1
 384 576 l 1
 384 512 l 1
EndSplineSet
EndChar

StartChar: FEMININE ORDINAL INDICATOR
Encoding: 170 170 106
Width: 512
Flags: HW
LayerCount: 2
Fore
SplineSet
64 256 m 1
 64 320 l 1
 384 320 l 1
 384 256 l 1
 64 256 l 1
64 448 m 1
 64 512 l 1
 128 512 l 1
 128 448 l 1
 170.666666667 448 213.333333333 448 256 448 c 1
 256 512 l 1
 213.333333333 512 170.666666667 512 128 512 c 1
 128 576 l 1
 170.666666667 576 213.333333333 576 256 576 c 1
 256 640 l 1
 213.333333333 640 170.666666667 640 128 640 c 1
 128 704 l 1
 320 704 l 1
 320 640 l 1
 384 640 l 1
 384 554.666666667 384 469.333333333 384 384 c 1
 298.666666667 384 213.333333333 384 128 384 c 1
 128 448 l 1
 64 448 l 1
EndSplineSet
EndChar

StartChar: LEFT-POINTING DOUBLE ANGLE QUOTATION MARK
Encoding: 171 171 107
Width: 512
Flags: HW
LayerCount: 2
Fore
SplineSet
256 192 m 1
 256 256 l 1
 320 256 l 1
 320 320 l 1
 384 320 l 1
 384 384 l 1
 426.666666667 384 469.333333333 384 512 384 c 1
 512 320 l 1
 448 320 l 1
 448 256 l 1
 384 256 l 1
 384 192 l 1
 448 192 l 1
 448 128 l 1
 512 128 l 1
 512 64 l 1
 469.333333333 64 426.666666667 64 384 64 c 1
 384 128 l 1
 320 128 l 1
 320 192 l 1
 256 192 l 1
0 192 m 1
 0 256 l 1
 64 256 l 1
 64 320 l 1
 128 320 l 1
 128 384 l 1
 170.666666667 384 213.333333333 384 256 384 c 1
 256 320 l 1
 192 320 l 1
 192 256 l 1
 128 256 l 1
 128 192 l 1
 192 192 l 1
 192 128 l 1
 256 128 l 1
 256 64 l 1
 213.333333333 64 170.666666667 64 128 64 c 1
 128 128 l 1
 64 128 l 1
 64 192 l 1
 0 192 l 1
EndSplineSet
EndChar

StartChar: NOT SIGN
Encoding: 172 172 108
Width: 512
Flags: HW
LayerCount: 2
Fore
SplineSet
0 320 m 1
 0 384 l 1
 448 384 l 1
 448 298.666666667 448 213.333333333 448 128 c 1
 405.333333333 128 362.666666667 128 320 128 c 1
 320 320 l 1
 0 320 l 1
EndSplineSet
EndChar

StartChar: SOFT HYPHEN
Encoding: 173 173 109
Width: 512
Flags: HW
LayerCount: 2
Fore
SplineSet
128 192 m 1
 128 256 l 1
 213.333333333 256 298.666666667 256 384 256 c 1
 384 192 l 1
 298.666666667 192 213.333333333 192 128 192 c 1
EndSplineSet
EndChar

StartChar: REGISTERED SIGN
Encoding: 174 174 110
Width: 512
Flags: HW
LayerCount: 2
Fore
SplineSet
384 0 m 1
 64 0 l 1
 64 64 l 1
 384 64 l 1
 384 0 l 1
384 64 m 1
 384 512 l 1
 448 512 l 1
 448 64 l 1
 384 64 l 1
64 64 m 1
 0 64 l 1
 0 512 l 1
 64 512 l 1
 64 64 l 1
320 256 m 1
 320 213.333333333 320 170.666666667 320 128 c 1
 256 128 l 1
 256 170.666666667 256 213.333333333 256 256 c 1
 320 256 l 1
192 256 m 1
 192 213.333333333 192 170.666666667 192 128 c 1
 128 128 l 1
 128 448 l 1
 320 448 l 1
 320 405.333333333 320 362.666666667 320 320 c 1
 256 320 l 1
 256 256 l 1
 192 256 l 1
256 320 m 1
 256 384 l 1
 192 384 l 1
 192 320 l 1
 256 320 l 1
384 512 m 1
 64 512 l 1
 64 576 l 1
 384 576 l 1
 384 512 l 1
EndSplineSet
EndChar

StartChar: MACRON
Encoding: 175 175 111
Width: 512
Flags: HW
LayerCount: 2
Fore
SplineSet
64 640 m 1
 64 704 l 1
 384 704 l 1
 384 640 l 1
 64 640 l 1
EndSplineSet
EndChar

StartChar: DEGREE SIGN
Encoding: 176 176 112
Width: 512
Flags: HW
LayerCount: 2
Fore
SplineSet
320 448 m 1
 128 448 l 1
 128 512 l 1
 64 512 l 1
 64 554.666666667 64 597.333333333 64 640 c 1
 128 640 l 1
 128 704 l 1
 320 704 l 1
 320 640 l 1
 384 640 l 1
 384 597.333333333 384 554.666666667 384 512 c 1
 320 512 l 1
 320 448 l 1
256 512 m 1
 256 554.666666667 256 597.333333333 256 640 c 1
 192 640 l 1
 192 597.333333333 192 554.666666667 192 512 c 1
 256 512 l 1
EndSplineSet
EndChar

StartChar: PLUS-MINUS SIGN
Encoding: 177 177 113
Width: 512
Flags: HW
LayerCount: 2
Fore
SplineSet
64 0 m 1
 64 64 l 1
 192 64 320 64 448 64 c 1
 448 0 l 1
 320 -0 192 0 64 0 c 1
64 256 m 1
 64 320 l 1
 106.666666667 320 149.333333333 320 192 320 c 1
 192 362.666666667 192 405.333333333 192 448 c 1
 234.666666667 448 277.333333333 448 320 448 c 1
 320 405.333333333 320 362.666666667 320 320 c 1
 362.666666667 320 405.333333333 320 448 320 c 1
 448 256 l 1
 405.333333333 256 362.666666667 256 320 256 c 1
 320 213.333333333 320 170.666666667 320 128 c 1
 277.333333333 128 234.666666667 128 192 128 c 1
 192 170.666666667 192 213.333333333 192 256 c 1
 149.333333333 256 106.666666667 256 64 256 c 1
EndSplineSet
EndChar

StartChar: SUPERSCRIPT TWO
Encoding: 178 178 114
Width: 512
Flags: HW
LayerCount: 2
Fore
SplineSet
64 576 m 1
 64 640 l 1
 128 640 l 1
 128 576 l 1
 64 576 l 1
384 320 m 1
 64 320 l 1
 64 362.666666667 64 405.333333333 64 448 c 1
 128 448 l 1
 128 512 l 1
 170.666666667 512 213.333333333 512 256 512 c 1
 256 554.666666667 256 597.333333333 256 640 c 1
 213.333333333 640 170.666666667 640 128 640 c 1
 128 704 l 1
 320 704 l 1
 320 640 l 1
 384 640 l 1
 384 597.333333333 384 554.666666667 384 512 c 1
 320 512 l 1
 320 448 l 1
 277.333333333 448 234.666666667 448 192 448 c 1
 192 384 l 1
 384 384 l 1
 384 320 l 1
EndSplineSet
EndChar

StartChar: SUPERSCRIPT THREE
Encoding: 179 179 115
Width: 512
Flags: HW
LayerCount: 2
Fore
SplineSet
128 384 m 1
 128 448 l 1
 192 448 l 1
 192 384 l 1
 234.666666667 384 277.333333333 384 320 384 c 1
 320 426.666666667 320 469.333333333 320 512 c 1
 256 512 l 1
 256 576 l 1
 320 576 l 1
 320 640 l 1
 277.333333333 640 234.666666667 640 192 640 c 1
 192 576 l 1
 128 576 l 1
 128 640 l 1
 192 640 l 1
 192 704 l 1
 384 704 l 1
 384 640 l 1
 448 640 l 1
 448 576 l 1
 384 576 l 1
 384 512 l 1
 448 512 l 1
 448 469.333333333 448 426.666666667 448 384 c 1
 384 384 l 1
 384 320 l 1
 192 320 l 1
 192 384 l 1
 128 384 l 1
EndSplineSet
EndChar

StartChar: ACUTE ACCENT
Encoding: 180 180 116
Width: 512
Flags: HW
LayerCount: 2
Fore
SplineSet
128 512 m 1
 128 576 l 1
 192 576 l 1
 192 640 l 1
 256 640 l 1
 256 704 l 1
 298.666666667 704 341.333333333 704 384 704 c 1
 384 640 l 1
 320 640 l 1
 320 576 l 1
 256 576 l 1
 256 512 l 1
 213.333333333 512 170.666666667 512 128 512 c 1
EndSplineSet
EndChar

StartChar: MICRO SIGN
Encoding: 181 181 117
Width: 512
Flags: HW
LayerCount: 2
Fore
SplineSet
128 -192 m 1
 85.3333333333 -192 42.6666666667 -192 0 -192 c 1
 -0 21.3333333333 0 234.666666667 0 448 c 1
 42.6666666667 448 85.3333333333 448 128 448 c 1
 128 320 128 192 128 64 c 1
 170.666666667 64 213.333333333 64 256 64 c 1
 256 0 l 1
 213.333333333 -0 170.666666667 0 128 0 c 1
 128 -192 l 1
448 0 m 1
 405.333333333 -0 362.666666667 0 320 0 c 1
 320 64 l 1
 256 64 l 1
 256 192 256 320 256 448 c 1
 298.666666667 448 341.333333333 448 384 448 c 1
 384 320 384 192 384 64 c 1
 448 64 l 1
 448 0 l 1
EndSplineSet
EndChar

StartChar: PILCROW SIGN
Encoding: 182 182 118
Width: 512
Flags: HW
LayerCount: 2
Fore
SplineSet
448 0 m 1
 405.333333333 -0 362.666666667 0 320 0 c 1
 320 576 l 1
 256 576 l 1
 256 0 l 1
 192 0 l 1
 192 320 l 1
 149.333333333 320 106.666666667 320 64 320 c 1
 64 384 l 1
 0 384 l 1
 0 576 l 1
 64 576 l 1
 64 640 l 1
 192 640 320 640 448 640 c 1
 448 426.666666667 448 213.333333333 448 0 c 1
192 384 m 1
 192 576 l 1
 128 576 l 1
 128 384 l 1
 192 384 l 1
EndSplineSet
EndChar

StartChar: MIDDLE DOT
Encoding: 183 183 119
Width: 512
Flags: HW
LayerCount: 2
Fore
SplineSet
320 192 m 1
 277.333333333 192 234.666666667 192 192 192 c 1
 192 234.666666667 192 277.333333333 192 320 c 1
 234.666666667 320 277.333333333 320 320 320 c 1
 320 277.333333333 320 234.666666667 320 192 c 1
EndSplineSet
EndChar

StartChar: CEDILLA
Encoding: 184 184 120
Width: 512
Flags: HW
LayerCount: 2
Fore
SplineSet
128 -192 m 1
 128 -128 l 1
 192 -128 l 1
 192 -85.3333333333 192 -42.6666666667 192 0 c 1
 234.666666667 -0 277.333333333 0 320 0 c 1
 320 -42.6666666667 320 -85.3333333333 320 -128 c 1
 256 -128 l 1
 256 -192 l 1
 213.333333333 -192 170.666666667 -192 128 -192 c 1
EndSplineSet
EndChar

StartChar: SUPERSCRIPT ONE
Encoding: 185 185 121
Width: 512
Flags: HW
LayerCount: 2
Fore
SplineSet
128 320 m 1
 128 384 l 1
 192 384 l 1
 192 576 l 1
 128 576 l 1
 128 640 l 1
 192 640 l 1
 192 704 l 1
 234.666666667 704 277.333333333 704 320 704 c 1
 320 384 l 1
 384 384 l 1
 384 320 l 1
 298.666666667 320 213.333333333 320 128 320 c 1
EndSplineSet
EndChar

StartChar: MASCULINE ORDINAL INDICATOR
Encoding: 186 186 122
Width: 512
Flags: HW
LayerCount: 2
Fore
SplineSet
64 256 m 1
 64 320 l 1
 384 320 l 1
 384 256 l 1
 64 256 l 1
320 448 m 1
 128 448 l 1
 128 512 l 1
 64 512 l 1
 64 554.666666667 64 597.333333333 64 640 c 1
 128 640 l 1
 128 704 l 1
 320 704 l 1
 320 640 l 1
 384 640 l 1
 384 597.333333333 384 554.666666667 384 512 c 1
 320 512 l 1
 320 448 l 1
256 512 m 1
 256 554.666666667 256 597.333333333 256 640 c 1
 192 640 l 1
 192 597.333333333 192 554.666666667 192 512 c 1
 256 512 l 1
EndSplineSet
EndChar

StartChar: RIGHT-POINTING DOUBLE ANGLE QUOTATION MARK
Encoding: 187 187 123
Width: 512
Flags: HW
LayerCount: 2
Fore
SplineSet
256 64 m 1
 256 128 l 1
 320 128 l 1
 320 192 l 1
 384 192 l 1
 384 256 l 1
 320 256 l 1
 320 320 l 1
 256 320 l 1
 256 384 l 1
 298.666666667 384 341.333333333 384 384 384 c 1
 384 320 l 1
 448 320 l 1
 448 256 l 1
 512 256 l 1
 512 192 l 1
 448 192 l 1
 448 128 l 1
 384 128 l 1
 384 64 l 1
 341.333333333 64 298.666666667 64 256 64 c 1
0 64 m 1
 0 128 l 1
 64 128 l 1
 64 192 l 1
 128 192 l 1
 128 256 l 1
 64 256 l 1
 64 320 l 1
 0 320 l 1
 0 384 l 1
 42.6666666667 384 85.3333333333 384 128 384 c 1
 128 320 l 1
 192 320 l 1
 192 256 l 1
 256 256 l 1
 256 192 l 1
 192 192 l 1
 192 128 l 1
 128 128 l 1
 128 64 l 1
 85.3333333333 64 42.6666666667 64 0 64 c 1
EndSplineSet
EndChar

StartChar: VULGAR FRACTION ONE QUARTER
Encoding: 188 188 124
Width: 512
Flags: HW
LayerCount: 2
Fore
SplineSet
0 320 m 1
 0 384 l 1
 64 384 l 1
 64 576 l 1
 0 576 l 1
 0 640 l 1
 64 640 l 1
 64 704 l 1
 128 704 l 1
 128 384 l 1
 192 384 l 1
 192 320 l 1
 256 320 l 1
 256 384 l 1
 320 384 l 1
 320 448 l 1
 384 448 l 1
 384 512 l 1
 448 512 l 1
 448 469.333333333 448 426.666666667 448 384 c 1
 384 384 l 1
 384 320 l 1
 320 320 l 1
 320 256 l 1
 256 256 l 1
 256 170.666666667 256 85.3333333333 256 0 c 1
 320 0 l 1
 320 42.6666666667 320 85.3333333333 320 128 c 1
 384 128 l 1
 384 85.3333333333 384 42.6666666667 384 0 c 1
 448 0 l 1
 448 -64 l 1
 384 -64 l 1
 384 -106.666666667 384 -149.333333333 384 -192 c 1
 320 -192 l 1
 320 -149.333333333 320 -106.666666667 320 -64 c 1
 277.333333333 -64 234.666666667 -64 192 -64 c 1
 192 128 l 1
 128 128 l 1
 128 64 l 1
 64 64 l 1
 64 0 l 1
 0 0 l 1
 -0 42.6666666667 0 85.3333333333 0 128 c 1
 64 128 l 1
 64 192 l 1
 128 192 l 1
 128 256 l 1
 192 256 l 1
 192 320 l 1
 0 320 l 1
EndSplineSet
EndChar

StartChar: VULGAR FRACTION ONE HALF
Encoding: 189 189 125
Width: 512
Flags: HW
LayerCount: 2
Fore
SplineSet
0 320 m 1
 0 384 l 1
 64 384 l 1
 64 576 l 1
 0 576 l 1
 0 640 l 1
 64 640 l 1
 64 704 l 1
 128 704 l 1
 128 384 l 1
 192 384 l 1
 192 320 l 1
 256 320 l 1
 256 384 l 1
 320 384 l 1
 320 448 l 1
 384 448 l 1
 384 512 l 1
 448 512 l 1
 448 469.333333333 448 426.666666667 448 384 c 1
 384 384 l 1
 384 320 l 1
 320 320 l 1
 320 256 l 1
 256 256 l 1
 256 192 l 1
 298.666666667 192 341.333333333 192 384 192 c 1
 384 128 l 1
 448 128 l 1
 448 85.3333333333 448 42.6666666667 448 0 c 1
 384 0 l 1
 384 -64 l 1
 341.333333333 -64 298.666666667 -64 256 -64 c 1
 256 -128 l 1
 448 -128 l 1
 448 -192 l 1
 362.666666667 -192 277.333333333 -192 192 -192 c 1
 192 -149.333333333 192 -106.666666667 192 -64 c 1
 256 -64 l 1
 256 0 l 1
 298.666666667 -0 341.333333333 0 384 0 c 1
 384 42.6666666667 384 85.3333333333 384 128 c 1
 341.333333333 128 298.666666667 128 256 128 c 1
 256 64 l 1
 192 64 l 1
 192 128 l 1
 256 128 l 1
 256 192 l 1
 192 192 l 1
 192 128 l 1
 128 128 l 1
 128 64 l 1
 64 64 l 1
 64 0 l 1
 0 0 l 1
 -0 42.6666666667 0 85.3333333333 0 128 c 1
 64 128 l 1
 64 192 l 1
 128 192 l 1
 128 256 l 1
 192 256 l 1
 192 320 l 1
 0 320 l 1
EndSplineSet
EndChar

StartChar: VULGAR FRACTION THREE QUARTERS
Encoding: 190 190 126
Width: 512
Flags: HW
LayerCount: 2
Fore
SplineSet
0 384 m 1
 0 448 l 1
 64 448 l 1
 64 384 l 1
 106.666666667 384 149.333333333 384 192 384 c 1
 192 320 l 1
 256 320 l 1
 256 384 l 1
 320 384 l 1
 320 448 l 1
 384 448 l 1
 384 512 l 1
 448 512 l 1
 448 469.333333333 448 426.666666667 448 384 c 1
 384 384 l 1
 384 320 l 1
 320 320 l 1
 320 256 l 1
 256 256 l 1
 256 170.666666667 256 85.3333333333 256 0 c 1
 320 0 l 1
 320 42.6666666667 320 85.3333333333 320 128 c 1
 384 128 l 1
 384 85.3333333333 384 42.6666666667 384 0 c 1
 448 0 l 1
 448 -64 l 1
 384 -64 l 1
 384 -106.666666667 384 -149.333333333 384 -192 c 1
 320 -192 l 1
 320 -149.333333333 320 -106.666666667 320 -64 c 1
 277.333333333 -64 234.666666667 -64 192 -64 c 1
 192 128 l 1
 128 128 l 1
 128 64 l 1
 64 64 l 1
 64 0 l 1
 0 0 l 1
 -0 42.6666666667 0 85.3333333333 0 128 c 1
 64 128 l 1
 64 192 l 1
 128 192 l 1
 128 256 l 1
 192 256 l 1
 192 320 l 1
 149.333333333 320 106.666666667 320 64 320 c 1
 64 384 l 1
 0 384 l 1
128 512 m 1
 128 576 l 1
 192 576 l 1
 192 512 l 1
 256 512 l 1
 256 469.333333333 256 426.666666667 256 384 c 1
 192 384 l 1
 192 426.666666667 192 469.333333333 192 512 c 1
 128 512 l 1
0 576 m 1
 0 640 l 1
 64 640 l 1
 64 576 l 1
 0 576 l 1
192 576 m 1
 192 640 l 1
 256 640 l 1
 256 576 l 1
 192 576 l 1
192 640 m 1
 149.333333333 640 106.666666667 640 64 640 c 1
 64 704 l 1
 106.666666667 704 149.333333333 704 192 704 c 1
 192 640 l 1
EndSplineSet
EndChar

StartChar: INVERTED QUESTION MARK
Encoding: 191 191 127
Width: 512
Flags: HW
LayerCount: 2
Fore
SplineSet
384 0 m 1
 64 0 l 1
 64 64 l 1
 0 64 l 1
 -0 106.666666667 0 149.333333333 0 192 c 1
 64 192 l 1
 64 256 l 1
 128 256 l 1
 128 320 l 1
 192 320 l 1
 192 362.666666667 192 405.333333333 192 448 c 1
 234.666666667 448 277.333333333 448 320 448 c 1
 320 405.333333333 320 362.666666667 320 320 c 1
 256 320 l 1
 256 256 l 1
 192 256 l 1
 192 192 l 1
 128 192 l 1
 128 149.333333333 128 106.666666667 128 64 c 1
 320 64 l 1
 320 128 l 1
 362.666666667 128 405.333333333 128 448 128 c 1
 448 64 l 1
 384 64 l 1
 384 0 l 1
320 512 m 1
 277.333333333 512 234.666666667 512 192 512 c 1
 192 554.666666667 192 597.333333333 192 640 c 1
 234.666666667 640 277.333333333 640 320 640 c 1
 320 597.333333333 320 554.666666667 320 512 c 1
EndSplineSet
EndChar

StartChar: LATIN CAPITAL LETTER A WITH GRAVE
Encoding: 192 192 128
Width: 512
Flags: HW
LayerCount: 2
Fore
SplineSet
128 704 m 1
 128 768 l 1
 170.666666667 768 213.333333333 768 256 768 c 1
 256 704 l 1
 320 704 l 1
 320 640 l 1
 277.333333333 640 234.666666667 640 192 640 c 1
 192 704 l 1
 128 704 l 1
448 0 m 1
 405.333333333 -0 362.666666667 0 320 0 c 1
 320 85.3333333333 320 170.666666667 320 256 c 1
 128 256 l 1
 128 170.666666667 128 85.3333333333 128 0 c 1
 85.3333333333 -0 42.6666666667 0 0 0 c 1
 -0 170.666666667 0 341.333333333 0 512 c 1
 64 512 l 1
 64 576 l 1
 384 576 l 1
 384 512 l 1
 448 512 l 1
 448 341.333333333 448 170.666666667 448 0 c 1
128 320 m 1
 320 320 l 1
 320 512 l 1
 128 512 l 1
 128 320 l 1
EndSplineSet
EndChar

StartChar: LATIN CAPITAL LETTER A WITH ACUTE
Encoding: 193 193 129
Width: 512
Flags: HW
LayerCount: 2
Fore
SplineSet
128 640 m 1
 128 704 l 1
 192 704 l 1
 192 768 l 1
 234.666666667 768 277.333333333 768 320 768 c 1
 320 704 l 1
 256 704 l 1
 256 640 l 1
 213.333333333 640 170.666666667 640 128 640 c 1
448 0 m 1
 405.333333333 -0 362.666666667 0 320 0 c 1
 320 85.3333333333 320 170.666666667 320 256 c 1
 128 256 l 1
 128 170.666666667 128 85.3333333333 128 0 c 1
 85.3333333333 -0 42.6666666667 0 0 0 c 1
 -0 170.666666667 0 341.333333333 0 512 c 1
 64 512 l 1
 64 576 l 1
 384 576 l 1
 384 512 l 1
 448 512 l 1
 448 341.333333333 448 170.666666667 448 0 c 1
128 320 m 1
 320 320 l 1
 320 512 l 1
 128 512 l 1
 128 320 l 1
EndSplineSet
EndChar

StartChar: LATIN CAPITAL LETTER A WITH CIRCUMFLEX
Encoding: 194 194 130
Width: 512
Flags: HW
LayerCount: 2
Fore
SplineSet
64 640 m 1
 64 704 l 1
 128 704 l 1
 128 768 l 1
 320 768 l 1
 320 704 l 1
 384 704 l 1
 384 640 l 1
 341.333333333 640 298.666666667 640 256 640 c 1
 256 704 l 1
 192 704 l 1
 192 640 l 1
 149.333333333 640 106.666666667 640 64 640 c 1
448 0 m 1
 405.333333333 -0 362.666666667 0 320 0 c 1
 320 85.3333333333 320 170.666666667 320 256 c 1
 128 256 l 1
 128 170.666666667 128 85.3333333333 128 0 c 1
 85.3333333333 -0 42.6666666667 0 0 0 c 1
 -0 170.666666667 0 341.333333333 0 512 c 1
 64 512 l 1
 64 576 l 1
 384 576 l 1
 384 512 l 1
 448 512 l 1
 448 341.333333333 448 170.666666667 448 0 c 1
128 320 m 1
 320 320 l 1
 320 512 l 1
 128 512 l 1
 128 320 l 1
EndSplineSet
EndChar

StartChar: LATIN CAPITAL LETTER A WITH TILDE
Encoding: 195 195 131
Width: 512
Flags: HW
LayerCount: 2
Fore
SplineSet
64 640 m 1
 64 704 l 1
 128 704 l 1
 128 640 l 1
 64 640 l 1
448 0 m 1
 405.333333333 -0 362.666666667 0 320 0 c 1
 320 85.3333333333 320 170.666666667 320 256 c 1
 128 256 l 1
 128 170.666666667 128 85.3333333333 128 0 c 1
 85.3333333333 -0 42.6666666667 0 0 0 c 1
 -0 170.666666667 0 341.333333333 0 512 c 1
 64 512 l 1
 64 576 l 1
 384 576 l 1
 384 512 l 1
 448 512 l 1
 448 341.333333333 448 170.666666667 448 0 c 1
128 320 m 1
 320 320 l 1
 320 512 l 1
 128 512 l 1
 128 320 l 1
384 640 m 1
 341.333333333 640 298.666666667 640 256 640 c 1
 256 704 l 1
 298.666666667 704 341.333333333 704 384 704 c 1
 384 640 l 1
384 704 m 1
 384 768 l 1
 448 768 l 1
 448 704 l 1
 384 704 l 1
256 704 m 1
 213.333333333 704 170.666666667 704 128 704 c 1
 128 768 l 1
 170.666666667 768 213.333333333 768 256 768 c 1
 256 704 l 1
EndSplineSet
EndChar

StartChar: LATIN CAPITAL LETTER A WITH DIAERESIS
Encoding: 196 196 132
Width: 512
Flags: HW
LayerCount: 2
Fore
SplineSet
448 0 m 1
 405.333333333 -0 362.666666667 0 320 0 c 1
 320 85.3333333333 320 170.666666667 320 256 c 1
 128 256 l 1
 128 170.666666667 128 85.3333333333 128 0 c 1
 85.3333333333 -0 42.6666666667 0 0 0 c 1
 -0 170.666666667 0 341.333333333 0 512 c 1
 64 512 l 1
 64 576 l 1
 384 576 l 1
 384 512 l 1
 448 512 l 1
 448 341.333333333 448 170.666666667 448 0 c 1
128 320 m 1
 320 320 l 1
 320 512 l 1
 128 512 l 1
 128 320 l 1
384 640 m 1
 341.333333333 640 298.666666667 640 256 640 c 1
 256 682.666666667 256 725.333333333 256 768 c 1
 298.666666667 768 341.333333333 768 384 768 c 1
 384 725.333333333 384 682.666666667 384 640 c 1
192 640 m 1
 149.333333333 640 106.666666667 640 64 640 c 1
 64 682.666666667 64 725.333333333 64 768 c 1
 106.666666667 768 149.333333333 768 192 768 c 1
 192 725.333333333 192 682.666666667 192 640 c 1
EndSplineSet
EndChar

StartChar: LATIN CAPITAL LETTER A WITH RING ABOVE
Encoding: 197 197 133
Width: 512
Flags: HW
LayerCount: 2
Fore
SplineSet
64 640 m 1
 64 704 l 1
 128 704 l 1
 128 768 l 1
 320 768 l 1
 320 704 l 1
 384 704 l 1
 384 640 l 1
 320 640 l 1
 320 576 l 1
 384 576 l 1
 384 512 l 1
 448 512 l 1
 448 341.333333333 448 170.666666667 448 0 c 1
 405.333333333 -0 362.666666667 0 320 0 c 1
 320 85.3333333333 320 170.666666667 320 256 c 1
 128 256 l 1
 128 170.666666667 128 85.3333333333 128 0 c 1
 85.3333333333 -0 42.6666666667 0 0 0 c 1
 -0 170.666666667 0 341.333333333 0 512 c 1
 64 512 l 1
 64 576 l 1
 128 576 l 1
 128 640 l 1
 64 640 l 1
128 320 m 1
 320 320 l 1
 320 512 l 1
 128 512 l 1
 128 320 l 1
256 640 m 1
 256 704 l 1
 192 704 l 1
 192 640 l 1
 256 640 l 1
EndSplineSet
EndChar

StartChar: LATIN CAPITAL LETTER AE
Encoding: 198 198 134
Width: 512
Flags: HW
LayerCount: 2
Fore
SplineSet
448 0 m 1
 362.666666667 -0 277.333333333 0 192 0 c 1
 192 320 l 1
 128 320 l 1
 128 0 l 1
 85.3333333333 -0 42.6666666667 0 0 0 c 1
 0 576 l 1
 64 576 l 1
 64 640 l 1
 192 640 320 640 448 640 c 1
 448 576 l 1
 405.333333333 576 362.666666667 576 320 576 c 1
 320 384 l 1
 362.666666667 384 405.333333333 384 448 384 c 1
 448 320 l 1
 405.333333333 320 362.666666667 320 320 320 c 1
 320 234.666666667 320 149.333333333 320 64 c 1
 362.666666667 64 405.333333333 64 448 64 c 1
 448 0 l 1
192 384 m 1
 192 576 l 1
 128 576 l 1
 128 384 l 1
 192 384 l 1
EndSplineSet
EndChar

StartChar: LATIN CAPITAL LETTER C WITH CEDILLA
Encoding: 199 199 135
Width: 512
Flags: HW
LayerCount: 2
Fore
SplineSet
128 -192 m 1
 128 -128 l 1
 192 -128 l 1
 192 -85.3333333333 192 -42.6666666667 192 0 c 1
 149.333333333 -0 106.666666667 0 64 0 c 1
 64 64 l 1
 0 64 l 1
 -0 234.666666667 0 405.333333333 0 576 c 1
 64 576 l 1
 64 640 l 1
 192 640 320 640 448 640 c 1
 448 576 l 1
 128 576 l 1
 128 405.333333333 128 234.666666667 128 64 c 1
 448 64 l 1
 448 0 l 1
 405.333333333 -0 362.666666667 0 320 0 c 1
 320 -42.6666666667 320 -85.3333333333 320 -128 c 1
 256 -128 l 1
 256 -192 l 1
 213.333333333 -192 170.666666667 -192 128 -192 c 1
EndSplineSet
EndChar

StartChar: LATIN CAPITAL LETTER E WITH GRAVE
Encoding: 200 200 136
Width: 512
Flags: HW
LayerCount: 2
Fore
SplineSet
128 704 m 1
 128 768 l 1
 170.666666667 768 213.333333333 768 256 768 c 1
 256 704 l 1
 320 704 l 1
 320 640 l 1
 277.333333333 640 234.666666667 640 192 640 c 1
 192 704 l 1
 128 704 l 1
448 0 m 1
 320 -0 192 0 64 0 c 1
 64 64 l 1
 0 64 l 1
 0 512 l 1
 64 512 l 1
 64 576 l 1
 192 576 320 576 448 576 c 1
 448 512 l 1
 128 512 l 1
 128 320 l 1
 320 320 l 1
 320 256 l 1
 128 256 l 1
 128 64 l 1
 448 64 l 1
 448 0 l 1
EndSplineSet
EndChar

StartChar: LATIN CAPITAL LETTER E WITH ACUTE
Encoding: 201 201 137
Width: 512
Flags: HW
LayerCount: 2
Fore
SplineSet
128 640 m 1
 128 704 l 1
 192 704 l 1
 192 768 l 1
 234.666666667 768 277.333333333 768 320 768 c 1
 320 704 l 1
 256 704 l 1
 256 640 l 1
 213.333333333 640 170.666666667 640 128 640 c 1
448 0 m 1
 320 -0 192 0 64 0 c 1
 64 64 l 1
 0 64 l 1
 0 512 l 1
 64 512 l 1
 64 576 l 1
 192 576 320 576 448 576 c 1
 448 512 l 1
 128 512 l 1
 128 320 l 1
 320 320 l 1
 320 256 l 1
 128 256 l 1
 128 64 l 1
 448 64 l 1
 448 0 l 1
EndSplineSet
EndChar

StartChar: LATIN CAPITAL LETTER E WITH CIRCUMFLEX
Encoding: 202 202 138
Width: 512
Flags: HW
LayerCount: 2
Fore
SplineSet
64 640 m 1
 64 704 l 1
 128 704 l 1
 128 768 l 1
 320 768 l 1
 320 704 l 1
 384 704 l 1
 384 640 l 1
 341.333333333 640 298.666666667 640 256 640 c 1
 256 704 l 1
 192 704 l 1
 192 640 l 1
 149.333333333 640 106.666666667 640 64 640 c 1
448 0 m 1
 320 -0 192 0 64 0 c 1
 64 64 l 1
 0 64 l 1
 0 512 l 1
 64 512 l 1
 64 576 l 1
 192 576 320 576 448 576 c 1
 448 512 l 1
 128 512 l 1
 128 320 l 1
 320 320 l 1
 320 256 l 1
 128 256 l 1
 128 64 l 1
 448 64 l 1
 448 0 l 1
EndSplineSet
EndChar

StartChar: LATIN CAPITAL LETTER E WITH DIAERESIS
Encoding: 203 203 139
Width: 512
Flags: HW
LayerCount: 2
Fore
SplineSet
448 0 m 1
 320 -0 192 0 64 0 c 1
 64 64 l 1
 0 64 l 1
 0 512 l 1
 64 512 l 1
 64 576 l 1
 192 576 320 576 448 576 c 1
 448 512 l 1
 128 512 l 1
 128 320 l 1
 320 320 l 1
 320 256 l 1
 128 256 l 1
 128 64 l 1
 448 64 l 1
 448 0 l 1
384 640 m 1
 341.333333333 640 298.666666667 640 256 640 c 1
 256 682.666666667 256 725.333333333 256 768 c 1
 298.666666667 768 341.333333333 768 384 768 c 1
 384 725.333333333 384 682.666666667 384 640 c 1
192 640 m 1
 149.333333333 640 106.666666667 640 64 640 c 1
 64 682.666666667 64 725.333333333 64 768 c 1
 106.666666667 768 149.333333333 768 192 768 c 1
 192 725.333333333 192 682.666666667 192 640 c 1
EndSplineSet
EndChar

StartChar: LATIN CAPITAL LETTER I WITH GRAVE
Encoding: 204 204 140
Width: 512
Flags: HW
LayerCount: 2
Fore
SplineSet
64 0 m 1
 64 64 l 1
 106.666666667 64 149.333333333 64 192 64 c 1
 192 512 l 1
 149.333333333 512 106.666666667 512 64 512 c 1
 64 576 l 1
 192 576 320 576 448 576 c 1
 448 512 l 1
 405.333333333 512 362.666666667 512 320 512 c 1
 320 64 l 1
 362.666666667 64 405.333333333 64 448 64 c 1
 448 0 l 1
 320 -0 192 0 64 0 c 1
128 704 m 1
 128 768 l 1
 170.666666667 768 213.333333333 768 256 768 c 1
 256 704 l 1
 320 704 l 1
 320 640 l 1
 277.333333333 640 234.666666667 640 192 640 c 1
 192 704 l 1
 128 704 l 1
EndSplineSet
EndChar

StartChar: LATIN CAPITAL LETTER I WITH ACUTE
Encoding: 205 205 141
Width: 512
Flags: HW
LayerCount: 2
Fore
SplineSet
64 0 m 1
 64 64 l 1
 106.666666667 64 149.333333333 64 192 64 c 1
 192 512 l 1
 149.333333333 512 106.666666667 512 64 512 c 1
 64 576 l 1
 192 576 320 576 448 576 c 1
 448 512 l 1
 405.333333333 512 362.666666667 512 320 512 c 1
 320 64 l 1
 362.666666667 64 405.333333333 64 448 64 c 1
 448 0 l 1
 320 -0 192 0 64 0 c 1
192 640 m 1
 192 704 l 1
 256 704 l 1
 256 768 l 1
 298.666666667 768 341.333333333 768 384 768 c 1
 384 704 l 1
 320 704 l 1
 320 640 l 1
 277.333333333 640 234.666666667 640 192 640 c 1
EndSplineSet
EndChar

StartChar: LATIN CAPITAL LETTER I WITH CIRCUMFLEX
Encoding: 206 206 142
Width: 512
Flags: HW
LayerCount: 2
Fore
SplineSet
64 0 m 1
 64 64 l 1
 106.666666667 64 149.333333333 64 192 64 c 1
 192 512 l 1
 149.333333333 512 106.666666667 512 64 512 c 1
 64 576 l 1
 192 576 320 576 448 576 c 1
 448 512 l 1
 405.333333333 512 362.666666667 512 320 512 c 1
 320 64 l 1
 362.666666667 64 405.333333333 64 448 64 c 1
 448 0 l 1
 320 -0 192 0 64 0 c 1
64 640 m 1
 64 704 l 1
 128 704 l 1
 128 768 l 1
 320 768 l 1
 320 704 l 1
 384 704 l 1
 384 640 l 1
 341.333333333 640 298.666666667 640 256 640 c 1
 256 704 l 1
 192 704 l 1
 192 640 l 1
 149.333333333 640 106.666666667 640 64 640 c 1
EndSplineSet
EndChar

StartChar: LATIN CAPITAL LETTER I WITH DIAERESIS
Encoding: 207 207 143
Width: 512
Flags: HW
LayerCount: 2
Fore
SplineSet
64 0 m 1
 64 64 l 1
 106.666666667 64 149.333333333 64 192 64 c 1
 192 512 l 1
 149.333333333 512 106.666666667 512 64 512 c 1
 64 576 l 1
 192 576 320 576 448 576 c 1
 448 512 l 1
 405.333333333 512 362.666666667 512 320 512 c 1
 320 64 l 1
 362.666666667 64 405.333333333 64 448 64 c 1
 448 0 l 1
 320 -0 192 0 64 0 c 1
448 640 m 1
 405.333333333 640 362.666666667 640 320 640 c 1
 320 682.666666667 320 725.333333333 320 768 c 1
 362.666666667 768 405.333333333 768 448 768 c 1
 448 725.333333333 448 682.666666667 448 640 c 1
192 640 m 1
 149.333333333 640 106.666666667 640 64 640 c 1
 64 682.666666667 64 725.333333333 64 768 c 1
 106.666666667 768 149.333333333 768 192 768 c 1
 192 725.333333333 192 682.666666667 192 640 c 1
EndSplineSet
EndChar

StartChar: LATIN CAPITAL LETTER ETH
Encoding: 208 208 144
Width: 512
Flags: HW
LayerCount: 2
Fore
SplineSet
0 320 m 1
 0 384 l 1
 64 384 l 1
 64 469.333333333 64 554.666666667 64 640 c 1
 384 640 l 1
 384 576 l 1
 448 576 l 1
 448 405.333333333 448 234.666666667 448 64 c 1
 384 64 l 1
 384 0 l 1
 64 0 l 1
 64 320 l 1
 0 320 l 1
192 64 m 1
 234.666666667 64 277.333333333 64 320 64 c 1
 320 234.666666667 320 405.333333333 320 576 c 1
 277.333333333 576 234.666666667 576 192 576 c 1
 192 384 l 1
 256 384 l 1
 256 320 l 1
 192 320 l 1
 192 234.666666667 192 149.333333333 192 64 c 1
EndSplineSet
EndChar

StartChar: LATIN CAPITAL LETTER N WITH TILDE
Encoding: 209 209 145
Width: 512
Flags: HW
LayerCount: 2
Fore
SplineSet
64 640 m 1
 64 704 l 1
 128 704 l 1
 128 640 l 1
 64 640 l 1
448 0 m 1
 405.333333333 -0 362.666666667 0 320 0 c 1
 320 42.6666666667 320 85.3333333333 320 128 c 1
 256 128 l 1
 256 170.666666667 256 213.333333333 256 256 c 1
 320 256 l 1
 320 576 l 1
 362.666666667 576 405.333333333 576 448 576 c 1
 448 0 l 1
128 0 m 1
 85.3333333333 -0 42.6666666667 0 0 0 c 1
 0 576 l 1
 42.6666666667 576 85.3333333333 576 128 576 c 1
 128 512 l 1
 192 512 l 1
 192 469.333333333 192 426.666666667 192 384 c 1
 256 384 l 1
 256 341.333333333 256 298.666666667 256 256 c 1
 192 256 l 1
 192 298.666666667 192 341.333333333 192 384 c 1
 128 384 l 1
 128 256 128 128 128 0 c 1
384 640 m 1
 341.333333333 640 298.666666667 640 256 640 c 1
 256 704 l 1
 298.666666667 704 341.333333333 704 384 704 c 1
 384 640 l 1
384 704 m 1
 384 768 l 1
 448 768 l 1
 448 704 l 1
 384 704 l 1
256 704 m 1
 213.333333333 704 170.666666667 704 128 704 c 1
 128 768 l 1
 170.666666667 768 213.333333333 768 256 768 c 1
 256 704 l 1
EndSplineSet
EndChar

StartChar: LATIN CAPITAL LETTER O WITH GRAVE
Encoding: 210 210 146
Width: 512
Flags: HW
LayerCount: 2
Fore
SplineSet
128 704 m 1
 128 768 l 1
 170.666666667 768 213.333333333 768 256 768 c 1
 256 704 l 1
 320 704 l 1
 320 640 l 1
 277.333333333 640 234.666666667 640 192 640 c 1
 192 704 l 1
 128 704 l 1
384 0 m 1
 64 0 l 1
 64 64 l 1
 0 64 l 1
 0 512 l 1
 64 512 l 1
 64 576 l 1
 384 576 l 1
 384 512 l 1
 448 512 l 1
 448 64 l 1
 384 64 l 1
 384 0 l 1
128 64 m 1
 320 64 l 1
 320 512 l 1
 128 512 l 1
 128 64 l 1
EndSplineSet
EndChar

StartChar: LATIN CAPITAL LETTER O WITH ACUTE
Encoding: 211 211 147
Width: 512
Flags: HW
LayerCount: 2
Fore
SplineSet
128 640 m 1
 128 704 l 1
 192 704 l 1
 192 768 l 1
 234.666666667 768 277.333333333 768 320 768 c 1
 320 704 l 1
 256 704 l 1
 256 640 l 1
 213.333333333 640 170.666666667 640 128 640 c 1
384 0 m 1
 64 0 l 1
 64 64 l 1
 0 64 l 1
 0 512 l 1
 64 512 l 1
 64 576 l 1
 384 576 l 1
 384 512 l 1
 448 512 l 1
 448 64 l 1
 384 64 l 1
 384 0 l 1
128 64 m 1
 320 64 l 1
 320 512 l 1
 128 512 l 1
 128 64 l 1
EndSplineSet
EndChar

StartChar: LATIN CAPITAL LETTER O WITH CIRCUMFLEX
Encoding: 212 212 148
Width: 512
Flags: HW
LayerCount: 2
Fore
SplineSet
64 640 m 1
 64 704 l 1
 128 704 l 1
 128 768 l 1
 320 768 l 1
 320 704 l 1
 384 704 l 1
 384 640 l 1
 341.333333333 640 298.666666667 640 256 640 c 1
 256 704 l 1
 192 704 l 1
 192 640 l 1
 149.333333333 640 106.666666667 640 64 640 c 1
384 0 m 1
 64 0 l 1
 64 64 l 1
 0 64 l 1
 0 512 l 1
 64 512 l 1
 64 576 l 1
 384 576 l 1
 384 512 l 1
 448 512 l 1
 448 64 l 1
 384 64 l 1
 384 0 l 1
128 64 m 1
 320 64 l 1
 320 512 l 1
 128 512 l 1
 128 64 l 1
EndSplineSet
EndChar

StartChar: LATIN CAPITAL LETTER O WITH TILDE
Encoding: 213 213 149
Width: 512
Flags: HW
LayerCount: 2
Fore
SplineSet
64 640 m 1
 64 704 l 1
 128 704 l 1
 128 640 l 1
 64 640 l 1
384 0 m 1
 64 0 l 1
 64 64 l 1
 0 64 l 1
 0 512 l 1
 64 512 l 1
 64 576 l 1
 384 576 l 1
 384 512 l 1
 448 512 l 1
 448 64 l 1
 384 64 l 1
 384 0 l 1
128 64 m 1
 320 64 l 1
 320 512 l 1
 128 512 l 1
 128 64 l 1
384 640 m 1
 341.333333333 640 298.666666667 640 256 640 c 1
 256 704 l 1
 298.666666667 704 341.333333333 704 384 704 c 1
 384 640 l 1
384 704 m 1
 384 768 l 1
 448 768 l 1
 448 704 l 1
 384 704 l 1
256 704 m 1
 213.333333333 704 170.666666667 704 128 704 c 1
 128 768 l 1
 170.666666667 768 213.333333333 768 256 768 c 1
 256 704 l 1
EndSplineSet
EndChar

StartChar: LATIN CAPITAL LETTER O WITH DIAERESIS
Encoding: 214 214 150
Width: 512
Flags: HW
LayerCount: 2
Fore
SplineSet
384 0 m 1
 64 0 l 1
 64 64 l 1
 0 64 l 1
 0 512 l 1
 64 512 l 1
 64 576 l 1
 384 576 l 1
 384 512 l 1
 448 512 l 1
 448 64 l 1
 384 64 l 1
 384 0 l 1
128 64 m 1
 320 64 l 1
 320 512 l 1
 128 512 l 1
 128 64 l 1
384 640 m 1
 341.333333333 640 298.666666667 640 256 640 c 1
 256 682.666666667 256 725.333333333 256 768 c 1
 298.666666667 768 341.333333333 768 384 768 c 1
 384 725.333333333 384 682.666666667 384 640 c 1
192 640 m 1
 149.333333333 640 106.666666667 640 64 640 c 1
 64 682.666666667 64 725.333333333 64 768 c 1
 106.666666667 768 149.333333333 768 192 768 c 1
 192 725.333333333 192 682.666666667 192 640 c 1
EndSplineSet
EndChar

StartChar: MULTIPLICATION SIGN
Encoding: 215 215 151
Width: 512
Flags: HW
LayerCount: 2
Fore
SplineSet
0 64 m 1
 0 128 l 1
 64 128 l 1
 64 192 l 1
 128 192 l 1
 128 234.666666667 128 277.333333333 128 320 c 1
 64 320 l 1
 64 384 l 1
 0 384 l 1
 0 448 l 1
 42.6666666667 448 85.3333333333 448 128 448 c 1
 128 384 l 1
 192 384 l 1
 192 320 l 1
 256 320 l 1
 256 384 l 1
 320 384 l 1
 320 448 l 1
 362.666666667 448 405.333333333 448 448 448 c 1
 448 384 l 1
 384 384 l 1
 384 320 l 1
 320 320 l 1
 320 277.333333333 320 234.666666667 320 192 c 1
 384 192 l 1
 384 128 l 1
 448 128 l 1
 448 64 l 1
 405.333333333 64 362.666666667 64 320 64 c 1
 320 128 l 1
 256 128 l 1
 256 192 l 1
 192 192 l 1
 192 128 l 1
 128 128 l 1
 128 64 l 1
 85.3333333333 64 42.6666666667 64 0 64 c 1
EndSplineSet
EndChar

StartChar: LATIN CAPITAL LETTER O WITH STROKE
Encoding: 216 216 152
Width: 512
Flags: HW
LayerCount: 2
Fore
SplineSet
0 -64 m 1
 0 0 l 1
 64 0 l 1
 64 -64 l 1
 0 -64 l 1
384 0 m 1
 64 0 l 1
 64 64 l 1
 0 64 l 1
 -0 234.666666667 0 405.333333333 0 576 c 1
 64 576 l 1
 64 640 l 1
 384 640 l 1
 384 576 l 1
 448 576 l 1
 448 405.333333333 448 234.666666667 448 64 c 1
 384 64 l 1
 384 0 l 1
128 64 m 1
 320 64 l 1
 320 384 l 1
 256 384 l 1
 256 341.333333333 256 298.666666667 256 256 c 1
 192 256 l 1
 192 213.333333333 192 170.666666667 192 128 c 1
 128 128 l 1
 128 64 l 1
192 256 m 1
 192 298.666666667 192 341.333333333 192 384 c 1
 256 384 l 1
 256 426.666666667 256 469.333333333 256 512 c 1
 320 512 l 1
 320 576 l 1
 128 576 l 1
 128 256 l 1
 192 256 l 1
384 640 m 1
 384 704 l 1
 448 704 l 1
 448 640 l 1
 384 640 l 1
EndSplineSet
EndChar

StartChar: LATIN CAPITAL LETTER U WITH GRAVE
Encoding: 217 217 153
Width: 512
Flags: HW
LayerCount: 2
Fore
SplineSet
128 704 m 1
 128 768 l 1
 170.666666667 768 213.333333333 768 256 768 c 1
 256 704 l 1
 320 704 l 1
 320 640 l 1
 277.333333333 640 234.666666667 640 192 640 c 1
 192 704 l 1
 128 704 l 1
448 0 m 1
 320 -0 192 0 64 0 c 1
 64 64 l 1
 0 64 l 1
 -0 234.666666667 0 405.333333333 0 576 c 1
 42.6666666667 576 85.3333333333 576 128 576 c 1
 128 405.333333333 128 234.666666667 128 64 c 1
 320 64 l 1
 320 234.666666667 320 405.333333333 320 576 c 1
 362.666666667 576 405.333333333 576 448 576 c 1
 448 0 l 1
EndSplineSet
EndChar

StartChar: LATIN CAPITAL LETTER U WITH ACUTE
Encoding: 218 218 154
Width: 512
Flags: HW
LayerCount: 2
Fore
SplineSet
128 640 m 1
 128 704 l 1
 192 704 l 1
 192 768 l 1
 234.666666667 768 277.333333333 768 320 768 c 1
 320 704 l 1
 256 704 l 1
 256 640 l 1
 213.333333333 640 170.666666667 640 128 640 c 1
448 0 m 1
 320 -0 192 0 64 0 c 1
 64 64 l 1
 0 64 l 1
 -0 234.666666667 0 405.333333333 0 576 c 1
 42.6666666667 576 85.3333333333 576 128 576 c 1
 128 405.333333333 128 234.666666667 128 64 c 1
 320 64 l 1
 320 234.666666667 320 405.333333333 320 576 c 1
 362.666666667 576 405.333333333 576 448 576 c 1
 448 0 l 1
EndSplineSet
EndChar

StartChar: LATIN CAPITAL LETTER U WITH CIRCUMFLEX
Encoding: 219 219 155
Width: 512
Flags: HW
LayerCount: 2
Fore
SplineSet
64 640 m 1
 64 704 l 1
 128 704 l 1
 128 768 l 1
 320 768 l 1
 320 704 l 1
 384 704 l 1
 384 640 l 1
 341.333333333 640 298.666666667 640 256 640 c 1
 256 704 l 1
 192 704 l 1
 192 640 l 1
 149.333333333 640 106.666666667 640 64 640 c 1
448 0 m 1
 320 -0 192 0 64 0 c 1
 64 64 l 1
 0 64 l 1
 -0 234.666666667 0 405.333333333 0 576 c 1
 42.6666666667 576 85.3333333333 576 128 576 c 1
 128 405.333333333 128 234.666666667 128 64 c 1
 320 64 l 1
 320 234.666666667 320 405.333333333 320 576 c 1
 362.666666667 576 405.333333333 576 448 576 c 1
 448 0 l 1
EndSplineSet
EndChar

StartChar: LATIN CAPITAL LETTER U WITH DIAERESIS
Encoding: 220 220 156
Width: 512
Flags: HW
LayerCount: 2
Fore
SplineSet
448 0 m 1
 320 -0 192 0 64 0 c 1
 64 64 l 1
 0 64 l 1
 -0 234.666666667 0 405.333333333 0 576 c 1
 42.6666666667 576 85.3333333333 576 128 576 c 1
 128 405.333333333 128 234.666666667 128 64 c 1
 320 64 l 1
 320 234.666666667 320 405.333333333 320 576 c 1
 362.666666667 576 405.333333333 576 448 576 c 1
 448 0 l 1
384 640 m 1
 341.333333333 640 298.666666667 640 256 640 c 1
 256 682.666666667 256 725.333333333 256 768 c 1
 298.666666667 768 341.333333333 768 384 768 c 1
 384 725.333333333 384 682.666666667 384 640 c 1
192 640 m 1
 149.333333333 640 106.666666667 640 64 640 c 1
 64 682.666666667 64 725.333333333 64 768 c 1
 106.666666667 768 149.333333333 768 192 768 c 1
 192 725.333333333 192 682.666666667 192 640 c 1
EndSplineSet
EndChar

StartChar: LATIN CAPITAL LETTER Y WITH ACUTE
Encoding: 221 221 157
Width: 512
Flags: HW
LayerCount: 2
Fore
SplineSet
0 0 m 1
 0 64 l 1
 320 64 l 1
 320 256 l 1
 234.666666667 256 149.333333333 256 64 256 c 1
 64 320 l 1
 0 320 l 1
 -0 405.333333333 0 490.666666667 0 576 c 1
 42.6666666667 576 85.3333333333 576 128 576 c 1
 128 490.666666667 128 405.333333333 128 320 c 1
 320 320 l 1
 320 405.333333333 320 490.666666667 320 576 c 1
 362.666666667 576 405.333333333 576 448 576 c 1
 448 405.333333333 448 234.666666667 448 64 c 1
 384 64 l 1
 384 0 l 1
 256 -0 128 0 0 0 c 1
128 640 m 1
 128 704 l 1
 192 704 l 1
 192 768 l 1
 234.666666667 768 277.333333333 768 320 768 c 1
 320 704 l 1
 256 704 l 1
 256 640 l 1
 213.333333333 640 170.666666667 640 128 640 c 1
EndSplineSet
EndChar

StartChar: LATIN CAPITAL LETTER THORN
Encoding: 222 222 158
Width: 512
Flags: HW
LayerCount: 2
Fore
SplineSet
128 -128 m 1
 85.3333333333 -128 42.6666666667 -128 0 -128 c 1
 0 576 l 1
 42.6666666667 576 85.3333333333 576 128 576 c 1
 128 533.333333333 128 490.666666667 128 448 c 1
 213.333333333 448 298.666666667 448 384 448 c 1
 384 384 l 1
 448 384 l 1
 448 64 l 1
 384 64 l 1
 384 0 l 1
 298.666666667 -0 213.333333333 0 128 0 c 1
 128 -42.6666666667 128 -85.3333333333 128 -128 c 1
128 64 m 1
 320 64 l 1
 320 384 l 1
 128 384 l 1
 128 64 l 1
EndSplineSet
EndChar

StartChar: LATIN SMALL LETTER SHARP S
Encoding: 223 223 159
Width: 512
Flags: HW
LayerCount: 2
Fore
SplineSet
384 0 m 1
 192 0 l 1
 192 64 l 1
 234.666666667 64 277.333333333 64 320 64 c 1
 320 256 l 1
 256 256 l 1
 256 320 l 1
 213.333333333 320 170.666666667 320 128 320 c 1
 128 128 l 1
 192 128 l 1
 192 64 l 1
 128 64 l 1
 128 0 l 1
 85.3333333333 -0 42.6666666667 0 0 0 c 1
 0 576 l 1
 64 576 l 1
 64 640 l 1
 149.333333333 640 234.666666667 640 320 640 c 1
 320 576 l 1
 384 576 l 1
 384 384 l 1
 320 384 l 1
 320 320 l 1
 384 320 l 1
 384 256 l 1
 448 256 l 1
 448 64 l 1
 384 64 l 1
 384 0 l 1
128 384 m 1
 170.666666667 384 213.333333333 384 256 384 c 1
 256 576 l 1
 213.333333333 576 170.666666667 576 128 576 c 1
 128 384 l 1
EndSplineSet
EndChar

StartChar: LATIN SMALL LETTER A WITH GRAVE
Encoding: 224 224 160
Width: 512
Flags: HW
LayerCount: 2
Fore
SplineSet
64 384 m 1
 64 448 l 1
 384 448 l 1
 384 384 l 1
 448 384 l 1
 448 256 448 128 448 0 c 1
 320 -0 192 0 64 0 c 1
 64 64 l 1
 0 64 l 1
 0 256 l 1
 64 256 l 1
 64 320 l 1
 149.333333333 320 234.666666667 320 320 320 c 1
 320 384 l 1
 234.666666667 384 149.333333333 384 64 384 c 1
64 640 m 1
 64 704 l 1
 106.666666667 704 149.333333333 704 192 704 c 1
 192 640 l 1
 256 640 l 1
 256 576 l 1
 320 576 l 1
 320 512 l 1
 277.333333333 512 234.666666667 512 192 512 c 1
 192 576 l 1
 128 576 l 1
 128 640 l 1
 64 640 l 1
128 64 m 1
 320 64 l 1
 320 256 l 1
 128 256 l 1
 128 64 l 1
EndSplineSet
EndChar

StartChar: LATIN SMALL LETTER A WITH ACUTE
Encoding: 225 225 161
Width: 512
Flags: HW
LayerCount: 2
Fore
SplineSet
64 384 m 1
 64 448 l 1
 384 448 l 1
 384 384 l 1
 448 384 l 1
 448 256 448 128 448 0 c 1
 320 -0 192 0 64 0 c 1
 64 64 l 1
 0 64 l 1
 0 256 l 1
 64 256 l 1
 64 320 l 1
 149.333333333 320 234.666666667 320 320 320 c 1
 320 384 l 1
 234.666666667 384 149.333333333 384 64 384 c 1
128 512 m 1
 128 576 l 1
 192 576 l 1
 192 640 l 1
 256 640 l 1
 256 704 l 1
 298.666666667 704 341.333333333 704 384 704 c 1
 384 640 l 1
 320 640 l 1
 320 576 l 1
 256 576 l 1
 256 512 l 1
 213.333333333 512 170.666666667 512 128 512 c 1
128 64 m 1
 320 64 l 1
 320 256 l 1
 128 256 l 1
 128 64 l 1
EndSplineSet
EndChar

StartChar: LATIN SMALL LETTER A WITH CIRCUMFLEX
Encoding: 226 226 162
Width: 512
Flags: HW
LayerCount: 2
Fore
SplineSet
64 384 m 1
 64 448 l 1
 384 448 l 1
 384 384 l 1
 448 384 l 1
 448 256 448 128 448 0 c 1
 320 -0 192 0 64 0 c 1
 64 64 l 1
 0 64 l 1
 0 256 l 1
 64 256 l 1
 64 320 l 1
 149.333333333 320 234.666666667 320 320 320 c 1
 320 384 l 1
 234.666666667 384 149.333333333 384 64 384 c 1
64 512 m 1
 64 576 l 1
 128 576 l 1
 128 640 l 1
 192 640 l 1
 192 704 l 1
 256 704 l 1
 256 640 l 1
 320 640 l 1
 320 576 l 1
 384 576 l 1
 384 512 l 1
 341.333333333 512 298.666666667 512 256 512 c 1
 256 576 l 1
 192 576 l 1
 192 512 l 1
 149.333333333 512 106.666666667 512 64 512 c 1
128 64 m 1
 320 64 l 1
 320 256 l 1
 128 256 l 1
 128 64 l 1
EndSplineSet
EndChar

StartChar: LATIN SMALL LETTER A WITH TILDE
Encoding: 227 227 163
Width: 512
Flags: HW
LayerCount: 2
Fore
SplineSet
64 384 m 1
 64 448 l 1
 384 448 l 1
 384 384 l 1
 448 384 l 1
 448 256 448 128 448 0 c 1
 320 -0 192 0 64 0 c 1
 64 64 l 1
 0 64 l 1
 0 256 l 1
 64 256 l 1
 64 320 l 1
 149.333333333 320 234.666666667 320 320 320 c 1
 320 384 l 1
 234.666666667 384 149.333333333 384 64 384 c 1
128 64 m 1
 320 64 l 1
 320 256 l 1
 128 256 l 1
 128 64 l 1
384 512 m 1
 341.333333333 512 298.666666667 512 256 512 c 1
 256 576 l 1
 213.333333333 576 170.666666667 576 128 576 c 1
 128 512 l 1
 64 512 l 1
 64 554.666666667 64 597.333333333 64 640 c 1
 128 640 l 1
 128 704 l 1
 170.666666667 704 213.333333333 704 256 704 c 1
 256 640 l 1
 298.666666667 640 341.333333333 640 384 640 c 1
 384 704 l 1
 448 704 l 1
 448 661.333333333 448 618.666666667 448 576 c 1
 384 576 l 1
 384 512 l 1
EndSplineSet
EndChar

StartChar: LATIN SMALL LETTER A WITH DIAERESIS
Encoding: 228 228 164
Width: 512
Flags: HW
LayerCount: 2
Fore
SplineSet
64 384 m 1
 64 448 l 1
 384 448 l 1
 384 384 l 1
 448 384 l 1
 448 256 448 128 448 0 c 1
 320 -0 192 0 64 0 c 1
 64 64 l 1
 0 64 l 1
 0 256 l 1
 64 256 l 1
 64 320 l 1
 149.333333333 320 234.666666667 320 320 320 c 1
 320 384 l 1
 234.666666667 384 149.333333333 384 64 384 c 1
128 64 m 1
 320 64 l 1
 320 256 l 1
 128 256 l 1
 128 64 l 1
384 512 m 1
 341.333333333 512 298.666666667 512 256 512 c 1
 256 554.666666667 256 597.333333333 256 640 c 1
 298.666666667 640 341.333333333 640 384 640 c 1
 384 597.333333333 384 554.666666667 384 512 c 1
192 512 m 1
 149.333333333 512 106.666666667 512 64 512 c 1
 64 554.666666667 64 597.333333333 64 640 c 1
 106.666666667 640 149.333333333 640 192 640 c 1
 192 597.333333333 192 554.666666667 192 512 c 1
EndSplineSet
EndChar

StartChar: LATIN SMALL LETTER A WITH RING ABOVE
Encoding: 229 229 165
Width: 512
Flags: HW
LayerCount: 2
Fore
SplineSet
64 384 m 1
 64 448 l 1
 384 448 l 1
 384 384 l 1
 448 384 l 1
 448 256 448 128 448 0 c 1
 320 -0 192 0 64 0 c 1
 64 64 l 1
 0 64 l 1
 0 256 l 1
 64 256 l 1
 64 320 l 1
 149.333333333 320 234.666666667 320 320 320 c 1
 320 384 l 1
 234.666666667 384 149.333333333 384 64 384 c 1
64 576 m 1
 64 640 l 1
 128 640 l 1
 128 704 l 1
 320 704 l 1
 320 640 l 1
 384 640 l 1
 384 576 l 1
 320 576 l 1
 320 512 l 1
 128 512 l 1
 128 576 l 1
 64 576 l 1
128 64 m 1
 320 64 l 1
 320 256 l 1
 128 256 l 1
 128 64 l 1
256 576 m 1
 256 640 l 1
 192 640 l 1
 192 576 l 1
 256 576 l 1
EndSplineSet
EndChar

StartChar: LATIN SMALL LETTER AE
Encoding: 230 230 166
Width: 512
Flags: HW
LayerCount: 2
Fore
SplineSet
64 384 m 1
 64 448 l 1
 106.666666667 448 149.333333333 448 192 448 c 1
 192 384 l 1
 256 384 l 1
 256 341.333333333 256 298.666666667 256 256 c 1
 320 256 l 1
 320 298.666666667 320 341.333333333 320 384 c 1
 256 384 l 1
 256 448 l 1
 448 448 l 1
 448 362.666666667 448 277.333333333 448 192 c 1
 256 192 l 1
 256 149.333333333 256 106.666666667 256 64 c 1
 448 64 l 1
 448 0 l 1
 256 0 l 1
 256 64 l 1
 192 64 l 1
 192 0 l 1
 149.333333333 -0 106.666666667 0 64 0 c 1
 64 64 l 1
 0 64 l 1
 -0 106.666666667 0 149.333333333 0 192 c 1
 64 192 l 1
 64 256 l 1
 106.666666667 256 149.333333333 256 192 256 c 1
 192 298.666666667 192 341.333333333 192 384 c 1
 149.333333333 384 106.666666667 384 64 384 c 1
192 64 m 1
 192 106.666666667 192 149.333333333 192 192 c 1
 128 192 l 1
 128 149.333333333 128 106.666666667 128 64 c 1
 192 64 l 1
EndSplineSet
EndChar

StartChar: LATIN SMALL LETTER C WITH CEDILLA
Encoding: 231 231 167
Width: 512
Flags: HW
LayerCount: 2
Fore
SplineSet
128 -192 m 1
 128 -128 l 1
 192 -128 l 1
 192 -85.3333333333 192 -42.6666666667 192 0 c 1
 149.333333333 -0 106.666666667 0 64 0 c 1
 64 64 l 1
 0 64 l 1
 0 384 l 1
 64 384 l 1
 64 448 l 1
 192 448 320 448 448 448 c 1
 448 384 l 1
 128 384 l 1
 128 64 l 1
 448 64 l 1
 448 0 l 1
 405.333333333 -0 362.666666667 0 320 0 c 1
 320 -42.6666666667 320 -85.3333333333 320 -128 c 1
 256 -128 l 1
 256 -192 l 1
 213.333333333 -192 170.666666667 -192 128 -192 c 1
EndSplineSet
EndChar

StartChar: LATIN SMALL LETTER E WITH GRAVE
Encoding: 232 232 168
Width: 512
Flags: HW
LayerCount: 2
Fore
SplineSet
64 640 m 1
 64 704 l 1
 106.666666667 704 149.333333333 704 192 704 c 1
 192 640 l 1
 256 640 l 1
 256 576 l 1
 320 576 l 1
 320 512 l 1
 277.333333333 512 234.666666667 512 192 512 c 1
 192 576 l 1
 128 576 l 1
 128 640 l 1
 64 640 l 1
448 0 m 1
 320 -0 192 0 64 0 c 1
 64 64 l 1
 0 64 l 1
 0 384 l 1
 64 384 l 1
 64 448 l 1
 192 448 320 448 448 448 c 1
 448 362.666666667 448 277.333333333 448 192 c 1
 128 192 l 1
 128 149.333333333 128 106.666666667 128 64 c 1
 448 64 l 1
 448 0 l 1
128 256 m 1
 320 256 l 1
 320 298.666666667 320 341.333333333 320 384 c 1
 128 384 l 1
 128 341.333333333 128 298.666666667 128 256 c 1
EndSplineSet
EndChar

StartChar: LATIN SMALL LETTER E WITH ACUTE
Encoding: 233 233 169
Width: 512
Flags: HW
LayerCount: 2
Fore
SplineSet
128 512 m 1
 128 576 l 1
 192 576 l 1
 192 640 l 1
 256 640 l 1
 256 704 l 1
 298.666666667 704 341.333333333 704 384 704 c 1
 384 640 l 1
 320 640 l 1
 320 576 l 1
 256 576 l 1
 256 512 l 1
 213.333333333 512 170.666666667 512 128 512 c 1
448 0 m 1
 320 -0 192 0 64 0 c 1
 64 64 l 1
 0 64 l 1
 0 384 l 1
 64 384 l 1
 64 448 l 1
 192 448 320 448 448 448 c 1
 448 362.666666667 448 277.333333333 448 192 c 1
 128 192 l 1
 128 149.333333333 128 106.666666667 128 64 c 1
 448 64 l 1
 448 0 l 1
128 256 m 1
 320 256 l 1
 320 298.666666667 320 341.333333333 320 384 c 1
 128 384 l 1
 128 341.333333333 128 298.666666667 128 256 c 1
EndSplineSet
EndChar

StartChar: LATIN SMALL LETTER E WITH CIRCUMFLEX
Encoding: 234 234 170
Width: 512
Flags: HW
LayerCount: 2
Fore
SplineSet
64 512 m 1
 64 576 l 1
 128 576 l 1
 128 640 l 1
 192 640 l 1
 192 704 l 1
 256 704 l 1
 256 640 l 1
 320 640 l 1
 320 576 l 1
 384 576 l 1
 384 512 l 1
 341.333333333 512 298.666666667 512 256 512 c 1
 256 576 l 1
 192 576 l 1
 192 512 l 1
 149.333333333 512 106.666666667 512 64 512 c 1
448 0 m 1
 320 -0 192 0 64 0 c 1
 64 64 l 1
 0 64 l 1
 0 384 l 1
 64 384 l 1
 64 448 l 1
 192 448 320 448 448 448 c 1
 448 362.666666667 448 277.333333333 448 192 c 1
 128 192 l 1
 128 149.333333333 128 106.666666667 128 64 c 1
 448 64 l 1
 448 0 l 1
128 256 m 1
 320 256 l 1
 320 298.666666667 320 341.333333333 320 384 c 1
 128 384 l 1
 128 341.333333333 128 298.666666667 128 256 c 1
EndSplineSet
EndChar

StartChar: LATIN SMALL LETTER E WITH DIAERESIS
Encoding: 235 235 171
Width: 512
Flags: HW
LayerCount: 2
Fore
SplineSet
448 0 m 1
 320 -0 192 0 64 0 c 1
 64 64 l 1
 0 64 l 1
 0 384 l 1
 64 384 l 1
 64 448 l 1
 192 448 320 448 448 448 c 1
 448 362.666666667 448 277.333333333 448 192 c 1
 128 192 l 1
 128 149.333333333 128 106.666666667 128 64 c 1
 448 64 l 1
 448 0 l 1
128 256 m 1
 320 256 l 1
 320 298.666666667 320 341.333333333 320 384 c 1
 128 384 l 1
 128 341.333333333 128 298.666666667 128 256 c 1
384 512 m 1
 341.333333333 512 298.666666667 512 256 512 c 1
 256 554.666666667 256 597.333333333 256 640 c 1
 298.666666667 640 341.333333333 640 384 640 c 1
 384 597.333333333 384 554.666666667 384 512 c 1
192 512 m 1
 149.333333333 512 106.666666667 512 64 512 c 1
 64 554.666666667 64 597.333333333 64 640 c 1
 106.666666667 640 149.333333333 640 192 640 c 1
 192 597.333333333 192 554.666666667 192 512 c 1
EndSplineSet
EndChar

StartChar: LATIN SMALL LETTER I WITH GRAVE
Encoding: 236 236 172
Width: 512
Flags: HW
LayerCount: 2
Fore
SplineSet
128 384 m 1
 128 448 l 1
 320 448 l 1
 320 320 320 192 320 64 c 1
 384 64 l 1
 384 0 l 1
 192 0 l 1
 192 128 192 256 192 384 c 1
 128 384 l 1
128 640 m 1
 128 704 l 1
 170.666666667 704 213.333333333 704 256 704 c 1
 256 640 l 1
 320 640 l 1
 320 576 l 1
 384 576 l 1
 384 512 l 1
 341.333333333 512 298.666666667 512 256 512 c 1
 256 576 l 1
 192 576 l 1
 192 640 l 1
 128 640 l 1
EndSplineSet
EndChar

StartChar: LATIN SMALL LETTER I WITH ACUTE
Encoding: 237 237 173
Width: 512
Flags: HW
LayerCount: 2
Fore
SplineSet
128 384 m 1
 128 448 l 1
 320 448 l 1
 320 320 320 192 320 64 c 1
 384 64 l 1
 384 0 l 1
 192 0 l 1
 192 128 192 256 192 384 c 1
 128 384 l 1
128 512 m 1
 128 576 l 1
 192 576 l 1
 192 640 l 1
 256 640 l 1
 256 704 l 1
 298.666666667 704 341.333333333 704 384 704 c 1
 384 640 l 1
 320 640 l 1
 320 576 l 1
 256 576 l 1
 256 512 l 1
 213.333333333 512 170.666666667 512 128 512 c 1
EndSplineSet
EndChar

StartChar: LATIN SMALL LETTER I WITH CIRCUMFLEX
Encoding: 238 238 174
Width: 512
Flags: HW
LayerCount: 2
Fore
SplineSet
128 384 m 1
 128 448 l 1
 320 448 l 1
 320 320 320 192 320 64 c 1
 384 64 l 1
 384 0 l 1
 192 0 l 1
 192 128 192 256 192 384 c 1
 128 384 l 1
64 512 m 1
 64 576 l 1
 128 576 l 1
 128 640 l 1
 192 640 l 1
 192 704 l 1
 234.666666667 704 277.333333333 704 320 704 c 1
 320 640 l 1
 384 640 l 1
 384 576 l 1
 448 576 l 1
 448 512 l 1
 405.333333333 512 362.666666667 512 320 512 c 1
 320 576 l 1
 277.333333333 576 234.666666667 576 192 576 c 1
 192 512 l 1
 149.333333333 512 106.666666667 512 64 512 c 1
EndSplineSet
EndChar

StartChar: LATIN SMALL LETTER I WITH DIAERESIS
Encoding: 239 239 175
Width: 512
Flags: HW
LayerCount: 2
Fore
SplineSet
128 384 m 1
 128 448 l 1
 320 448 l 1
 320 320 320 192 320 64 c 1
 384 64 l 1
 384 0 l 1
 192 0 l 1
 192 128 192 256 192 384 c 1
 128 384 l 1
448 512 m 1
 405.333333333 512 362.666666667 512 320 512 c 1
 320 554.666666667 320 597.333333333 320 640 c 1
 362.666666667 640 405.333333333 640 448 640 c 1
 448 597.333333333 448 554.666666667 448 512 c 1
192 512 m 1
 149.333333333 512 106.666666667 512 64 512 c 1
 64 554.666666667 64 597.333333333 64 640 c 1
 106.666666667 640 149.333333333 640 192 640 c 1
 192 597.333333333 192 554.666666667 192 512 c 1
EndSplineSet
EndChar

StartChar: LATIN SMALL LETTER ETH
Encoding: 240 240 176
Width: 512
Flags: HW
LayerCount: 2
Fore
SplineSet
0 512 m 1
 0 576 l 1
 64 576 l 1
 64 640 l 1
 0 640 l 1
 0 704 l 1
 42.6666666667 704 85.3333333333 704 128 704 c 1
 128 640 l 1
 192 640 l 1
 192 704 l 1
 234.666666667 704 277.333333333 704 320 704 c 1
 320 640 l 1
 256 640 l 1
 256 576 l 1
 320 576 l 1
 320 512 l 1
 384 512 l 1
 384 469.333333333 384 426.666666667 384 384 c 1
 448 384 l 1
 448 64 l 1
 384 64 l 1
 384 0 l 1
 64 0 l 1
 64 64 l 1
 0 64 l 1
 0 384 l 1
 64 384 l 1
 64 448 l 1
 256 448 l 1
 256 512 l 1
 192 512 l 1
 192 576 l 1
 128 576 l 1
 128 512 l 1
 85.3333333333 512 42.6666666667 512 0 512 c 1
128 64 m 1
 320 64 l 1
 320 384 l 1
 128 384 l 1
 128 64 l 1
EndSplineSet
EndChar

StartChar: LATIN SMALL LETTER N WITH TILDE
Encoding: 241 241 177
Width: 512
Flags: HW
LayerCount: 2
Fore
SplineSet
448 0 m 1
 405.333333333 -0 362.666666667 0 320 0 c 1
 320 128 320 256 320 384 c 1
 128 384 l 1
 128 256 128 128 128 0 c 1
 85.3333333333 -0 42.6666666667 0 0 0 c 1
 0 448 l 1
 128 448 256 448 384 448 c 1
 384 384 l 1
 448 384 l 1
 448 256 448 128 448 0 c 1
384 512 m 1
 341.333333333 512 298.666666667 512 256 512 c 1
 256 576 l 1
 213.333333333 576 170.666666667 576 128 576 c 1
 128 512 l 1
 64 512 l 1
 64 554.666666667 64 597.333333333 64 640 c 1
 128 640 l 1
 128 704 l 1
 170.666666667 704 213.333333333 704 256 704 c 1
 256 640 l 1
 298.666666667 640 341.333333333 640 384 640 c 1
 384 704 l 1
 448 704 l 1
 448 661.333333333 448 618.666666667 448 576 c 1
 384 576 l 1
 384 512 l 1
EndSplineSet
EndChar

StartChar: LATIN SMALL LETTER O WITH GRAVE
Encoding: 242 242 178
Width: 512
Flags: HW
LayerCount: 2
Fore
SplineSet
64 640 m 1
 64 704 l 1
 106.666666667 704 149.333333333 704 192 704 c 1
 192 640 l 1
 256 640 l 1
 256 576 l 1
 320 576 l 1
 320 512 l 1
 277.333333333 512 234.666666667 512 192 512 c 1
 192 576 l 1
 128 576 l 1
 128 640 l 1
 64 640 l 1
384 0 m 1
 64 0 l 1
 64 64 l 1
 0 64 l 1
 0 384 l 1
 64 384 l 1
 64 448 l 1
 384 448 l 1
 384 384 l 1
 448 384 l 1
 448 64 l 1
 384 64 l 1
 384 0 l 1
128 64 m 1
 320 64 l 1
 320 384 l 1
 128 384 l 1
 128 64 l 1
EndSplineSet
EndChar

StartChar: LATIN SMALL LETTER O WITH ACUTE
Encoding: 243 243 179
Width: 512
Flags: HW
LayerCount: 2
Fore
SplineSet
128 512 m 1
 128 576 l 1
 192 576 l 1
 192 640 l 1
 256 640 l 1
 256 704 l 1
 298.666666667 704 341.333333333 704 384 704 c 1
 384 640 l 1
 320 640 l 1
 320 576 l 1
 256 576 l 1
 256 512 l 1
 213.333333333 512 170.666666667 512 128 512 c 1
384 0 m 1
 64 0 l 1
 64 64 l 1
 0 64 l 1
 0 384 l 1
 64 384 l 1
 64 448 l 1
 384 448 l 1
 384 384 l 1
 448 384 l 1
 448 64 l 1
 384 64 l 1
 384 0 l 1
128 64 m 1
 320 64 l 1
 320 384 l 1
 128 384 l 1
 128 64 l 1
EndSplineSet
EndChar

StartChar: LATIN SMALL LETTER O WITH CIRCUMFLEX
Encoding: 244 244 180
Width: 512
Flags: HW
LayerCount: 2
Fore
SplineSet
64 512 m 1
 64 576 l 1
 128 576 l 1
 128 640 l 1
 192 640 l 1
 192 704 l 1
 256 704 l 1
 256 640 l 1
 320 640 l 1
 320 576 l 1
 384 576 l 1
 384 512 l 1
 341.333333333 512 298.666666667 512 256 512 c 1
 256 576 l 1
 192 576 l 1
 192 512 l 1
 149.333333333 512 106.666666667 512 64 512 c 1
384 0 m 1
 64 0 l 1
 64 64 l 1
 0 64 l 1
 0 384 l 1
 64 384 l 1
 64 448 l 1
 384 448 l 1
 384 384 l 1
 448 384 l 1
 448 64 l 1
 384 64 l 1
 384 0 l 1
128 64 m 1
 320 64 l 1
 320 384 l 1
 128 384 l 1
 128 64 l 1
EndSplineSet
EndChar

StartChar: LATIN SMALL LETTER O WITH TILDE
Encoding: 245 245 181
Width: 512
Flags: HW
LayerCount: 2
Fore
SplineSet
384 0 m 1
 64 0 l 1
 64 64 l 1
 0 64 l 1
 0 384 l 1
 64 384 l 1
 64 448 l 1
 384 448 l 1
 384 384 l 1
 448 384 l 1
 448 64 l 1
 384 64 l 1
 384 0 l 1
128 64 m 1
 320 64 l 1
 320 384 l 1
 128 384 l 1
 128 64 l 1
384 512 m 1
 341.333333333 512 298.666666667 512 256 512 c 1
 256 576 l 1
 213.333333333 576 170.666666667 576 128 576 c 1
 128 512 l 1
 64 512 l 1
 64 554.666666667 64 597.333333333 64 640 c 1
 128 640 l 1
 128 704 l 1
 170.666666667 704 213.333333333 704 256 704 c 1
 256 640 l 1
 298.666666667 640 341.333333333 640 384 640 c 1
 384 704 l 1
 448 704 l 1
 448 661.333333333 448 618.666666667 448 576 c 1
 384 576 l 1
 384 512 l 1
EndSplineSet
EndChar

StartChar: LATIN SMALL LETTER O WITH DIAERESIS
Encoding: 246 246 182
Width: 512
Flags: HW
LayerCount: 2
Fore
SplineSet
384 0 m 1
 64 0 l 1
 64 64 l 1
 0 64 l 1
 0 384 l 1
 64 384 l 1
 64 448 l 1
 384 448 l 1
 384 384 l 1
 448 384 l 1
 448 64 l 1
 384 64 l 1
 384 0 l 1
128 64 m 1
 320 64 l 1
 320 384 l 1
 128 384 l 1
 128 64 l 1
384 512 m 1
 341.333333333 512 298.666666667 512 256 512 c 1
 256 554.666666667 256 597.333333333 256 640 c 1
 298.666666667 640 341.333333333 640 384 640 c 1
 384 597.333333333 384 554.666666667 384 512 c 1
192 512 m 1
 149.333333333 512 106.666666667 512 64 512 c 1
 64 554.666666667 64 597.333333333 64 640 c 1
 106.666666667 640 149.333333333 640 192 640 c 1
 192 597.333333333 192 554.666666667 192 512 c 1
EndSplineSet
EndChar

StartChar: DIVISION SIGN
Encoding: 247 247 183
Width: 512
Flags: HW
LayerCount: 2
Fore
SplineSet
64 256 m 1
 64 320 l 1
 192 320 320 320 448 320 c 1
 448 256 l 1
 320 256 192 256 64 256 c 1
320 64 m 1
 277.333333333 64 234.666666667 64 192 64 c 1
 192 106.666666667 192 149.333333333 192 192 c 1
 234.666666667 192 277.333333333 192 320 192 c 1
 320 149.333333333 320 106.666666667 320 64 c 1
320 384 m 1
 277.333333333 384 234.666666667 384 192 384 c 1
 192 426.666666667 192 469.333333333 192 512 c 1
 234.666666667 512 277.333333333 512 320 512 c 1
 320 469.333333333 320 426.666666667 320 384 c 1
EndSplineSet
EndChar

StartChar: LATIN SMALL LETTER O WITH STROKE
Encoding: 248 248 184
Width: 512
Flags: HW
LayerCount: 2
Fore
SplineSet
0 -64 m 1
 0 0 l 1
 64 0 l 1
 64 -64 l 1
 0 -64 l 1
384 0 m 1
 64 0 l 1
 64 64 l 1
 0 64 l 1
 0 384 l 1
 64 384 l 1
 64 448 l 1
 384 448 l 1
 384 384 l 1
 448 384 l 1
 448 64 l 1
 384 64 l 1
 384 0 l 1
128 64 m 1
 320 64 l 1
 320 256 l 1
 256 256 l 1
 256 192 l 1
 192 192 l 1
 192 128 l 1
 128 128 l 1
 128 64 l 1
192 192 m 1
 192 256 l 1
 256 256 l 1
 256 320 l 1
 320 320 l 1
 320 384 l 1
 128 384 l 1
 128 192 l 1
 192 192 l 1
384 448 m 1
 384 512 l 1
 448 512 l 1
 448 448 l 1
 384 448 l 1
EndSplineSet
EndChar

StartChar: LATIN SMALL LETTER U WITH GRAVE
Encoding: 249 249 185
Width: 512
Flags: HW
LayerCount: 2
Fore
SplineSet
64 640 m 1
 64 704 l 1
 106.666666667 704 149.333333333 704 192 704 c 1
 192 640 l 1
 256 640 l 1
 256 576 l 1
 320 576 l 1
 320 512 l 1
 277.333333333 512 234.666666667 512 192 512 c 1
 192 576 l 1
 128 576 l 1
 128 640 l 1
 64 640 l 1
448 0 m 1
 320 -0 192 0 64 0 c 1
 64 64 l 1
 0 64 l 1
 -0 192 0 320 0 448 c 1
 42.6666666667 448 85.3333333333 448 128 448 c 1
 128 320 128 192 128 64 c 1
 320 64 l 1
 320 192 320 320 320 448 c 1
 362.666666667 448 405.333333333 448 448 448 c 1
 448 0 l 1
EndSplineSet
EndChar

StartChar: LATIN SMALL LETTER U WITH ACUTE
Encoding: 250 250 186
Width: 512
Flags: HW
LayerCount: 2
Fore
SplineSet
128 512 m 1
 128 576 l 1
 192 576 l 1
 192 640 l 1
 256 640 l 1
 256 704 l 1
 298.666666667 704 341.333333333 704 384 704 c 1
 384 640 l 1
 320 640 l 1
 320 576 l 1
 256 576 l 1
 256 512 l 1
 213.333333333 512 170.666666667 512 128 512 c 1
448 0 m 1
 320 -0 192 0 64 0 c 1
 64 64 l 1
 0 64 l 1
 -0 192 0 320 0 448 c 1
 42.6666666667 448 85.3333333333 448 128 448 c 1
 128 320 128 192 128 64 c 1
 320 64 l 1
 320 192 320 320 320 448 c 1
 362.666666667 448 405.333333333 448 448 448 c 1
 448 0 l 1
EndSplineSet
EndChar

StartChar: LATIN SMALL LETTER U WITH CIRCUMFLEX
Encoding: 251 251 187
Width: 512
Flags: HW
LayerCount: 2
Fore
SplineSet
64 512 m 1
 64 576 l 1
 128 576 l 1
 128 640 l 1
 192 640 l 1
 192 704 l 1
 256 704 l 1
 256 640 l 1
 320 640 l 1
 320 576 l 1
 384 576 l 1
 384 512 l 1
 341.333333333 512 298.666666667 512 256 512 c 1
 256 576 l 1
 192 576 l 1
 192 512 l 1
 149.333333333 512 106.666666667 512 64 512 c 1
448 0 m 1
 320 -0 192 0 64 0 c 1
 64 64 l 1
 0 64 l 1
 -0 192 0 320 0 448 c 1
 42.6666666667 448 85.3333333333 448 128 448 c 1
 128 320 128 192 128 64 c 1
 320 64 l 1
 320 192 320 320 320 448 c 1
 362.666666667 448 405.333333333 448 448 448 c 1
 448 0 l 1
EndSplineSet
EndChar

StartChar: LATIN SMALL LETTER U WITH DIAERESIS
Encoding: 252 252 188
Width: 512
Flags: HW
LayerCount: 2
Fore
SplineSet
448 0 m 1
 320 -0 192 0 64 0 c 1
 64 64 l 1
 0 64 l 1
 -0 192 0 320 0 448 c 1
 42.6666666667 448 85.3333333333 448 128 448 c 1
 128 320 128 192 128 64 c 1
 320 64 l 1
 320 192 320 320 320 448 c 1
 362.666666667 448 405.333333333 448 448 448 c 1
 448 0 l 1
384 512 m 1
 341.333333333 512 298.666666667 512 256 512 c 1
 256 554.666666667 256 597.333333333 256 640 c 1
 298.666666667 640 341.333333333 640 384 640 c 1
 384 597.333333333 384 554.666666667 384 512 c 1
192 512 m 1
 149.333333333 512 106.666666667 512 64 512 c 1
 64 554.666666667 64 597.333333333 64 640 c 1
 106.666666667 640 149.333333333 640 192 640 c 1
 192 597.333333333 192 554.666666667 192 512 c 1
EndSplineSet
EndChar

StartChar: LATIN SMALL LETTER Y WITH ACUTE
Encoding: 253 253 189
Width: 512
Flags: HW
LayerCount: 2
Fore
SplineSet
0 -192 m 1
 0 -128 l 1
 320 -128 l 1
 320 -85.3333333333 320 -42.6666666667 320 0 c 1
 234.666666667 -0 149.333333333 0 64 0 c 1
 64 64 l 1
 0 64 l 1
 -0 192 0 320 0 448 c 1
 42.6666666667 448 85.3333333333 448 128 448 c 1
 128 320 128 192 128 64 c 1
 320 64 l 1
 320 192 320 320 320 448 c 1
 362.666666667 448 405.333333333 448 448 448 c 1
 448 -128 l 1
 384 -128 l 1
 384 -192 l 1
 256 -192 128 -192 0 -192 c 1
128 512 m 1
 128 576 l 1
 192 576 l 1
 192 640 l 1
 256 640 l 1
 256 704 l 1
 298.666666667 704 341.333333333 704 384 704 c 1
 384 640 l 1
 320 640 l 1
 320 576 l 1
 256 576 l 1
 256 512 l 1
 213.333333333 512 170.666666667 512 128 512 c 1
EndSplineSet
EndChar

StartChar: LATIN SMALL LETTER THORN
Encoding: 254 254 190
Width: 512
Flags: HW
LayerCount: 2
Fore
SplineSet
128 -192 m 1
 85.3333333333 -192 42.6666666667 -192 0 -192 c 1
 0 640 l 1
 42.6666666667 640 85.3333333333 640 128 640 c 1
 128 448 l 1
 213.333333333 448 298.666666667 448 384 448 c 1
 384 384 l 1
 448 384 l 1
 448 64 l 1
 384 64 l 1
 384 0 l 1
 298.666666667 -0 213.333333333 0 128 0 c 1
 128 -192 l 1
128 64 m 1
 320 64 l 1
 320 384 l 1
 128 384 l 1
 128 64 l 1
EndSplineSet
EndChar

StartChar: LATIN SMALL LETTER Y WITH DIAERESIS
Encoding: 255 255 191
Width: 512
Flags: HW
LayerCount: 2
Fore
SplineSet
0 -192 m 1
 0 -128 l 1
 320 -128 l 1
 320 -85.3333333333 320 -42.6666666667 320 0 c 1
 234.666666667 -0 149.333333333 0 64 0 c 1
 64 64 l 1
 0 64 l 1
 -0 192 0 320 0 448 c 1
 42.6666666667 448 85.3333333333 448 128 448 c 1
 128 320 128 192 128 64 c 1
 320 64 l 1
 320 192 320 320 320 448 c 1
 362.666666667 448 405.333333333 448 448 448 c 1
 448 -128 l 1
 384 -128 l 1
 384 -192 l 1
 256 -192 128 -192 0 -192 c 1
384 512 m 1
 341.333333333 512 298.666666667 512 256 512 c 1
 256 554.666666667 256 597.333333333 256 640 c 1
 298.666666667 640 341.333333333 640 384 640 c 1
 384 597.333333333 384 554.666666667 384 512 c 1
192 512 m 1
 149.333333333 512 106.666666667 512 64 512 c 1
 64 554.666666667 64 597.333333333 64 640 c 1
 106.666666667 640 149.333333333 640 192 640 c 1
 192 597.333333333 192 554.666666667 192 512 c 1
EndSplineSet
EndChar

StartChar: LATIN CAPITAL LETTER A WITH MACRON
Encoding: 256 256 192
Width: 512
Flags: HW
LayerCount: 2
Fore
SplineSet
64 640 m 1
 64 704 l 1
 384 704 l 1
 384 640 l 1
 64 640 l 1
448 0 m 1
 405.333333333 -0 362.666666667 0 320 0 c 1
 320 85.3333333333 320 170.666666667 320 256 c 1
 128 256 l 1
 128 170.666666667 128 85.3333333333 128 0 c 1
 85.3333333333 -0 42.6666666667 0 0 0 c 1
 -0 170.666666667 0 341.333333333 0 512 c 1
 64 512 l 1
 64 576 l 1
 384 576 l 1
 384 512 l 1
 448 512 l 1
 448 341.333333333 448 170.666666667 448 0 c 1
128 320 m 1
 320 320 l 1
 320 512 l 1
 128 512 l 1
 128 320 l 1
EndSplineSet
EndChar

StartChar: LATIN SMALL LETTER A WITH MACRON
Encoding: 257 257 193
Width: 512
Flags: HW
LayerCount: 2
Fore
SplineSet
64 384 m 1
 64 448 l 1
 384 448 l 1
 384 384 l 1
 448 384 l 1
 448 256 448 128 448 0 c 1
 320 -0 192 0 64 0 c 1
 64 64 l 1
 0 64 l 1
 0 256 l 1
 64 256 l 1
 64 320 l 1
 149.333333333 320 234.666666667 320 320 320 c 1
 320 384 l 1
 234.666666667 384 149.333333333 384 64 384 c 1
64 512 m 1
 64 576 l 1
 384 576 l 1
 384 512 l 1
 64 512 l 1
128 64 m 1
 320 64 l 1
 320 256 l 1
 128 256 l 1
 128 64 l 1
EndSplineSet
EndChar

StartChar: LATIN CAPITAL LETTER A WITH BREVE
Encoding: 258 258 194
Width: 512
Flags: HW
LayerCount: 2
Fore
SplineSet
64 704 m 1
 64 768 l 1
 106.666666667 768 149.333333333 768 192 768 c 1
 192 704 l 1
 256 704 l 1
 256 768 l 1
 298.666666667 768 341.333333333 768 384 768 c 1
 384 704 l 1
 320 704 l 1
 320 640 l 1
 128 640 l 1
 128 704 l 1
 64 704 l 1
448 0 m 1
 405.333333333 -0 362.666666667 0 320 0 c 1
 320 85.3333333333 320 170.666666667 320 256 c 1
 128 256 l 1
 128 170.666666667 128 85.3333333333 128 0 c 1
 85.3333333333 -0 42.6666666667 0 0 0 c 1
 -0 170.666666667 0 341.333333333 0 512 c 1
 64 512 l 1
 64 576 l 1
 384 576 l 1
 384 512 l 1
 448 512 l 1
 448 341.333333333 448 170.666666667 448 0 c 1
128 320 m 1
 320 320 l 1
 320 512 l 1
 128 512 l 1
 128 320 l 1
EndSplineSet
EndChar

StartChar: LATIN SMALL LETTER A WITH BREVE
Encoding: 259 259 195
Width: 512
Flags: HW
LayerCount: 2
Fore
SplineSet
64 384 m 1
 64 448 l 1
 384 448 l 1
 384 384 l 1
 448 384 l 1
 448 256 448 128 448 0 c 1
 320 -0 192 0 64 0 c 1
 64 64 l 1
 0 64 l 1
 0 256 l 1
 64 256 l 1
 64 320 l 1
 149.333333333 320 234.666666667 320 320 320 c 1
 320 384 l 1
 234.666666667 384 149.333333333 384 64 384 c 1
128 64 m 1
 320 64 l 1
 320 256 l 1
 128 256 l 1
 128 64 l 1
320 512 m 1
 128 512 l 1
 128 576 l 1
 64 576 l 1
 64 618.666666667 64 661.333333333 64 704 c 1
 106.666666667 704 149.333333333 704 192 704 c 1
 192 661.333333333 192 618.666666667 192 576 c 1
 256 576 l 1
 256 618.666666667 256 661.333333333 256 704 c 1
 298.666666667 704 341.333333333 704 384 704 c 1
 384 661.333333333 384 618.666666667 384 576 c 1
 320 576 l 1
 320 512 l 1
EndSplineSet
EndChar

StartChar: LATIN CAPITAL LETTER A WITH OGONEK
Encoding: 260 260 196
Width: 512
Flags: HW
LayerCount: 2
Fore
SplineSet
448 -192 m 1
 405.333333333 -192 362.666666667 -192 320 -192 c 1
 320 -128 l 1
 362.666666667 -128 405.333333333 -128 448 -128 c 1
 448 -192 l 1
320 -128 m 1
 256 -128 l 1
 256 -85.3333333333 256 -42.6666666667 256 0 c 1
 320 0 l 1
 320 320 l 1
 128 320 l 1
 128 0 l 1
 85.3333333333 -0 42.6666666667 0 0 0 c 1
 0 576 l 1
 64 576 l 1
 64 640 l 1
 384 640 l 1
 384 576 l 1
 448 576 l 1
 448 0 l 1
 384 0 l 1
 384 -64 l 1
 320 -64 l 1
 320 -128 l 1
128 384 m 1
 320 384 l 1
 320 576 l 1
 128 576 l 1
 128 384 l 1
EndSplineSet
EndChar

StartChar: LATIN SMALL LETTER A WITH OGONEK
Encoding: 261 261 197
Width: 512
Flags: HW
LayerCount: 2
Fore
SplineSet
64 384 m 1
 64 448 l 1
 384 448 l 1
 384 384 l 1
 448 384 l 1
 448 256 448 128 448 0 c 1
 384 0 l 1
 384 -64 l 1
 320 -64 l 1
 320 -128 l 1
 362.666666667 -128 405.333333333 -128 448 -128 c 1
 448 -192 l 1
 405.333333333 -192 362.666666667 -192 320 -192 c 1
 320 -128 l 1
 256 -128 l 1
 256 -85.3333333333 256 -42.6666666667 256 0 c 1
 64 0 l 1
 64 64 l 1
 0 64 l 1
 0 256 l 1
 64 256 l 1
 64 320 l 1
 149.333333333 320 234.666666667 320 320 320 c 1
 320 384 l 1
 234.666666667 384 149.333333333 384 64 384 c 1
128 64 m 1
 320 64 l 1
 320 256 l 1
 128 256 l 1
 128 64 l 1
EndSplineSet
EndChar

StartChar: LATIN CAPITAL LETTER C WITH ACUTE
Encoding: 262 262 198
Width: 512
Flags: HW
LayerCount: 2
Fore
SplineSet
128 640 m 1
 128 704 l 1
 192 704 l 1
 192 768 l 1
 234.666666667 768 277.333333333 768 320 768 c 1
 320 704 l 1
 256 704 l 1
 256 640 l 1
 213.333333333 640 170.666666667 640 128 640 c 1
448 0 m 1
 320 -0 192 0 64 0 c 1
 64 64 l 1
 0 64 l 1
 0 512 l 1
 64 512 l 1
 64 576 l 1
 192 576 320 576 448 576 c 1
 448 512 l 1
 128 512 l 1
 128 64 l 1
 448 64 l 1
 448 0 l 1
EndSplineSet
EndChar

StartChar: LATIN SMALL LETTER C WITH ACUTE
Encoding: 263 263 199
Width: 512
Flags: HW
LayerCount: 2
Fore
SplineSet
128 512 m 1
 128 576 l 1
 192 576 l 1
 192 640 l 1
 256 640 l 1
 256 704 l 1
 298.666666667 704 341.333333333 704 384 704 c 1
 384 640 l 1
 320 640 l 1
 320 576 l 1
 256 576 l 1
 256 512 l 1
 213.333333333 512 170.666666667 512 128 512 c 1
448 0 m 1
 320 -0 192 0 64 0 c 1
 64 64 l 1
 0 64 l 1
 0 384 l 1
 64 384 l 1
 64 448 l 1
 192 448 320 448 448 448 c 1
 448 384 l 1
 128 384 l 1
 128 64 l 1
 448 64 l 1
 448 0 l 1
EndSplineSet
EndChar

StartChar: LATIN CAPITAL LETTER C WITH CIRCUMFLEX
Encoding: 264 264 200
Width: 512
Flags: HW
LayerCount: 2
Fore
SplineSet
64 640 m 1
 64 704 l 1
 128 704 l 1
 128 768 l 1
 320 768 l 1
 320 704 l 1
 384 704 l 1
 384 640 l 1
 341.333333333 640 298.666666667 640 256 640 c 1
 256 704 l 1
 192 704 l 1
 192 640 l 1
 149.333333333 640 106.666666667 640 64 640 c 1
448 0 m 1
 320 -0 192 0 64 0 c 1
 64 64 l 1
 0 64 l 1
 0 512 l 1
 64 512 l 1
 64 576 l 1
 192 576 320 576 448 576 c 1
 448 512 l 1
 128 512 l 1
 128 64 l 1
 448 64 l 1
 448 0 l 1
EndSplineSet
EndChar

StartChar: LATIN SMALL LETTER C WITH CIRCUMFLEX
Encoding: 265 265 201
Width: 512
Flags: HW
LayerCount: 2
Fore
SplineSet
64 512 m 1
 64 576 l 1
 128 576 l 1
 128 640 l 1
 192 640 l 1
 192 704 l 1
 256 704 l 1
 256 640 l 1
 320 640 l 1
 320 576 l 1
 384 576 l 1
 384 512 l 1
 341.333333333 512 298.666666667 512 256 512 c 1
 256 576 l 1
 192 576 l 1
 192 512 l 1
 149.333333333 512 106.666666667 512 64 512 c 1
448 0 m 1
 320 -0 192 0 64 0 c 1
 64 64 l 1
 0 64 l 1
 0 384 l 1
 64 384 l 1
 64 448 l 1
 192 448 320 448 448 448 c 1
 448 384 l 1
 128 384 l 1
 128 64 l 1
 448 64 l 1
 448 0 l 1
EndSplineSet
EndChar

StartChar: LATIN CAPITAL LETTER C WITH DOT ABOVE
Encoding: 266 266 202
Width: 512
Flags: HW
LayerCount: 2
Fore
SplineSet
448 0 m 1
 320 -0 192 0 64 0 c 1
 64 64 l 1
 0 64 l 1
 0 512 l 1
 64 512 l 1
 64 576 l 1
 192 576 320 576 448 576 c 1
 448 512 l 1
 128 512 l 1
 128 64 l 1
 448 64 l 1
 448 0 l 1
320 640 m 1
 277.333333333 640 234.666666667 640 192 640 c 1
 192 682.666666667 192 725.333333333 192 768 c 1
 234.666666667 768 277.333333333 768 320 768 c 1
 320 725.333333333 320 682.666666667 320 640 c 1
EndSplineSet
EndChar

StartChar: LATIN SMALL LETTER C WITH DOT ABOVE
Encoding: 267 267 203
Width: 512
Flags: HW
LayerCount: 2
Fore
SplineSet
448 0 m 1
 320 -0 192 0 64 0 c 1
 64 64 l 1
 0 64 l 1
 0 384 l 1
 64 384 l 1
 64 448 l 1
 192 448 320 448 448 448 c 1
 448 384 l 1
 128 384 l 1
 128 64 l 1
 448 64 l 1
 448 0 l 1
320 512 m 1
 277.333333333 512 234.666666667 512 192 512 c 1
 192 554.666666667 192 597.333333333 192 640 c 1
 234.666666667 640 277.333333333 640 320 640 c 1
 320 597.333333333 320 554.666666667 320 512 c 1
EndSplineSet
EndChar

StartChar: LATIN CAPITAL LETTER C WITH CARON
Encoding: 268 268 204
Width: 512
Flags: HW
LayerCount: 2
Fore
SplineSet
64 704 m 1
 64 768 l 1
 106.666666667 768 149.333333333 768 192 768 c 1
 192 704 l 1
 256 704 l 1
 256 768 l 1
 298.666666667 768 341.333333333 768 384 768 c 1
 384 704 l 1
 320 704 l 1
 320 640 l 1
 256 640 l 1
 256 576 l 1
 448 576 l 1
 448 512 l 1
 128 512 l 1
 128 64 l 1
 448 64 l 1
 448 0 l 1
 320 -0 192 0 64 0 c 1
 64 64 l 1
 0 64 l 1
 0 512 l 1
 64 512 l 1
 64 576 l 1
 106.666666667 576 149.333333333 576 192 576 c 1
 192 640 l 1
 128 640 l 1
 128 704 l 1
 64 704 l 1
EndSplineSet
EndChar

StartChar: LATIN SMALL LETTER C WITH CARON
Encoding: 269 269 205
Width: 512
Flags: HW
LayerCount: 2
Fore
SplineSet
64 640 m 1
 64 704 l 1
 106.666666667 704 149.333333333 704 192 704 c 1
 192 640 l 1
 256 640 l 1
 256 704 l 1
 298.666666667 704 341.333333333 704 384 704 c 1
 384 640 l 1
 320 640 l 1
 320 576 l 1
 256 576 l 1
 256 512 l 1
 192 512 l 1
 192 576 l 1
 128 576 l 1
 128 640 l 1
 64 640 l 1
448 0 m 1
 320 -0 192 0 64 0 c 1
 64 64 l 1
 0 64 l 1
 0 384 l 1
 64 384 l 1
 64 448 l 1
 192 448 320 448 448 448 c 1
 448 384 l 1
 128 384 l 1
 128 64 l 1
 448 64 l 1
 448 0 l 1
EndSplineSet
EndChar

StartChar: LATIN CAPITAL LETTER D WITH CARON
Encoding: 270 270 206
Width: 512
Flags: HW
LayerCount: 2
Fore
SplineSet
64 704 m 1
 64 768 l 1
 106.666666667 768 149.333333333 768 192 768 c 1
 192 704 l 1
 256 704 l 1
 256 768 l 1
 298.666666667 768 341.333333333 768 384 768 c 1
 384 704 l 1
 320 704 l 1
 320 640 l 1
 256 640 l 1
 256 576 l 1
 298.666666667 576 341.333333333 576 384 576 c 1
 384 512 l 1
 448 512 l 1
 448 64 l 1
 384 64 l 1
 384 0 l 1
 256 -0 128 0 0 0 c 1
 0 576 l 1
 192 576 l 1
 192 640 l 1
 128 640 l 1
 128 704 l 1
 64 704 l 1
128 64 m 1
 320 64 l 1
 320 512 l 1
 128 512 l 1
 128 64 l 1
EndSplineSet
EndChar

StartChar: LATIN SMALL LETTER D WITH CARON
Encoding: 271 271 207
Width: 512
Flags: HW
LayerCount: 2
Fore
SplineSet
64 704 m 1
 64 768 l 1
 106.666666667 768 149.333333333 768 192 768 c 1
 192 704 l 1
 256 704 l 1
 256 768 l 1
 298.666666667 768 341.333333333 768 384 768 c 1
 384 704 l 1
 320 704 l 1
 320 640 l 1
 362.666666667 640 405.333333333 640 448 640 c 1
 448 426.666666667 448 213.333333333 448 0 c 1
 320 -0 192 0 64 0 c 1
 64 64 l 1
 0 64 l 1
 0 384 l 1
 64 384 l 1
 64 448 l 1
 149.333333333 448 234.666666667 448 320 448 c 1
 320 640 l 1
 256 640 l 1
 256 576 l 1
 192 576 l 1
 192 640 l 1
 128 640 l 1
 128 704 l 1
 64 704 l 1
128 64 m 1
 320 64 l 1
 320 384 l 1
 128 384 l 1
 128 64 l 1
EndSplineSet
EndChar

StartChar: LATIN CAPITAL LETTER D WITH STROKE
Encoding: 272 272 208
Width: 512
Flags: HW
LayerCount: 2
Fore
SplineSet
0 320 m 1
 0 384 l 1
 64 384 l 1
 64 469.333333333 64 554.666666667 64 640 c 1
 384 640 l 1
 384 576 l 1
 448 576 l 1
 448 405.333333333 448 234.666666667 448 64 c 1
 384 64 l 1
 384 0 l 1
 64 0 l 1
 64 320 l 1
 0 320 l 1
192 64 m 1
 234.666666667 64 277.333333333 64 320 64 c 1
 320 234.666666667 320 405.333333333 320 576 c 1
 277.333333333 576 234.666666667 576 192 576 c 1
 192 384 l 1
 256 384 l 1
 256 320 l 1
 192 320 l 1
 192 234.666666667 192 149.333333333 192 64 c 1
EndSplineSet
EndChar

StartChar: LATIN SMALL LETTER D WITH STROKE
Encoding: 273 273 209
Width: 512
Flags: HW
LayerCount: 2
Fore
SplineSet
192 512 m 1
 192 576 l 1
 234.666666667 576 277.333333333 576 320 576 c 1
 320 640 l 1
 362.666666667 640 405.333333333 640 448 640 c 1
 448 576 l 1
 512 576 l 1
 512 512 l 1
 448 512 l 1
 448 341.333333333 448 170.666666667 448 0 c 1
 320 -0 192 0 64 0 c 1
 64 64 l 1
 0 64 l 1
 0 384 l 1
 64 384 l 1
 64 448 l 1
 149.333333333 448 234.666666667 448 320 448 c 1
 320 512 l 1
 277.333333333 512 234.666666667 512 192 512 c 1
128 64 m 1
 320 64 l 1
 320 384 l 1
 128 384 l 1
 128 64 l 1
EndSplineSet
EndChar

StartChar: LATIN CAPITAL LETTER E WITH MACRON
Encoding: 274 274 210
Width: 512
Flags: HW
LayerCount: 2
Fore
SplineSet
64 640 m 1
 64 704 l 1
 384 704 l 1
 384 640 l 1
 64 640 l 1
448 0 m 1
 320 -0 192 0 64 0 c 1
 64 64 l 1
 0 64 l 1
 0 512 l 1
 64 512 l 1
 64 576 l 1
 192 576 320 576 448 576 c 1
 448 512 l 1
 128 512 l 1
 128 320 l 1
 320 320 l 1
 320 256 l 1
 128 256 l 1
 128 64 l 1
 448 64 l 1
 448 0 l 1
EndSplineSet
EndChar

StartChar: LATIN SMALL LETTER E WITH MACRON
Encoding: 275 275 211
Width: 512
Flags: HW
LayerCount: 2
Fore
SplineSet
64 512 m 1
 64 576 l 1
 384 576 l 1
 384 512 l 1
 64 512 l 1
448 0 m 1
 320 -0 192 0 64 0 c 1
 64 64 l 1
 0 64 l 1
 0 384 l 1
 64 384 l 1
 64 448 l 1
 192 448 320 448 448 448 c 1
 448 362.666666667 448 277.333333333 448 192 c 1
 128 192 l 1
 128 149.333333333 128 106.666666667 128 64 c 1
 448 64 l 1
 448 0 l 1
128 256 m 1
 320 256 l 1
 320 298.666666667 320 341.333333333 320 384 c 1
 128 384 l 1
 128 341.333333333 128 298.666666667 128 256 c 1
EndSplineSet
EndChar

StartChar: LATIN CAPITAL LETTER E WITH BREVE
Encoding: 276 276 212
Width: 512
Flags: HW
LayerCount: 2
Fore
SplineSet
64 704 m 1
 64 768 l 1
 106.666666667 768 149.333333333 768 192 768 c 1
 192 704 l 1
 256 704 l 1
 256 768 l 1
 298.666666667 768 341.333333333 768 384 768 c 1
 384 704 l 1
 320 704 l 1
 320 640 l 1
 128 640 l 1
 128 704 l 1
 64 704 l 1
448 0 m 1
 320 -0 192 0 64 0 c 1
 64 64 l 1
 0 64 l 1
 0 512 l 1
 64 512 l 1
 64 576 l 1
 192 576 320 576 448 576 c 1
 448 512 l 1
 128 512 l 1
 128 320 l 1
 320 320 l 1
 320 256 l 1
 128 256 l 1
 128 64 l 1
 448 64 l 1
 448 0 l 1
EndSplineSet
EndChar

StartChar: LATIN SMALL LETTER E WITH BREVE
Encoding: 277 277 213
Width: 512
Flags: HW
LayerCount: 2
Fore
SplineSet
448 0 m 1
 320 -0 192 0 64 0 c 1
 64 64 l 1
 0 64 l 1
 0 384 l 1
 64 384 l 1
 64 448 l 1
 192 448 320 448 448 448 c 1
 448 362.666666667 448 277.333333333 448 192 c 1
 128 192 l 1
 128 149.333333333 128 106.666666667 128 64 c 1
 448 64 l 1
 448 0 l 1
128 256 m 1
 320 256 l 1
 320 298.666666667 320 341.333333333 320 384 c 1
 128 384 l 1
 128 341.333333333 128 298.666666667 128 256 c 1
320 512 m 1
 128 512 l 1
 128 576 l 1
 64 576 l 1
 64 618.666666667 64 661.333333333 64 704 c 1
 106.666666667 704 149.333333333 704 192 704 c 1
 192 661.333333333 192 618.666666667 192 576 c 1
 256 576 l 1
 256 618.666666667 256 661.333333333 256 704 c 1
 298.666666667 704 341.333333333 704 384 704 c 1
 384 661.333333333 384 618.666666667 384 576 c 1
 320 576 l 1
 320 512 l 1
EndSplineSet
EndChar

StartChar: LATIN CAPITAL LETTER E WITH DOT ABOVE
Encoding: 278 278 214
Width: 512
Flags: HW
LayerCount: 2
Fore
SplineSet
448 0 m 1
 320 -0 192 0 64 0 c 1
 64 64 l 1
 0 64 l 1
 0 512 l 1
 64 512 l 1
 64 576 l 1
 192 576 320 576 448 576 c 1
 448 512 l 1
 128 512 l 1
 128 320 l 1
 320 320 l 1
 320 256 l 1
 128 256 l 1
 128 64 l 1
 448 64 l 1
 448 0 l 1
320 640 m 1
 277.333333333 640 234.666666667 640 192 640 c 1
 192 682.666666667 192 725.333333333 192 768 c 1
 234.666666667 768 277.333333333 768 320 768 c 1
 320 725.333333333 320 682.666666667 320 640 c 1
EndSplineSet
EndChar

StartChar: LATIN SMALL LETTER E WITH DOT ABOVE
Encoding: 279 279 215
Width: 512
Flags: HW
LayerCount: 2
Fore
SplineSet
448 0 m 1
 320 -0 192 0 64 0 c 1
 64 64 l 1
 0 64 l 1
 0 384 l 1
 64 384 l 1
 64 448 l 1
 192 448 320 448 448 448 c 1
 448 362.666666667 448 277.333333333 448 192 c 1
 128 192 l 1
 128 149.333333333 128 106.666666667 128 64 c 1
 448 64 l 1
 448 0 l 1
128 256 m 1
 320 256 l 1
 320 298.666666667 320 341.333333333 320 384 c 1
 128 384 l 1
 128 341.333333333 128 298.666666667 128 256 c 1
320 512 m 1
 277.333333333 512 234.666666667 512 192 512 c 1
 192 554.666666667 192 597.333333333 192 640 c 1
 234.666666667 640 277.333333333 640 320 640 c 1
 320 597.333333333 320 554.666666667 320 512 c 1
EndSplineSet
EndChar

StartChar: LATIN CAPITAL LETTER E WITH OGONEK
Encoding: 280 280 216
Width: 512
Flags: HW
LayerCount: 2
Fore
SplineSet
448 -192 m 1
 405.333333333 -192 362.666666667 -192 320 -192 c 1
 320 -128 l 1
 362.666666667 -128 405.333333333 -128 448 -128 c 1
 448 -192 l 1
320 -128 m 1
 256 -128 l 1
 256 -85.3333333333 256 -42.6666666667 256 0 c 1
 64 0 l 1
 64 64 l 1
 0 64 l 1
 -0 234.666666667 0 405.333333333 0 576 c 1
 64 576 l 1
 64 640 l 1
 192 640 320 640 448 640 c 1
 448 576 l 1
 128 576 l 1
 128 384 l 1
 320 384 l 1
 320 320 l 1
 128 320 l 1
 128 234.666666667 128 149.333333333 128 64 c 1
 448 64 l 1
 448 0 l 1
 384 0 l 1
 384 -64 l 1
 320 -64 l 1
 320 -128 l 1
EndSplineSet
EndChar

StartChar: LATIN SMALL LETTER E WITH OGONEK
Encoding: 281 281 217
Width: 512
Flags: HW
LayerCount: 2
Fore
SplineSet
448 -192 m 1
 405.333333333 -192 362.666666667 -192 320 -192 c 1
 320 -128 l 1
 362.666666667 -128 405.333333333 -128 448 -128 c 1
 448 -192 l 1
320 -128 m 1
 256 -128 l 1
 256 -85.3333333333 256 -42.6666666667 256 0 c 1
 64 0 l 1
 64 64 l 1
 0 64 l 1
 0 384 l 1
 64 384 l 1
 64 448 l 1
 192 448 320 448 448 448 c 1
 448 362.666666667 448 277.333333333 448 192 c 1
 128 192 l 1
 128 149.333333333 128 106.666666667 128 64 c 1
 448 64 l 1
 448 0 l 1
 384 0 l 1
 384 -64 l 1
 320 -64 l 1
 320 -128 l 1
128 256 m 1
 320 256 l 1
 320 298.666666667 320 341.333333333 320 384 c 1
 128 384 l 1
 128 341.333333333 128 298.666666667 128 256 c 1
EndSplineSet
EndChar

StartChar: LATIN CAPITAL LETTER E WITH CARON
Encoding: 282 282 218
Width: 512
Flags: HW
LayerCount: 2
Fore
SplineSet
64 704 m 1
 64 768 l 1
 106.666666667 768 149.333333333 768 192 768 c 1
 192 704 l 1
 256 704 l 1
 256 768 l 1
 298.666666667 768 341.333333333 768 384 768 c 1
 384 704 l 1
 320 704 l 1
 320 640 l 1
 256 640 l 1
 256 576 l 1
 448 576 l 1
 448 512 l 1
 128 512 l 1
 128 320 l 1
 320 320 l 1
 320 256 l 1
 128 256 l 1
 128 64 l 1
 448 64 l 1
 448 0 l 1
 320 -0 192 0 64 0 c 1
 64 64 l 1
 0 64 l 1
 0 512 l 1
 64 512 l 1
 64 576 l 1
 106.666666667 576 149.333333333 576 192 576 c 1
 192 640 l 1
 128 640 l 1
 128 704 l 1
 64 704 l 1
EndSplineSet
EndChar

StartChar: LATIN SMALL LETTER E WITH CARON
Encoding: 283 283 219
Width: 512
Flags: HW
LayerCount: 2
Fore
SplineSet
64 640 m 1
 64 704 l 1
 106.666666667 704 149.333333333 704 192 704 c 1
 192 640 l 1
 256 640 l 1
 256 704 l 1
 298.666666667 704 341.333333333 704 384 704 c 1
 384 640 l 1
 320 640 l 1
 320 576 l 1
 256 576 l 1
 256 512 l 1
 192 512 l 1
 192 576 l 1
 128 576 l 1
 128 640 l 1
 64 640 l 1
448 0 m 1
 320 -0 192 0 64 0 c 1
 64 64 l 1
 0 64 l 1
 0 384 l 1
 64 384 l 1
 64 448 l 1
 192 448 320 448 448 448 c 1
 448 362.666666667 448 277.333333333 448 192 c 1
 128 192 l 1
 128 149.333333333 128 106.666666667 128 64 c 1
 448 64 l 1
 448 0 l 1
128 256 m 1
 320 256 l 1
 320 298.666666667 320 341.333333333 320 384 c 1
 128 384 l 1
 128 341.333333333 128 298.666666667 128 256 c 1
EndSplineSet
EndChar

StartChar: LATIN CAPITAL LETTER G WITH CIRCUMFLEX
Encoding: 284 284 220
Width: 512
Flags: HW
LayerCount: 2
Fore
SplineSet
192 256 m 1
 192 320 l 1
 277.333333333 320 362.666666667 320 448 320 c 1
 448 0 l 1
 320 -0 192 0 64 0 c 1
 64 64 l 1
 0 64 l 1
 0 512 l 1
 64 512 l 1
 64 576 l 1
 192 576 320 576 448 576 c 1
 448 512 l 1
 128 512 l 1
 128 64 l 1
 320 64 l 1
 320 256 l 1
 277.333333333 256 234.666666667 256 192 256 c 1
64 640 m 1
 64 704 l 1
 128 704 l 1
 128 768 l 1
 320 768 l 1
 320 704 l 1
 384 704 l 1
 384 640 l 1
 341.333333333 640 298.666666667 640 256 640 c 1
 256 704 l 1
 192 704 l 1
 192 640 l 1
 149.333333333 640 106.666666667 640 64 640 c 1
EndSplineSet
EndChar

StartChar: LATIN SMALL LETTER G WITH CIRCUMFLEX
Encoding: 285 285 221
Width: 512
Flags: HW
LayerCount: 2
Fore
SplineSet
0 -192 m 1
 0 -128 l 1
 320 -128 l 1
 320 -85.3333333333 320 -42.6666666667 320 0 c 1
 234.666666667 -0 149.333333333 0 64 0 c 1
 64 64 l 1
 0 64 l 1
 0 384 l 1
 64 384 l 1
 64 448 l 1
 192 448 320 448 448 448 c 1
 448 320 448 192 448 64 c 1
 384 64 l 1
 384 0 l 1
 448 0 l 1
 448 -42.6666666667 448 -85.3333333333 448 -128 c 1
 384 -128 l 1
 384 -192 l 1
 256 -192 128 -192 0 -192 c 1
64 512 m 1
 64 576 l 1
 128 576 l 1
 128 640 l 1
 192 640 l 1
 192 704 l 1
 256 704 l 1
 256 640 l 1
 320 640 l 1
 320 576 l 1
 384 576 l 1
 384 512 l 1
 341.333333333 512 298.666666667 512 256 512 c 1
 256 576 l 1
 192 576 l 1
 192 512 l 1
 149.333333333 512 106.666666667 512 64 512 c 1
128 64 m 1
 320 64 l 1
 320 384 l 1
 128 384 l 1
 128 64 l 1
EndSplineSet
EndChar

StartChar: LATIN CAPITAL LETTER G WITH BREVE
Encoding: 286 286 222
Width: 512
Flags: HW
LayerCount: 2
Fore
SplineSet
192 256 m 1
 192 320 l 1
 277.333333333 320 362.666666667 320 448 320 c 1
 448 0 l 1
 320 -0 192 0 64 0 c 1
 64 64 l 1
 0 64 l 1
 0 512 l 1
 64 512 l 1
 64 576 l 1
 192 576 320 576 448 576 c 1
 448 512 l 1
 128 512 l 1
 128 64 l 1
 320 64 l 1
 320 256 l 1
 277.333333333 256 234.666666667 256 192 256 c 1
64 704 m 1
 64 768 l 1
 106.666666667 768 149.333333333 768 192 768 c 1
 192 704 l 1
 256 704 l 1
 256 768 l 1
 298.666666667 768 341.333333333 768 384 768 c 1
 384 704 l 1
 320 704 l 1
 320 640 l 1
 128 640 l 1
 128 704 l 1
 64 704 l 1
EndSplineSet
EndChar

StartChar: LATIN SMALL LETTER G WITH BREVE
Encoding: 287 287 223
Width: 512
Flags: HW
LayerCount: 2
Fore
SplineSet
0 -192 m 1
 0 -128 l 1
 320 -128 l 1
 320 -85.3333333333 320 -42.6666666667 320 0 c 1
 234.666666667 -0 149.333333333 0 64 0 c 1
 64 64 l 1
 0 64 l 1
 0 384 l 1
 64 384 l 1
 64 448 l 1
 192 448 320 448 448 448 c 1
 448 320 448 192 448 64 c 1
 384 64 l 1
 384 0 l 1
 448 0 l 1
 448 -42.6666666667 448 -85.3333333333 448 -128 c 1
 384 -128 l 1
 384 -192 l 1
 256 -192 128 -192 0 -192 c 1
128 64 m 1
 320 64 l 1
 320 384 l 1
 128 384 l 1
 128 64 l 1
320 512 m 1
 128 512 l 1
 128 576 l 1
 64 576 l 1
 64 618.666666667 64 661.333333333 64 704 c 1
 106.666666667 704 149.333333333 704 192 704 c 1
 192 661.333333333 192 618.666666667 192 576 c 1
 256 576 l 1
 256 618.666666667 256 661.333333333 256 704 c 1
 298.666666667 704 341.333333333 704 384 704 c 1
 384 661.333333333 384 618.666666667 384 576 c 1
 320 576 l 1
 320 512 l 1
EndSplineSet
EndChar

StartChar: LATIN CAPITAL LETTER G WITH DOT ABOVE
Encoding: 288 288 224
Width: 512
Flags: HW
LayerCount: 2
Fore
SplineSet
192 256 m 1
 192 320 l 1
 277.333333333 320 362.666666667 320 448 320 c 1
 448 0 l 1
 320 -0 192 0 64 0 c 1
 64 64 l 1
 0 64 l 1
 0 512 l 1
 64 512 l 1
 64 576 l 1
 192 576 320 576 448 576 c 1
 448 512 l 1
 128 512 l 1
 128 64 l 1
 320 64 l 1
 320 256 l 1
 277.333333333 256 234.666666667 256 192 256 c 1
320 640 m 1
 277.333333333 640 234.666666667 640 192 640 c 1
 192 682.666666667 192 725.333333333 192 768 c 1
 234.666666667 768 277.333333333 768 320 768 c 1
 320 725.333333333 320 682.666666667 320 640 c 1
EndSplineSet
EndChar

StartChar: LATIN SMALL LETTER G WITH DOT ABOVE
Encoding: 289 289 225
Width: 512
Flags: HW
LayerCount: 2
Fore
SplineSet
0 -192 m 1
 0 -128 l 1
 320 -128 l 1
 320 -85.3333333333 320 -42.6666666667 320 0 c 1
 234.666666667 -0 149.333333333 0 64 0 c 1
 64 64 l 1
 0 64 l 1
 0 384 l 1
 64 384 l 1
 64 448 l 1
 192 448 320 448 448 448 c 1
 448 320 448 192 448 64 c 1
 384 64 l 1
 384 0 l 1
 448 0 l 1
 448 -42.6666666667 448 -85.3333333333 448 -128 c 1
 384 -128 l 1
 384 -192 l 1
 256 -192 128 -192 0 -192 c 1
128 64 m 1
 320 64 l 1
 320 384 l 1
 128 384 l 1
 128 64 l 1
320 512 m 1
 277.333333333 512 234.666666667 512 192 512 c 1
 192 554.666666667 192 597.333333333 192 640 c 1
 234.666666667 640 277.333333333 640 320 640 c 1
 320 597.333333333 320 554.666666667 320 512 c 1
EndSplineSet
EndChar

StartChar: LATIN CAPITAL LETTER G WITH CEDILLA
Encoding: 290 290 226
Width: 512
Flags: HW
LayerCount: 2
Fore
SplineSet
128 -192 m 1
 128 -128 l 1
 192 -128 l 1
 192 -85.3333333333 192 -42.6666666667 192 0 c 1
 149.333333333 -0 106.666666667 0 64 0 c 1
 64 64 l 1
 0 64 l 1
 -0 234.666666667 0 405.333333333 0 576 c 1
 64 576 l 1
 64 640 l 1
 192 640 320 640 448 640 c 1
 448 576 l 1
 128 576 l 1
 128 405.333333333 128 234.666666667 128 64 c 1
 320 64 l 1
 320 149.333333333 320 234.666666667 320 320 c 1
 277.333333333 320 234.666666667 320 192 320 c 1
 192 384 l 1
 277.333333333 384 362.666666667 384 448 384 c 1
 448 256 448 128 448 0 c 1
 405.333333333 -0 362.666666667 0 320 0 c 1
 320 -42.6666666667 320 -85.3333333333 320 -128 c 1
 256 -128 l 1
 256 -192 l 1
 213.333333333 -192 170.666666667 -192 128 -192 c 1
EndSplineSet
EndChar

StartChar: LATIN SMALL LETTER G WITH CEDILLA
Encoding: 291 291 227
Width: 512
Flags: HW
LayerCount: 2
Fore
SplineSet
0 -192 m 1
 0 -128 l 1
 320 -128 l 1
 320 -85.3333333333 320 -42.6666666667 320 0 c 1
 234.666666667 -0 149.333333333 0 64 0 c 1
 64 64 l 1
 0 64 l 1
 0 384 l 1
 64 384 l 1
 64 448 l 1
 192 448 320 448 448 448 c 1
 448 320 448 192 448 64 c 1
 384 64 l 1
 384 0 l 1
 448 0 l 1
 448 -42.6666666667 448 -85.3333333333 448 -128 c 1
 384 -128 l 1
 384 -192 l 1
 256 -192 128 -192 0 -192 c 1
128 512 m 1
 128 576 l 1
 192 576 l 1
 192 618.666666667 192 661.333333333 192 704 c 1
 234.666666667 704 277.333333333 704 320 704 c 1
 320 661.333333333 320 618.666666667 320 576 c 1
 256 576 l 1
 256 512 l 1
 213.333333333 512 170.666666667 512 128 512 c 1
128 64 m 1
 320 64 l 1
 320 384 l 1
 128 384 l 1
 128 64 l 1
EndSplineSet
EndChar

StartChar: LATIN CAPITAL LETTER H WITH CIRCUMFLEX
Encoding: 292 292 228
Width: 512
Flags: HW
LayerCount: 2
Fore
SplineSet
64 640 m 1
 64 704 l 1
 128 704 l 1
 128 768 l 1
 320 768 l 1
 320 704 l 1
 384 704 l 1
 384 640 l 1
 341.333333333 640 298.666666667 640 256 640 c 1
 256 704 l 1
 192 704 l 1
 192 640 l 1
 149.333333333 640 106.666666667 640 64 640 c 1
448 0 m 1
 405.333333333 -0 362.666666667 0 320 0 c 1
 320 85.3333333333 320 170.666666667 320 256 c 1
 128 256 l 1
 128 170.666666667 128 85.3333333333 128 0 c 1
 85.3333333333 -0 42.6666666667 0 0 0 c 1
 0 576 l 1
 42.6666666667 576 85.3333333333 576 128 576 c 1
 128 490.666666667 128 405.333333333 128 320 c 1
 320 320 l 1
 320 405.333333333 320 490.666666667 320 576 c 1
 362.666666667 576 405.333333333 576 448 576 c 1
 448 0 l 1
EndSplineSet
EndChar

StartChar: LATIN SMALL LETTER H WITH CIRCUMFLEX
Encoding: 293 293 229
Width: 512
Flags: HW
LayerCount: 2
Fore
SplineSet
64 640 m 1
 64 704 l 1
 128 704 l 1
 128 768 l 1
 320 768 l 1
 320 704 l 1
 384 704 l 1
 384 640 l 1
 341.333333333 640 298.666666667 640 256 640 c 1
 256 704 l 1
 192 704 l 1
 192 640 l 1
 149.333333333 640 106.666666667 640 64 640 c 1
448 0 m 1
 405.333333333 -0 362.666666667 0 320 0 c 1
 320 320 l 1
 128 320 l 1
 128 0 l 1
 85.3333333333 -0 42.6666666667 0 0 0 c 1
 0 576 l 1
 42.6666666667 576 85.3333333333 576 128 576 c 1
 128 384 l 1
 213.333333333 384 298.666666667 384 384 384 c 1
 384 320 l 1
 448 320 l 1
 448 0 l 1
EndSplineSet
EndChar

StartChar: LATIN CAPITAL LETTER H WITH STROKE
Encoding: 294 294 230
Width: 512
Flags: HW
LayerCount: 2
Fore
SplineSet
448 0 m 1
 405.333333333 -0 362.666666667 0 320 0 c 1
 320 320 l 1
 128 320 l 1
 128 0 l 1
 85.3333333333 -0 42.6666666667 0 0 0 c 1
 -0 213.333333333 0 426.666666667 0 640 c 1
 42.6666666667 640 85.3333333333 640 128 640 c 1
 128 576 l 1
 320 576 l 1
 320 640 l 1
 362.666666667 640 405.333333333 640 448 640 c 1
 448 576 l 1
 512 576 l 1
 512 512 l 1
 448 512 l 1
 448 341.333333333 448 170.666666667 448 0 c 1
128 384 m 1
 320 384 l 1
 320 426.666666667 320 469.333333333 320 512 c 1
 128 512 l 1
 128 469.333333333 128 426.666666667 128 384 c 1
EndSplineSet
EndChar

StartChar: LATIN SMALL LETTER H WITH STROKE
Encoding: 295 295 231
Width: 512
Flags: HW
LayerCount: 2
Fore
SplineSet
448 0 m 1
 405.333333333 -0 362.666666667 0 320 0 c 1
 320 128 320 256 320 384 c 1
 128 384 l 1
 128 256 128 128 128 0 c 1
 85.3333333333 -0 42.6666666667 0 0 0 c 1
 -0 213.333333333 0 426.666666667 0 640 c 1
 42.6666666667 640 85.3333333333 640 128 640 c 1
 128 576 l 1
 170.666666667 576 213.333333333 576 256 576 c 1
 256 512 l 1
 213.333333333 512 170.666666667 512 128 512 c 1
 128 448 l 1
 213.333333333 448 298.666666667 448 384 448 c 1
 384 384 l 1
 448 384 l 1
 448 256 448 128 448 0 c 1
EndSplineSet
EndChar

StartChar: LATIN CAPITAL LETTER I WITH TILDE
Encoding: 296 296 232
Width: 512
Flags: HW
LayerCount: 2
Fore
SplineSet
64 0 m 1
 64 64 l 1
 106.666666667 64 149.333333333 64 192 64 c 1
 192 512 l 1
 149.333333333 512 106.666666667 512 64 512 c 1
 64 576 l 1
 192 576 320 576 448 576 c 1
 448 512 l 1
 405.333333333 512 362.666666667 512 320 512 c 1
 320 64 l 1
 362.666666667 64 405.333333333 64 448 64 c 1
 448 0 l 1
 320 -0 192 0 64 0 c 1
64 640 m 1
 64 704 l 1
 128 704 l 1
 128 640 l 1
 64 640 l 1
384 640 m 1
 341.333333333 640 298.666666667 640 256 640 c 1
 256 704 l 1
 298.666666667 704 341.333333333 704 384 704 c 1
 384 640 l 1
384 704 m 1
 384 768 l 1
 448 768 l 1
 448 704 l 1
 384 704 l 1
256 704 m 1
 213.333333333 704 170.666666667 704 128 704 c 1
 128 768 l 1
 170.666666667 768 213.333333333 768 256 768 c 1
 256 704 l 1
EndSplineSet
EndChar

StartChar: LATIN SMALL LETTER I WITH TILDE
Encoding: 297 297 233
Width: 512
Flags: HW
LayerCount: 2
Fore
SplineSet
128 384 m 1
 128 448 l 1
 320 448 l 1
 320 320 320 192 320 64 c 1
 384 64 l 1
 384 0 l 1
 192 0 l 1
 192 128 192 256 192 384 c 1
 128 384 l 1
384 512 m 1
 341.333333333 512 298.666666667 512 256 512 c 1
 256 576 l 1
 213.333333333 576 170.666666667 576 128 576 c 1
 128 512 l 1
 64 512 l 1
 64 554.666666667 64 597.333333333 64 640 c 1
 128 640 l 1
 128 704 l 1
 170.666666667 704 213.333333333 704 256 704 c 1
 256 640 l 1
 298.666666667 640 341.333333333 640 384 640 c 1
 384 704 l 1
 448 704 l 1
 448 661.333333333 448 618.666666667 448 576 c 1
 384 576 l 1
 384 512 l 1
EndSplineSet
EndChar

StartChar: LATIN CAPITAL LETTER I WITH MACRON
Encoding: 298 298 234
Width: 512
Flags: HW
LayerCount: 2
Fore
SplineSet
64 0 m 1
 64 64 l 1
 106.666666667 64 149.333333333 64 192 64 c 1
 192 512 l 1
 149.333333333 512 106.666666667 512 64 512 c 1
 64 576 l 1
 192 576 320 576 448 576 c 1
 448 512 l 1
 405.333333333 512 362.666666667 512 320 512 c 1
 320 64 l 1
 362.666666667 64 405.333333333 64 448 64 c 1
 448 0 l 1
 320 -0 192 0 64 0 c 1
64 640 m 1
 64 704 l 1
 192 704 320 704 448 704 c 1
 448 640 l 1
 320 640 192 640 64 640 c 1
EndSplineSet
EndChar

StartChar: LATIN SMALL LETTER I WITH MACRON
Encoding: 299 299 235
Width: 512
Flags: HW
LayerCount: 2
Fore
SplineSet
128 384 m 1
 128 448 l 1
 320 448 l 1
 320 320 320 192 320 64 c 1
 384 64 l 1
 384 0 l 1
 192 0 l 1
 192 128 192 256 192 384 c 1
 128 384 l 1
64 512 m 1
 64 576 l 1
 192 576 320 576 448 576 c 1
 448 512 l 1
 320 512 192 512 64 512 c 1
EndSplineSet
EndChar

StartChar: LATIN CAPITAL LETTER I WITH BREVE
Encoding: 300 300 236
Width: 512
Flags: HW
LayerCount: 2
Fore
SplineSet
64 0 m 1
 64 64 l 1
 106.666666667 64 149.333333333 64 192 64 c 1
 192 512 l 1
 149.333333333 512 106.666666667 512 64 512 c 1
 64 576 l 1
 192 576 320 576 448 576 c 1
 448 512 l 1
 405.333333333 512 362.666666667 512 320 512 c 1
 320 64 l 1
 362.666666667 64 405.333333333 64 448 64 c 1
 448 0 l 1
 320 -0 192 0 64 0 c 1
64 704 m 1
 64 768 l 1
 106.666666667 768 149.333333333 768 192 768 c 1
 192 704 l 1
 234.666666667 704 277.333333333 704 320 704 c 1
 320 768 l 1
 362.666666667 768 405.333333333 768 448 768 c 1
 448 704 l 1
 384 704 l 1
 384 640 l 1
 298.666666667 640 213.333333333 640 128 640 c 1
 128 704 l 1
 64 704 l 1
EndSplineSet
EndChar

StartChar: LATIN SMALL LETTER I WITH BREVE
Encoding: 301 301 237
Width: 512
Flags: HW
LayerCount: 2
Fore
SplineSet
128 384 m 1
 128 448 l 1
 320 448 l 1
 320 320 320 192 320 64 c 1
 384 64 l 1
 384 0 l 1
 192 0 l 1
 192 128 192 256 192 384 c 1
 128 384 l 1
384 512 m 1
 298.666666667 512 213.333333333 512 128 512 c 1
 128 576 l 1
 64 576 l 1
 64 618.666666667 64 661.333333333 64 704 c 1
 106.666666667 704 149.333333333 704 192 704 c 1
 192 661.333333333 192 618.666666667 192 576 c 1
 234.666666667 576 277.333333333 576 320 576 c 1
 320 618.666666667 320 661.333333333 320 704 c 1
 362.666666667 704 405.333333333 704 448 704 c 1
 448 661.333333333 448 618.666666667 448 576 c 1
 384 576 l 1
 384 512 l 1
EndSplineSet
EndChar

StartChar: LATIN CAPITAL LETTER I WITH OGONEK
Encoding: 302 302 238
Width: 512
Flags: HW
LayerCount: 2
Fore
SplineSet
64 0 m 1
 64 64 l 1
 106.666666667 64 149.333333333 64 192 64 c 1
 192 234.666666667 192 405.333333333 192 576 c 1
 149.333333333 576 106.666666667 576 64 576 c 1
 64 640 l 1
 192 640 320 640 448 640 c 1
 448 576 l 1
 405.333333333 576 362.666666667 576 320 576 c 1
 320 405.333333333 320 234.666666667 320 64 c 1
 362.666666667 64 405.333333333 64 448 64 c 1
 448 0 l 1
 384 0 l 1
 384 -64 l 1
 320 -64 l 1
 320 -128 l 1
 362.666666667 -128 405.333333333 -128 448 -128 c 1
 448 -192 l 1
 405.333333333 -192 362.666666667 -192 320 -192 c 1
 320 -128 l 1
 256 -128 l 1
 256 -85.3333333333 256 -42.6666666667 256 0 c 1
 64 0 l 1
EndSplineSet
EndChar

StartChar: LATIN SMALL LETTER I WITH OGONEK
Encoding: 303 303 239
Width: 512
Flags: HW
LayerCount: 2
Fore
SplineSet
128 384 m 1
 128 448 l 1
 320 448 l 1
 320 320 320 192 320 64 c 1
 384 64 l 1
 384 21.3333333333 384 -21.3333333333 384 -64 c 1
 320 -64 l 1
 320 -128 l 1
 362.666666667 -128 405.333333333 -128 448 -128 c 1
 448 -192 l 1
 405.333333333 -192 362.666666667 -192 320 -192 c 1
 320 -128 l 1
 256 -128 l 1
 256 -85.3333333333 256 -42.6666666667 256 0 c 1
 192 0 l 1
 192 128 192 256 192 384 c 1
 128 384 l 1
320 512 m 1
 277.333333333 512 234.666666667 512 192 512 c 1
 192 554.666666667 192 597.333333333 192 640 c 1
 234.666666667 640 277.333333333 640 320 640 c 1
 320 597.333333333 320 554.666666667 320 512 c 1
EndSplineSet
EndChar

StartChar: LATIN CAPITAL LETTER I WITH DOT ABOVE
Encoding: 304 304 240
Width: 512
Flags: HW
LayerCount: 2
Fore
SplineSet
64 0 m 1
 64 64 l 1
 106.666666667 64 149.333333333 64 192 64 c 1
 192 512 l 1
 149.333333333 512 106.666666667 512 64 512 c 1
 64 576 l 1
 192 576 320 576 448 576 c 1
 448 512 l 1
 405.333333333 512 362.666666667 512 320 512 c 1
 320 64 l 1
 362.666666667 64 405.333333333 64 448 64 c 1
 448 0 l 1
 320 -0 192 0 64 0 c 1
320 640 m 1
 277.333333333 640 234.666666667 640 192 640 c 1
 192 682.666666667 192 725.333333333 192 768 c 1
 234.666666667 768 277.333333333 768 320 768 c 1
 320 725.333333333 320 682.666666667 320 640 c 1
EndSplineSet
EndChar

StartChar: LATIN SMALL LETTER DOTLESS I
Encoding: 305 305 241
Width: 512
Flags: HW
LayerCount: 2
Fore
SplineSet
128 384 m 1
 128 448 l 1
 320 448 l 1
 320 320 320 192 320 64 c 1
 384 64 l 1
 384 0 l 1
 192 0 l 1
 192 128 192 256 192 384 c 1
 128 384 l 1
EndSplineSet
EndChar

StartChar: LATIN CAPITAL LIGATURE IJ
Encoding: 306 306 242
Width: 512
Flags: HW
LayerCount: 2
Fore
SplineSet
256 0 m 1
 256 64 l 1
 320 64 l 1
 320 640 l 1
 512 640 l 1
 512 576 l 1
 448 576 l 1
 448 405.333333333 448 234.666666667 448 64 c 1
 384 64 l 1
 384 0 l 1
 341.333333333 -0 298.666666667 0 256 0 c 1
0 0 m 1
 0 64 l 1
 64 64 l 1
 64 234.666666667 64 405.333333333 64 576 c 1
 0 576 l 1
 0 640 l 1
 85.3333333333 640 170.666666667 640 256 640 c 1
 256 576 l 1
 192 576 l 1
 192 0 l 1
 0 0 l 1
EndSplineSet
EndChar

StartChar: LATIN SMALL LIGATURE IJ
Encoding: 307 307 243
Width: 512
Flags: HW
LayerCount: 2
Fore
SplineSet
192 -192 m 1
 192 -128 l 1
 234.666666667 -128 277.333333333 -128 320 -128 c 1
 320 448 l 1
 362.666666667 448 405.333333333 448 448 448 c 1
 448 -128 l 1
 384 -128 l 1
 384 -192 l 1
 192 -192 l 1
0 384 m 1
 0 448 l 1
 192 448 l 1
 192 320 192 192 192 64 c 1
 256 64 l 1
 256 0 l 1
 64 0 l 1
 64 128 64 256 64 384 c 1
 0 384 l 1
448 512 m 1
 405.333333333 512 362.666666667 512 320 512 c 1
 320 554.666666667 320 597.333333333 320 640 c 1
 362.666666667 640 405.333333333 640 448 640 c 1
 448 597.333333333 448 554.666666667 448 512 c 1
192 512 m 1
 149.333333333 512 106.666666667 512 64 512 c 1
 64 554.666666667 64 597.333333333 64 640 c 1
 106.666666667 640 149.333333333 640 192 640 c 1
 192 597.333333333 192 554.666666667 192 512 c 1
EndSplineSet
EndChar

StartChar: LATIN CAPITAL LETTER J WITH CIRCUMFLEX
Encoding: 308 308 244
Width: 512
Flags: HW
LayerCount: 2
Fore
SplineSet
0 0 m 1
 0 64 l 1
 192 64 l 1
 192 512 l 1
 149.333333333 512 106.666666667 512 64 512 c 1
 64 576 l 1
 192 576 320 576 448 576 c 1
 448 512 l 1
 405.333333333 512 362.666666667 512 320 512 c 1
 320 64 l 1
 256 64 l 1
 256 0 l 1
 170.666666667 -0 85.3333333333 0 0 0 c 1
64 640 m 1
 64 704 l 1
 128 704 l 1
 128 768 l 1
 320 768 l 1
 320 704 l 1
 384 704 l 1
 384 640 l 1
 341.333333333 640 298.666666667 640 256 640 c 1
 256 704 l 1
 192 704 l 1
 192 640 l 1
 149.333333333 640 106.666666667 640 64 640 c 1
EndSplineSet
EndChar

StartChar: LATIN SMALL LETTER J WITH CIRCUMFLEX
Encoding: 309 309 245
Width: 512
Flags: HW
LayerCount: 2
Fore
SplineSet
64 -192 m 1
 64 -128 l 1
 106.666666667 -128 149.333333333 -128 192 -128 c 1
 192 448 l 1
 234.666666667 448 277.333333333 448 320 448 c 1
 320 -128 l 1
 256 -128 l 1
 256 -192 l 1
 64 -192 l 1
64 512 m 1
 64 576 l 1
 128 576 l 1
 128 640 l 1
 192 640 l 1
 192 704 l 1
 234.666666667 704 277.333333333 704 320 704 c 1
 320 640 l 1
 384 640 l 1
 384 576 l 1
 448 576 l 1
 448 512 l 1
 405.333333333 512 362.666666667 512 320 512 c 1
 320 576 l 1
 277.333333333 576 234.666666667 576 192 576 c 1
 192 512 l 1
 149.333333333 512 106.666666667 512 64 512 c 1
EndSplineSet
EndChar

StartChar: LATIN CAPITAL LETTER K WITH CEDILLA
Encoding: 310 310 246
Width: 512
Flags: HW
LayerCount: 2
Fore
SplineSet
128 -192 m 1
 128 -128 l 1
 192 -128 l 1
 192 -85.3333333333 192 -42.6666666667 192 0 c 1
 234.666666667 -0 277.333333333 0 320 0 c 1
 320 -42.6666666667 320 -85.3333333333 320 -128 c 1
 256 -128 l 1
 256 -192 l 1
 213.333333333 -192 170.666666667 -192 128 -192 c 1
448 0 m 1
 405.333333333 -0 362.666666667 0 320 0 c 1
 320 85.3333333333 320 170.666666667 320 256 c 1
 256 256 l 1
 256 320 l 1
 213.333333333 320 170.666666667 320 128 320 c 1
 128 0 l 1
 85.3333333333 -0 42.6666666667 0 0 0 c 1
 -0 213.333333333 0 426.666666667 0 640 c 1
 42.6666666667 640 85.3333333333 640 128 640 c 1
 128 554.666666667 128 469.333333333 128 384 c 1
 170.666666667 384 213.333333333 384 256 384 c 1
 256 448 l 1
 320 448 l 1
 320 640 l 1
 362.666666667 640 405.333333333 640 448 640 c 1
 448 448 l 1
 384 448 l 1
 384 384 l 1
 320 384 l 1
 320 320 l 1
 384 320 l 1
 384 256 l 1
 448 256 l 1
 448 170.666666667 448 85.3333333333 448 0 c 1
EndSplineSet
EndChar

StartChar: LATIN SMALL LETTER K WITH CEDILLA
Encoding: 311 311 247
Width: 512
Flags: HW
LayerCount: 2
Fore
SplineSet
128 -192 m 1
 128 -128 l 1
 192 -128 l 1
 192 -85.3333333333 192 -42.6666666667 192 0 c 1
 234.666666667 -0 277.333333333 0 320 0 c 1
 320 -42.6666666667 320 -85.3333333333 320 -128 c 1
 256 -128 l 1
 256 -192 l 1
 213.333333333 -192 170.666666667 -192 128 -192 c 1
448 0 m 1
 405.333333333 -0 362.666666667 0 320 0 c 1
 320 64 l 1
 256 64 l 1
 256 128 l 1
 192 128 l 1
 192 192 l 1
 128 192 l 1
 128 0 l 1
 85.3333333333 -0 42.6666666667 0 0 0 c 1
 -0 213.333333333 0 426.666666667 0 640 c 1
 42.6666666667 640 85.3333333333 640 128 640 c 1
 128 320 l 1
 192 320 l 1
 192 384 l 1
 256 384 l 1
 256 448 l 1
 298.666666667 448 341.333333333 448 384 448 c 1
 384 384 l 1
 320 384 l 1
 320 320 l 1
 256 320 l 1
 256 277.333333333 256 234.666666667 256 192 c 1
 320 192 l 1
 320 128 l 1
 384 128 l 1
 384 64 l 1
 448 64 l 1
 448 0 l 1
EndSplineSet
EndChar

StartChar: LATIN SMALL LETTER KRA
Encoding: 312 312 248
Width: 512
Flags: HW
LayerCount: 2
Fore
SplineSet
448 0 m 1
 405.333333333 -0 362.666666667 0 320 0 c 1
 320 64 l 1
 256 64 l 1
 256 128 l 1
 192 128 l 1
 192 192 l 1
 128 192 l 1
 128 0 l 1
 85.3333333333 -0 42.6666666667 0 0 0 c 1
 0 448 l 1
 42.6666666667 448 85.3333333333 448 128 448 c 1
 128 256 l 1
 192 256 l 1
 192 320 l 1
 256 320 l 1
 256 384 l 1
 320 384 l 1
 320 448 l 1
 362.666666667 448 405.333333333 448 448 448 c 1
 448 384 l 1
 384 384 l 1
 384 320 l 1
 320 320 l 1
 320 256 l 1
 256 256 l 1
 256 192 l 1
 320 192 l 1
 320 128 l 1
 384 128 l 1
 384 64 l 1
 448 64 l 1
 448 0 l 1
EndSplineSet
EndChar

StartChar: LATIN CAPITAL LETTER L WITH ACUTE
Encoding: 313 313 249
Width: 512
Flags: HW
LayerCount: 2
Fore
SplineSet
128 640 m 1
 128 704 l 1
 192 704 l 1
 192 768 l 1
 234.666666667 768 277.333333333 768 320 768 c 1
 320 704 l 1
 256 704 l 1
 256 640 l 1
 213.333333333 640 170.666666667 640 128 640 c 1
448 0 m 1
 320 -0 192 0 64 0 c 1
 64 64 l 1
 0 64 l 1
 -0 234.666666667 0 405.333333333 0 576 c 1
 42.6666666667 576 85.3333333333 576 128 576 c 1
 128 405.333333333 128 234.666666667 128 64 c 1
 448 64 l 1
 448 0 l 1
EndSplineSet
EndChar

StartChar: LATIN SMALL LETTER L WITH ACUTE
Encoding: 314 314 250
Width: 512
Flags: HW
LayerCount: 2
Fore
SplineSet
128 640 m 1
 128 704 l 1
 192 704 l 1
 192 768 l 1
 234.666666667 768 277.333333333 768 320 768 c 1
 320 704 l 1
 256 704 l 1
 256 640 l 1
 213.333333333 640 170.666666667 640 128 640 c 1
384 0 m 1
 192 0 l 1
 192 64 l 1
 128 64 l 1
 128 234.666666667 128 405.333333333 128 576 c 1
 170.666666667 576 213.333333333 576 256 576 c 1
 256 405.333333333 256 234.666666667 256 64 c 1
 298.666666667 64 341.333333333 64 384 64 c 1
 384 0 l 1
EndSplineSet
EndChar

StartChar: LATIN CAPITAL LETTER L WITH CEDILLA
Encoding: 315 315 251
Width: 512
Flags: HW
LayerCount: 2
Fore
SplineSet
128 -192 m 1
 128 -128 l 1
 192 -128 l 1
 192 -85.3333333333 192 -42.6666666667 192 0 c 1
 149.333333333 -0 106.666666667 0 64 0 c 1
 64 64 l 1
 0 64 l 1
 0 640 l 1
 42.6666666667 640 85.3333333333 640 128 640 c 1
 128 64 l 1
 448 64 l 1
 448 0 l 1
 405.333333333 -0 362.666666667 0 320 0 c 1
 320 -42.6666666667 320 -85.3333333333 320 -128 c 1
 256 -128 l 1
 256 -192 l 1
 213.333333333 -192 170.666666667 -192 128 -192 c 1
EndSplineSet
EndChar

StartChar: LATIN SMALL LETTER L WITH CEDILLA
Encoding: 316 316 252
Width: 512
Flags: HW
LayerCount: 2
Fore
SplineSet
128 -192 m 1
 128 -128 l 1
 192 -128 l 1
 192 64 l 1
 128 64 l 1
 128 640 l 1
 170.666666667 640 213.333333333 640 256 640 c 1
 256 64 l 1
 298.666666667 64 341.333333333 64 384 64 c 1
 384 0 l 1
 320 0 l 1
 320 -42.6666666667 320 -85.3333333333 320 -128 c 1
 256 -128 l 1
 256 -192 l 1
 213.333333333 -192 170.666666667 -192 128 -192 c 1
EndSplineSet
EndChar

StartChar: LATIN CAPITAL LETTER L WITH CARON
Encoding: 317 317 253
Width: 512
Flags: HW
LayerCount: 2
Fore
SplineSet
64 704 m 1
 64 768 l 1
 106.666666667 768 149.333333333 768 192 768 c 1
 192 704 l 1
 256 704 l 1
 256 768 l 1
 298.666666667 768 341.333333333 768 384 768 c 1
 384 704 l 1
 320 704 l 1
 320 640 l 1
 256 640 l 1
 256 576 l 1
 192 576 l 1
 192 640 l 1
 128 640 l 1
 128 704 l 1
 64 704 l 1
448 0 m 1
 320 -0 192 0 64 0 c 1
 64 64 l 1
 0 64 l 1
 -0 234.666666667 0 405.333333333 0 576 c 1
 42.6666666667 576 85.3333333333 576 128 576 c 1
 128 405.333333333 128 234.666666667 128 64 c 1
 448 64 l 1
 448 0 l 1
EndSplineSet
EndChar

StartChar: LATIN SMALL LETTER L WITH CARON
Encoding: 318 318 254
Width: 512
Flags: HW
LayerCount: 2
Fore
SplineSet
64 704 m 1
 64 768 l 1
 106.666666667 768 149.333333333 768 192 768 c 1
 192 704 l 1
 256 704 l 1
 256 768 l 1
 298.666666667 768 341.333333333 768 384 768 c 1
 384 704 l 1
 320 704 l 1
 320 640 l 1
 256 640 l 1
 256 64 l 1
 298.666666667 64 341.333333333 64 384 64 c 1
 384 0 l 1
 192 0 l 1
 192 64 l 1
 128 64 l 1
 128 234.666666667 128 405.333333333 128 576 c 1
 192 576 l 1
 192 640 l 1
 128 640 l 1
 128 704 l 1
 64 704 l 1
EndSplineSet
EndChar

StartChar: LATIN CAPITAL LETTER L WITH MIDDLE DOT
Encoding: 319 319 255
Width: 512
Flags: HW
LayerCount: 2
Fore
SplineSet
448 0 m 1
 320 -0 192 0 64 0 c 1
 64 64 l 1
 0 64 l 1
 0 640 l 1
 42.6666666667 640 85.3333333333 640 128 640 c 1
 128 64 l 1
 448 64 l 1
 448 0 l 1
384 256 m 1
 341.333333333 256 298.666666667 256 256 256 c 1
 256 298.666666667 256 341.333333333 256 384 c 1
 298.666666667 384 341.333333333 384 384 384 c 1
 384 341.333333333 384 298.666666667 384 256 c 1
EndSplineSet
EndChar

StartChar: LATIN SMALL LETTER L WITH MIDDLE DOT
Encoding: 320 320 256
Width: 512
Flags: HW
LayerCount: 2
Fore
SplineSet
384 0 m 1
 192 0 l 1
 192 64 l 1
 128 64 l 1
 128 640 l 1
 170.666666667 640 213.333333333 640 256 640 c 1
 256 64 l 1
 298.666666667 64 341.333333333 64 384 64 c 1
 384 0 l 1
448 256 m 1
 405.333333333 256 362.666666667 256 320 256 c 1
 320 298.666666667 320 341.333333333 320 384 c 1
 362.666666667 384 405.333333333 384 448 384 c 1
 448 341.333333333 448 298.666666667 448 256 c 1
EndSplineSet
EndChar

StartChar: LATIN CAPITAL LETTER L WITH STROKE
Encoding: 321 321 257
Width: 512
Flags: HW
LayerCount: 2
Fore
SplineSet
448 0 m 1
 128 0 l 1
 128 64 l 1
 64 64 l 1
 64 106.666666667 64 149.333333333 64 192 c 1
 0 192 l 1
 -0 234.666666667 0 277.333333333 0 320 c 1
 64 320 l 1
 64 640 l 1
 106.666666667 640 149.333333333 640 192 640 c 1
 192 448 l 1
 256 448 l 1
 256 512 l 1
 320 512 l 1
 320 469.333333333 320 426.666666667 320 384 c 1
 256 384 l 1
 256 320 l 1
 192 320 l 1
 192 234.666666667 192 149.333333333 192 64 c 1
 277.333333333 64 362.666666667 64 448 64 c 1
 448 0 l 1
EndSplineSet
EndChar

StartChar: LATIN SMALL LETTER L WITH STROKE
Encoding: 322 322 258
Width: 512
Flags: HW
LayerCount: 2
Fore
SplineSet
384 0 m 1
 192 0 l 1
 192 64 l 1
 128 64 l 1
 128 106.666666667 128 149.333333333 128 192 c 1
 64 192 l 1
 64 234.666666667 64 277.333333333 64 320 c 1
 128 320 l 1
 128 640 l 1
 170.666666667 640 213.333333333 640 256 640 c 1
 256 448 l 1
 320 448 l 1
 320 512 l 1
 384 512 l 1
 384 469.333333333 384 426.666666667 384 384 c 1
 320 384 l 1
 320 320 l 1
 256 320 l 1
 256 234.666666667 256 149.333333333 256 64 c 1
 298.666666667 64 341.333333333 64 384 64 c 1
 384 0 l 1
EndSplineSet
EndChar

StartChar: LATIN CAPITAL LETTER N WITH ACUTE
Encoding: 323 323 259
Width: 512
Flags: HW
LayerCount: 2
Fore
SplineSet
128 640 m 1
 128 704 l 1
 192 704 l 1
 192 768 l 1
 234.666666667 768 277.333333333 768 320 768 c 1
 320 704 l 1
 256 704 l 1
 256 640 l 1
 213.333333333 640 170.666666667 640 128 640 c 1
448 0 m 1
 405.333333333 -0 362.666666667 0 320 0 c 1
 320 42.6666666667 320 85.3333333333 320 128 c 1
 256 128 l 1
 256 170.666666667 256 213.333333333 256 256 c 1
 320 256 l 1
 320 576 l 1
 362.666666667 576 405.333333333 576 448 576 c 1
 448 0 l 1
128 0 m 1
 85.3333333333 -0 42.6666666667 0 0 0 c 1
 0 576 l 1
 42.6666666667 576 85.3333333333 576 128 576 c 1
 128 512 l 1
 192 512 l 1
 192 469.333333333 192 426.666666667 192 384 c 1
 256 384 l 1
 256 341.333333333 256 298.666666667 256 256 c 1
 192 256 l 1
 192 298.666666667 192 341.333333333 192 384 c 1
 128 384 l 1
 128 256 128 128 128 0 c 1
EndSplineSet
EndChar

StartChar: LATIN SMALL LETTER N WITH ACUTE
Encoding: 324 324 260
Width: 512
Flags: HW
LayerCount: 2
Fore
SplineSet
128 512 m 1
 128 576 l 1
 192 576 l 1
 192 640 l 1
 256 640 l 1
 256 704 l 1
 298.666666667 704 341.333333333 704 384 704 c 1
 384 640 l 1
 320 640 l 1
 320 576 l 1
 256 576 l 1
 256 512 l 1
 213.333333333 512 170.666666667 512 128 512 c 1
448 0 m 1
 405.333333333 -0 362.666666667 0 320 0 c 1
 320 128 320 256 320 384 c 1
 128 384 l 1
 128 256 128 128 128 0 c 1
 85.3333333333 -0 42.6666666667 0 0 0 c 1
 0 448 l 1
 128 448 256 448 384 448 c 1
 384 384 l 1
 448 384 l 1
 448 256 448 128 448 0 c 1
EndSplineSet
EndChar

StartChar: LATIN CAPITAL LETTER N WITH CEDILLA
Encoding: 325 325 261
Width: 512
Flags: HW
LayerCount: 2
Fore
SplineSet
128 -192 m 1
 128 -128 l 1
 192 -128 l 1
 192 -85.3333333333 192 -42.6666666667 192 0 c 1
 234.666666667 -0 277.333333333 0 320 0 c 1
 320 -42.6666666667 320 -85.3333333333 320 -128 c 1
 256 -128 l 1
 256 -192 l 1
 213.333333333 -192 170.666666667 -192 128 -192 c 1
448 0 m 1
 405.333333333 -0 362.666666667 0 320 0 c 1
 320 42.6666666667 320 85.3333333333 320 128 c 1
 256 128 l 1
 256 170.666666667 256 213.333333333 256 256 c 1
 320 256 l 1
 320 384 320 512 320 640 c 1
 362.666666667 640 405.333333333 640 448 640 c 1
 448 426.666666667 448 213.333333333 448 0 c 1
128 0 m 1
 85.3333333333 -0 42.6666666667 0 0 0 c 1
 -0 213.333333333 0 426.666666667 0 640 c 1
 42.6666666667 640 85.3333333333 640 128 640 c 1
 128 597.333333333 128 554.666666667 128 512 c 1
 192 512 l 1
 192 469.333333333 192 426.666666667 192 384 c 1
 256 384 l 1
 256 341.333333333 256 298.666666667 256 256 c 1
 192 256 l 1
 192 298.666666667 192 341.333333333 192 384 c 1
 128 384 l 1
 128 256 128 128 128 0 c 1
EndSplineSet
EndChar

StartChar: LATIN SMALL LETTER N WITH CEDILLA
Encoding: 326 326 262
Width: 512
Flags: HW
LayerCount: 2
Fore
SplineSet
128 -192 m 1
 128 -128 l 1
 192 -128 l 1
 192 -85.3333333333 192 -42.6666666667 192 0 c 1
 234.666666667 -0 277.333333333 0 320 0 c 1
 320 -42.6666666667 320 -85.3333333333 320 -128 c 1
 256 -128 l 1
 256 -192 l 1
 213.333333333 -192 170.666666667 -192 128 -192 c 1
448 0 m 1
 405.333333333 -0 362.666666667 0 320 0 c 1
 320 128 320 256 320 384 c 1
 128 384 l 1
 128 256 128 128 128 0 c 1
 85.3333333333 -0 42.6666666667 0 0 0 c 1
 0 448 l 1
 128 448 256 448 384 448 c 1
 384 384 l 1
 448 384 l 1
 448 256 448 128 448 0 c 1
EndSplineSet
EndChar

StartChar: LATIN CAPITAL LETTER N WITH CARON
Encoding: 327 327 263
Width: 512
Flags: HW
LayerCount: 2
Fore
SplineSet
64 704 m 1
 64 768 l 1
 106.666666667 768 149.333333333 768 192 768 c 1
 192 704 l 1
 256 704 l 1
 256 768 l 1
 298.666666667 768 341.333333333 768 384 768 c 1
 384 704 l 1
 320 704 l 1
 320 640 l 1
 256 640 l 1
 256 576 l 1
 192 576 l 1
 192 640 l 1
 128 640 l 1
 128 704 l 1
 64 704 l 1
448 0 m 1
 405.333333333 -0 362.666666667 0 320 0 c 1
 320 42.6666666667 320 85.3333333333 320 128 c 1
 256 128 l 1
 256 170.666666667 256 213.333333333 256 256 c 1
 320 256 l 1
 320 576 l 1
 362.666666667 576 405.333333333 576 448 576 c 1
 448 0 l 1
128 0 m 1
 85.3333333333 -0 42.6666666667 0 0 0 c 1
 0 576 l 1
 42.6666666667 576 85.3333333333 576 128 576 c 1
 128 512 l 1
 192 512 l 1
 192 469.333333333 192 426.666666667 192 384 c 1
 256 384 l 1
 256 341.333333333 256 298.666666667 256 256 c 1
 192 256 l 1
 192 298.666666667 192 341.333333333 192 384 c 1
 128 384 l 1
 128 256 128 128 128 0 c 1
EndSplineSet
EndChar

StartChar: LATIN SMALL LETTER N WITH CARON
Encoding: 328 328 264
Width: 512
Flags: HW
LayerCount: 2
Fore
SplineSet
64 640 m 1
 64 704 l 1
 106.666666667 704 149.333333333 704 192 704 c 1
 192 640 l 1
 256 640 l 1
 256 704 l 1
 298.666666667 704 341.333333333 704 384 704 c 1
 384 640 l 1
 320 640 l 1
 320 576 l 1
 256 576 l 1
 256 512 l 1
 192 512 l 1
 192 576 l 1
 128 576 l 1
 128 640 l 1
 64 640 l 1
448 0 m 1
 405.333333333 -0 362.666666667 0 320 0 c 1
 320 128 320 256 320 384 c 1
 128 384 l 1
 128 256 128 128 128 0 c 1
 85.3333333333 -0 42.6666666667 0 0 0 c 1
 0 448 l 1
 128 448 256 448 384 448 c 1
 384 384 l 1
 448 384 l 1
 448 256 448 128 448 0 c 1
EndSplineSet
EndChar

StartChar: LATIN SMALL LETTER N PRECEDED BY APOSTROPHE
Encoding: 329 329 265
Width: 512
Flags: HW
LayerCount: 2
Fore
SplineSet
0 512 m 1
 0 576 l 1
 64 576 l 1
 64 618.666666667 64 661.333333333 64 704 c 1
 106.666666667 704 149.333333333 704 192 704 c 1
 192 661.333333333 192 618.666666667 192 576 c 1
 128 576 l 1
 128 512 l 1
 85.3333333333 512 42.6666666667 512 0 512 c 1
448 0 m 1
 405.333333333 -0 362.666666667 0 320 0 c 1
 320 128 320 256 320 384 c 1
 128 384 l 1
 128 256 128 128 128 0 c 1
 85.3333333333 -0 42.6666666667 0 0 0 c 1
 0 448 l 1
 128 448 256 448 384 448 c 1
 384 384 l 1
 448 384 l 1
 448 256 448 128 448 0 c 1
EndSplineSet
EndChar

StartChar: LATIN CAPITAL LETTER ENG
Encoding: 330 330 266
Width: 512
Flags: HW
LayerCount: 2
Fore
SplineSet
256 -192 m 1
 256 -128 l 1
 320 -128 l 1
 320 -42.6666666667 320 42.6666666667 320 128 c 1
 256 128 l 1
 256 170.666666667 256 213.333333333 256 256 c 1
 320 256 l 1
 320 384 320 512 320 640 c 1
 362.666666667 640 405.333333333 640 448 640 c 1
 448 384 448 128 448 -128 c 1
 384 -128 l 1
 384 -192 l 1
 341.333333333 -192 298.666666667 -192 256 -192 c 1
128 0 m 1
 85.3333333333 -0 42.6666666667 0 0 0 c 1
 -0 213.333333333 0 426.666666667 0 640 c 1
 42.6666666667 640 85.3333333333 640 128 640 c 1
 128 597.333333333 128 554.666666667 128 512 c 1
 192 512 l 1
 192 469.333333333 192 426.666666667 192 384 c 1
 256 384 l 1
 256 341.333333333 256 298.666666667 256 256 c 1
 192 256 l 1
 192 298.666666667 192 341.333333333 192 384 c 1
 128 384 l 1
 128 256 128 128 128 0 c 1
EndSplineSet
EndChar

StartChar: LATIN SMALL LETTER ENG
Encoding: 331 331 267
Width: 512
Flags: HW
LayerCount: 2
Fore
SplineSet
256 -192 m 1
 256 -128 l 1
 320 -128 l 1
 320 42.6666666667 320 213.333333333 320 384 c 1
 128 384 l 1
 128 256 128 128 128 0 c 1
 85.3333333333 -0 42.6666666667 0 0 0 c 1
 0 448 l 1
 128 448 256 448 384 448 c 1
 384 384 l 1
 448 384 l 1
 448 213.333333333 448 42.6666666667 448 -128 c 1
 384 -128 l 1
 384 -192 l 1
 341.333333333 -192 298.666666667 -192 256 -192 c 1
EndSplineSet
EndChar

StartChar: LATIN CAPITAL LETTER O WITH MACRON
Encoding: 332 332 268
Width: 512
Flags: HW
LayerCount: 2
Fore
SplineSet
64 640 m 1
 64 704 l 1
 384 704 l 1
 384 640 l 1
 64 640 l 1
384 0 m 1
 64 0 l 1
 64 64 l 1
 0 64 l 1
 0 512 l 1
 64 512 l 1
 64 576 l 1
 384 576 l 1
 384 512 l 1
 448 512 l 1
 448 64 l 1
 384 64 l 1
 384 0 l 1
128 64 m 1
 320 64 l 1
 320 512 l 1
 128 512 l 1
 128 64 l 1
EndSplineSet
EndChar

StartChar: LATIN SMALL LETTER O WITH MACRON
Encoding: 333 333 269
Width: 512
Flags: HW
LayerCount: 2
Fore
SplineSet
64 512 m 1
 64 576 l 1
 384 576 l 1
 384 512 l 1
 64 512 l 1
384 0 m 1
 64 0 l 1
 64 64 l 1
 0 64 l 1
 0 384 l 1
 64 384 l 1
 64 448 l 1
 384 448 l 1
 384 384 l 1
 448 384 l 1
 448 64 l 1
 384 64 l 1
 384 0 l 1
128 64 m 1
 320 64 l 1
 320 384 l 1
 128 384 l 1
 128 64 l 1
EndSplineSet
EndChar

StartChar: LATIN CAPITAL LETTER O WITH BREVE
Encoding: 334 334 270
Width: 512
Flags: HW
LayerCount: 2
Fore
SplineSet
64 704 m 1
 64 768 l 1
 106.666666667 768 149.333333333 768 192 768 c 1
 192 704 l 1
 256 704 l 1
 256 768 l 1
 298.666666667 768 341.333333333 768 384 768 c 1
 384 704 l 1
 320 704 l 1
 320 640 l 1
 128 640 l 1
 128 704 l 1
 64 704 l 1
384 0 m 1
 64 0 l 1
 64 64 l 1
 0 64 l 1
 0 512 l 1
 64 512 l 1
 64 576 l 1
 384 576 l 1
 384 512 l 1
 448 512 l 1
 448 64 l 1
 384 64 l 1
 384 0 l 1
128 64 m 1
 320 64 l 1
 320 512 l 1
 128 512 l 1
 128 64 l 1
EndSplineSet
EndChar

StartChar: LATIN SMALL LETTER O WITH BREVE
Encoding: 335 335 271
Width: 512
Flags: HW
LayerCount: 2
Fore
SplineSet
384 0 m 1
 64 0 l 1
 64 64 l 1
 0 64 l 1
 0 384 l 1
 64 384 l 1
 64 448 l 1
 384 448 l 1
 384 384 l 1
 448 384 l 1
 448 64 l 1
 384 64 l 1
 384 0 l 1
128 64 m 1
 320 64 l 1
 320 384 l 1
 128 384 l 1
 128 64 l 1
320 512 m 1
 128 512 l 1
 128 576 l 1
 64 576 l 1
 64 618.666666667 64 661.333333333 64 704 c 1
 106.666666667 704 149.333333333 704 192 704 c 1
 192 661.333333333 192 618.666666667 192 576 c 1
 256 576 l 1
 256 618.666666667 256 661.333333333 256 704 c 1
 298.666666667 704 341.333333333 704 384 704 c 1
 384 661.333333333 384 618.666666667 384 576 c 1
 320 576 l 1
 320 512 l 1
EndSplineSet
EndChar

StartChar: LATIN CAPITAL LETTER O WITH DOUBLE ACUTE
Encoding: 336 336 272
Width: 512
Flags: HW
LayerCount: 2
Fore
SplineSet
256 640 m 1
 256 704 l 1
 320 704 l 1
 320 768 l 1
 362.666666667 768 405.333333333 768 448 768 c 1
 448 704 l 1
 384 704 l 1
 384 640 l 1
 341.333333333 640 298.666666667 640 256 640 c 1
0 640 m 1
 0 704 l 1
 64 704 l 1
 64 768 l 1
 106.666666667 768 149.333333333 768 192 768 c 1
 192 704 l 1
 128 704 l 1
 128 640 l 1
 85.3333333333 640 42.6666666667 640 0 640 c 1
384 0 m 1
 64 0 l 1
 64 64 l 1
 0 64 l 1
 0 512 l 1
 64 512 l 1
 64 576 l 1
 384 576 l 1
 384 512 l 1
 448 512 l 1
 448 64 l 1
 384 64 l 1
 384 0 l 1
128 64 m 1
 320 64 l 1
 320 512 l 1
 128 512 l 1
 128 64 l 1
EndSplineSet
EndChar

StartChar: LATIN SMALL LETTER O WITH DOUBLE ACUTE
Encoding: 337 337 273
Width: 512
Flags: HW
LayerCount: 2
Fore
SplineSet
0 512 m 1
 0 576 l 1
 64 576 l 1
 64 640 l 1
 128 640 l 1
 128 704 l 1
 170.666666667 704 213.333333333 704 256 704 c 1
 256 640 l 1
 320 640 l 1
 320 704 l 1
 362.666666667 704 405.333333333 704 448 704 c 1
 448 640 l 1
 384 640 l 1
 384 576 l 1
 320 576 l 1
 320 512 l 1
 277.333333333 512 234.666666667 512 192 512 c 1
 192 576 l 1
 256 576 l 1
 256 640 l 1
 192 640 l 1
 192 576 l 1
 128 576 l 1
 128 512 l 1
 85.3333333333 512 42.6666666667 512 0 512 c 1
384 0 m 1
 64 0 l 1
 64 64 l 1
 0 64 l 1
 0 384 l 1
 64 384 l 1
 64 448 l 1
 384 448 l 1
 384 384 l 1
 448 384 l 1
 448 64 l 1
 384 64 l 1
 384 0 l 1
128 64 m 1
 320 64 l 1
 320 384 l 1
 128 384 l 1
 128 64 l 1
EndSplineSet
EndChar

StartChar: LATIN CAPITAL LIGATURE OE
Encoding: 338 338 274
Width: 512
Flags: HW
LayerCount: 2
Fore
SplineSet
448 0 m 1
 320 -0 192 0 64 0 c 1
 64 64 l 1
 0 64 l 1
 -0 234.666666667 0 405.333333333 0 576 c 1
 64 576 l 1
 64 640 l 1
 192 640 320 640 448 640 c 1
 448 576 l 1
 405.333333333 576 362.666666667 576 320 576 c 1
 320 384 l 1
 362.666666667 384 405.333333333 384 448 384 c 1
 448 320 l 1
 405.333333333 320 362.666666667 320 320 320 c 1
 320 234.666666667 320 149.333333333 320 64 c 1
 362.666666667 64 405.333333333 64 448 64 c 1
 448 0 l 1
192 64 m 1
 192 234.666666667 192 405.333333333 192 576 c 1
 128 576 l 1
 128 405.333333333 128 234.666666667 128 64 c 1
 192 64 l 1
EndSplineSet
EndChar

StartChar: LATIN SMALL LIGATURE OE
Encoding: 339 339 275
Width: 512
Flags: HW
LayerCount: 2
Fore
SplineSet
448 0 m 1
 256 0 l 1
 256 64 l 1
 448 64 l 1
 448 0 l 1
192 0 m 1
 149.333333333 -0 106.666666667 0 64 0 c 1
 64 64 l 1
 0 64 l 1
 0 384 l 1
 64 384 l 1
 64 448 l 1
 106.666666667 448 149.333333333 448 192 448 c 1
 192 384 l 1
 256 384 l 1
 256 341.333333333 256 298.666666667 256 256 c 1
 320 256 l 1
 320 298.666666667 320 341.333333333 320 384 c 1
 256 384 l 1
 256 448 l 1
 448 448 l 1
 448 362.666666667 448 277.333333333 448 192 c 1
 256 192 l 1
 256 149.333333333 256 106.666666667 256 64 c 1
 192 64 l 1
 192 0 l 1
192 64 m 1
 192 384 l 1
 128 384 l 1
 128 64 l 1
 192 64 l 1
EndSplineSet
EndChar

StartChar: LATIN CAPITAL LETTER R WITH ACUTE
Encoding: 340 340 276
Width: 512
Flags: HW
LayerCount: 2
Fore
SplineSet
128 640 m 1
 128 704 l 1
 192 704 l 1
 192 768 l 1
 234.666666667 768 277.333333333 768 320 768 c 1
 320 704 l 1
 256 704 l 1
 256 640 l 1
 213.333333333 640 170.666666667 640 128 640 c 1
448 0 m 1
 405.333333333 -0 362.666666667 0 320 0 c 1
 320 85.3333333333 320 170.666666667 320 256 c 1
 128 256 l 1
 128 170.666666667 128 85.3333333333 128 0 c 1
 85.3333333333 -0 42.6666666667 0 0 0 c 1
 0 576 l 1
 128 576 256 576 384 576 c 1
 384 512 l 1
 448 512 l 1
 448 320 l 1
 384 320 l 1
 384 256 l 1
 448 256 l 1
 448 170.666666667 448 85.3333333333 448 0 c 1
128 320 m 1
 320 320 l 1
 320 512 l 1
 128 512 l 1
 128 320 l 1
EndSplineSet
EndChar

StartChar: LATIN SMALL LETTER R WITH ACUTE
Encoding: 341 341 277
Width: 512
Flags: HW
LayerCount: 2
Fore
SplineSet
128 512 m 1
 128 576 l 1
 192 576 l 1
 192 640 l 1
 256 640 l 1
 256 704 l 1
 298.666666667 704 341.333333333 704 384 704 c 1
 384 640 l 1
 320 640 l 1
 320 576 l 1
 256 576 l 1
 256 512 l 1
 213.333333333 512 170.666666667 512 128 512 c 1
128 0 m 1
 85.3333333333 -0 42.6666666667 0 0 0 c 1
 -0 128 0 256 0 384 c 1
 64 384 l 1
 64 448 l 1
 192 448 320 448 448 448 c 1
 448 405.333333333 448 362.666666667 448 320 c 1
 405.333333333 320 362.666666667 320 320 320 c 1
 320 384 l 1
 128 384 l 1
 128 256 128 128 128 0 c 1
EndSplineSet
EndChar

StartChar: LATIN CAPITAL LETTER R WITH CEDILLA
Encoding: 342 342 278
Width: 512
Flags: HW
LayerCount: 2
Fore
SplineSet
128 -192 m 1
 128 -128 l 1
 192 -128 l 1
 192 -85.3333333333 192 -42.6666666667 192 0 c 1
 234.666666667 -0 277.333333333 0 320 0 c 1
 320 -42.6666666667 320 -85.3333333333 320 -128 c 1
 256 -128 l 1
 256 -192 l 1
 213.333333333 -192 170.666666667 -192 128 -192 c 1
448 0 m 1
 405.333333333 -0 362.666666667 0 320 0 c 1
 320 320 l 1
 128 320 l 1
 128 0 l 1
 85.3333333333 -0 42.6666666667 0 0 0 c 1
 -0 213.333333333 0 426.666666667 0 640 c 1
 128 640 256 640 384 640 c 1
 384 576 l 1
 448 576 l 1
 448 384 l 1
 384 384 l 1
 384 320 l 1
 448 320 l 1
 448 0 l 1
128 384 m 1
 320 384 l 1
 320 576 l 1
 128 576 l 1
 128 384 l 1
EndSplineSet
EndChar

StartChar: LATIN SMALL LETTER R WITH CEDILLA
Encoding: 343 343 279
Width: 512
Flags: HW
LayerCount: 2
Fore
SplineSet
128 -192 m 1
 128 -128 l 1
 192 -128 l 1
 192 -85.3333333333 192 -42.6666666667 192 0 c 1
 234.666666667 -0 277.333333333 0 320 0 c 1
 320 -42.6666666667 320 -85.3333333333 320 -128 c 1
 256 -128 l 1
 256 -192 l 1
 213.333333333 -192 170.666666667 -192 128 -192 c 1
128 0 m 1
 85.3333333333 -0 42.6666666667 0 0 0 c 1
 -0 128 0 256 0 384 c 1
 64 384 l 1
 64 448 l 1
 192 448 320 448 448 448 c 1
 448 405.333333333 448 362.666666667 448 320 c 1
 405.333333333 320 362.666666667 320 320 320 c 1
 320 384 l 1
 128 384 l 1
 128 256 128 128 128 0 c 1
EndSplineSet
EndChar

StartChar: LATIN CAPITAL LETTER R WITH CARON
Encoding: 344 344 280
Width: 512
Flags: HW
LayerCount: 2
Fore
SplineSet
64 704 m 1
 64 768 l 1
 106.666666667 768 149.333333333 768 192 768 c 1
 192 704 l 1
 256 704 l 1
 256 768 l 1
 298.666666667 768 341.333333333 768 384 768 c 1
 384 704 l 1
 320 704 l 1
 320 640 l 1
 256 640 l 1
 256 576 l 1
 298.666666667 576 341.333333333 576 384 576 c 1
 384 512 l 1
 448 512 l 1
 448 320 l 1
 384 320 l 1
 384 256 l 1
 448 256 l 1
 448 170.666666667 448 85.3333333333 448 0 c 1
 405.333333333 -0 362.666666667 0 320 0 c 1
 320 85.3333333333 320 170.666666667 320 256 c 1
 128 256 l 1
 128 170.666666667 128 85.3333333333 128 0 c 1
 85.3333333333 -0 42.6666666667 0 0 0 c 1
 0 576 l 1
 192 576 l 1
 192 640 l 1
 128 640 l 1
 128 704 l 1
 64 704 l 1
128 320 m 1
 320 320 l 1
 320 512 l 1
 128 512 l 1
 128 320 l 1
EndSplineSet
EndChar

StartChar: LATIN SMALL LETTER R WITH CARON
Encoding: 345 345 281
Width: 512
Flags: HW
LayerCount: 2
Fore
SplineSet
64 640 m 1
 64 704 l 1
 106.666666667 704 149.333333333 704 192 704 c 1
 192 640 l 1
 256 640 l 1
 256 704 l 1
 298.666666667 704 341.333333333 704 384 704 c 1
 384 640 l 1
 320 640 l 1
 320 576 l 1
 256 576 l 1
 256 512 l 1
 192 512 l 1
 192 576 l 1
 128 576 l 1
 128 640 l 1
 64 640 l 1
128 0 m 1
 85.3333333333 -0 42.6666666667 0 0 0 c 1
 -0 128 0 256 0 384 c 1
 64 384 l 1
 64 448 l 1
 192 448 320 448 448 448 c 1
 448 405.333333333 448 362.666666667 448 320 c 1
 405.333333333 320 362.666666667 320 320 320 c 1
 320 384 l 1
 128 384 l 1
 128 256 128 128 128 0 c 1
EndSplineSet
EndChar

StartChar: LATIN CAPITAL LETTER S WITH ACUTE
Encoding: 346 346 282
Width: 512
Flags: HW
LayerCount: 2
Fore
SplineSet
0 0 m 1
 0 64 l 1
 320 64 l 1
 320 256 l 1
 234.666666667 256 149.333333333 256 64 256 c 1
 64 320 l 1
 0 320 l 1
 0 512 l 1
 64 512 l 1
 64 576 l 1
 192 576 320 576 448 576 c 1
 448 512 l 1
 128 512 l 1
 128 320 l 1
 213.333333333 320 298.666666667 320 384 320 c 1
 384 256 l 1
 448 256 l 1
 448 64 l 1
 384 64 l 1
 384 0 l 1
 256 -0 128 0 0 0 c 1
128 640 m 1
 128 704 l 1
 192 704 l 1
 192 768 l 1
 234.666666667 768 277.333333333 768 320 768 c 1
 320 704 l 1
 256 704 l 1
 256 640 l 1
 213.333333333 640 170.666666667 640 128 640 c 1
EndSplineSet
EndChar

StartChar: LATIN SMALL LETTER S WITH ACUTE
Encoding: 347 347 283
Width: 512
Flags: HW
LayerCount: 2
Fore
SplineSet
0 0 m 1
 0 64 l 1
 320 64 l 1
 320 106.666666667 320 149.333333333 320 192 c 1
 234.666666667 192 149.333333333 192 64 192 c 1
 64 256 l 1
 0 256 l 1
 -0 298.666666667 0 341.333333333 0 384 c 1
 64 384 l 1
 64 448 l 1
 192 448 320 448 448 448 c 1
 448 384 l 1
 128 384 l 1
 128 341.333333333 128 298.666666667 128 256 c 1
 213.333333333 256 298.666666667 256 384 256 c 1
 384 192 l 1
 448 192 l 1
 448 149.333333333 448 106.666666667 448 64 c 1
 384 64 l 1
 384 0 l 1
 256 -0 128 0 0 0 c 1
128 512 m 1
 128 576 l 1
 192 576 l 1
 192 640 l 1
 256 640 l 1
 256 704 l 1
 298.666666667 704 341.333333333 704 384 704 c 1
 384 640 l 1
 320 640 l 1
 320 576 l 1
 256 576 l 1
 256 512 l 1
 213.333333333 512 170.666666667 512 128 512 c 1
EndSplineSet
EndChar

StartChar: LATIN CAPITAL LETTER S WITH CIRCUMFLEX
Encoding: 348 348 284
Width: 512
Flags: HW
LayerCount: 2
Fore
SplineSet
0 0 m 1
 0 64 l 1
 320 64 l 1
 320 256 l 1
 234.666666667 256 149.333333333 256 64 256 c 1
 64 320 l 1
 0 320 l 1
 0 512 l 1
 64 512 l 1
 64 576 l 1
 192 576 320 576 448 576 c 1
 448 512 l 1
 128 512 l 1
 128 320 l 1
 213.333333333 320 298.666666667 320 384 320 c 1
 384 256 l 1
 448 256 l 1
 448 64 l 1
 384 64 l 1
 384 0 l 1
 256 -0 128 0 0 0 c 1
64 640 m 1
 64 704 l 1
 128 704 l 1
 128 768 l 1
 320 768 l 1
 320 704 l 1
 384 704 l 1
 384 640 l 1
 341.333333333 640 298.666666667 640 256 640 c 1
 256 704 l 1
 192 704 l 1
 192 640 l 1
 149.333333333 640 106.666666667 640 64 640 c 1
EndSplineSet
EndChar

StartChar: LATIN SMALL LETTER S WITH CIRCUMFLEX
Encoding: 349 349 285
Width: 512
Flags: HW
LayerCount: 2
Fore
SplineSet
0 0 m 1
 0 64 l 1
 320 64 l 1
 320 106.666666667 320 149.333333333 320 192 c 1
 234.666666667 192 149.333333333 192 64 192 c 1
 64 256 l 1
 0 256 l 1
 -0 298.666666667 0 341.333333333 0 384 c 1
 64 384 l 1
 64 448 l 1
 192 448 320 448 448 448 c 1
 448 384 l 1
 128 384 l 1
 128 341.333333333 128 298.666666667 128 256 c 1
 213.333333333 256 298.666666667 256 384 256 c 1
 384 192 l 1
 448 192 l 1
 448 149.333333333 448 106.666666667 448 64 c 1
 384 64 l 1
 384 0 l 1
 256 -0 128 0 0 0 c 1
64 512 m 1
 64 576 l 1
 128 576 l 1
 128 640 l 1
 192 640 l 1
 192 704 l 1
 256 704 l 1
 256 640 l 1
 320 640 l 1
 320 576 l 1
 384 576 l 1
 384 512 l 1
 341.333333333 512 298.666666667 512 256 512 c 1
 256 576 l 1
 192 576 l 1
 192 512 l 1
 149.333333333 512 106.666666667 512 64 512 c 1
EndSplineSet
EndChar

StartChar: LATIN CAPITAL LETTER S WITH CEDILLA
Encoding: 350 350 286
Width: 512
Flags: HW
LayerCount: 2
Fore
SplineSet
128 -192 m 1
 128 -128 l 1
 192 -128 l 1
 192 -85.3333333333 192 -42.6666666667 192 0 c 1
 0 0 l 1
 0 64 l 1
 320 64 l 1
 320 149.333333333 320 234.666666667 320 320 c 1
 234.666666667 320 149.333333333 320 64 320 c 1
 64 384 l 1
 0 384 l 1
 0 576 l 1
 64 576 l 1
 64 640 l 1
 192 640 320 640 448 640 c 1
 448 576 l 1
 128 576 l 1
 128 384 l 1
 213.333333333 384 298.666666667 384 384 384 c 1
 384 320 l 1
 448 320 l 1
 448 234.666666667 448 149.333333333 448 64 c 1
 384 64 l 1
 384 0 l 1
 320 0 l 1
 320 -42.6666666667 320 -85.3333333333 320 -128 c 1
 256 -128 l 1
 256 -192 l 1
 213.333333333 -192 170.666666667 -192 128 -192 c 1
EndSplineSet
EndChar

StartChar: LATIN SMALL LETTER S WITH CEDILLA
Encoding: 351 351 287
Width: 512
Flags: HW
LayerCount: 2
Fore
SplineSet
128 -192 m 1
 128 -128 l 1
 192 -128 l 1
 192 -85.3333333333 192 -42.6666666667 192 0 c 1
 0 0 l 1
 0 64 l 1
 320 64 l 1
 320 106.666666667 320 149.333333333 320 192 c 1
 234.666666667 192 149.333333333 192 64 192 c 1
 64 256 l 1
 0 256 l 1
 -0 298.666666667 0 341.333333333 0 384 c 1
 64 384 l 1
 64 448 l 1
 192 448 320 448 448 448 c 1
 448 384 l 1
 128 384 l 1
 128 341.333333333 128 298.666666667 128 256 c 1
 213.333333333 256 298.666666667 256 384 256 c 1
 384 192 l 1
 448 192 l 1
 448 149.333333333 448 106.666666667 448 64 c 1
 384 64 l 1
 384 0 l 1
 320 0 l 1
 320 -42.6666666667 320 -85.3333333333 320 -128 c 1
 256 -128 l 1
 256 -192 l 1
 213.333333333 -192 170.666666667 -192 128 -192 c 1
EndSplineSet
EndChar

StartChar: LATIN CAPITAL LETTER S WITH CARON
Encoding: 352 352 288
Width: 512
Flags: HW
LayerCount: 2
Fore
SplineSet
0 0 m 1
 0 64 l 1
 320 64 l 1
 320 256 l 1
 234.666666667 256 149.333333333 256 64 256 c 1
 64 320 l 1
 0 320 l 1
 0 512 l 1
 64 512 l 1
 64 576 l 1
 106.666666667 576 149.333333333 576 192 576 c 1
 192 640 l 1
 128 640 l 1
 128 704 l 1
 64 704 l 1
 64 768 l 1
 106.666666667 768 149.333333333 768 192 768 c 1
 192 704 l 1
 256 704 l 1
 256 768 l 1
 298.666666667 768 341.333333333 768 384 768 c 1
 384 704 l 1
 320 704 l 1
 320 640 l 1
 256 640 l 1
 256 576 l 1
 448 576 l 1
 448 512 l 1
 128 512 l 1
 128 320 l 1
 213.333333333 320 298.666666667 320 384 320 c 1
 384 256 l 1
 448 256 l 1
 448 64 l 1
 384 64 l 1
 384 0 l 1
 256 -0 128 0 0 0 c 1
EndSplineSet
EndChar

StartChar: LATIN SMALL LETTER S WITH CARON
Encoding: 353 353 289
Width: 512
Flags: HW
LayerCount: 2
Fore
SplineSet
0 0 m 1
 0 64 l 1
 320 64 l 1
 320 106.666666667 320 149.333333333 320 192 c 1
 234.666666667 192 149.333333333 192 64 192 c 1
 64 256 l 1
 0 256 l 1
 -0 298.666666667 0 341.333333333 0 384 c 1
 64 384 l 1
 64 448 l 1
 192 448 320 448 448 448 c 1
 448 384 l 1
 128 384 l 1
 128 341.333333333 128 298.666666667 128 256 c 1
 213.333333333 256 298.666666667 256 384 256 c 1
 384 192 l 1
 448 192 l 1
 448 149.333333333 448 106.666666667 448 64 c 1
 384 64 l 1
 384 0 l 1
 256 -0 128 0 0 0 c 1
64 640 m 1
 64 704 l 1
 106.666666667 704 149.333333333 704 192 704 c 1
 192 640 l 1
 256 640 l 1
 256 704 l 1
 298.666666667 704 341.333333333 704 384 704 c 1
 384 640 l 1
 320 640 l 1
 320 576 l 1
 256 576 l 1
 256 512 l 1
 192 512 l 1
 192 576 l 1
 128 576 l 1
 128 640 l 1
 64 640 l 1
EndSplineSet
EndChar

StartChar: LATIN CAPITAL LETTER T WITH CEDILLA
Encoding: 354 354 290
Width: 512
Flags: HW
LayerCount: 2
Fore
SplineSet
192 -192 m 1
 192 -128 l 1
 256 -128 l 1
 256 -85.3333333333 256 -42.6666666667 256 0 c 1
 192 0 l 1
 192 576 l 1
 0 576 l 1
 0 640 l 1
 170.666666667 640 341.333333333 640 512 640 c 1
 512 576 l 1
 320 576 l 1
 320 0 l 1
 384 0 l 1
 384 -42.6666666667 384 -85.3333333333 384 -128 c 1
 320 -128 l 1
 320 -192 l 1
 277.333333333 -192 234.666666667 -192 192 -192 c 1
EndSplineSet
EndChar

StartChar: LATIN SMALL LETTER T WITH CEDILLA
Encoding: 355 355 291
Width: 512
Flags: HW
LayerCount: 2
Fore
SplineSet
192 -192 m 1
 192 -128 l 1
 256 -128 l 1
 256 -85.3333333333 256 -42.6666666667 256 0 c 1
 192 0 l 1
 192 64 l 1
 128 64 l 1
 128 384 l 1
 64 384 l 1
 64 448 l 1
 128 448 l 1
 128 640 l 1
 170.666666667 640 213.333333333 640 256 640 c 1
 256 448 l 1
 298.666666667 448 341.333333333 448 384 448 c 1
 384 384 l 1
 341.333333333 384 298.666666667 384 256 384 c 1
 256 64 l 1
 448 64 l 1
 448 0 l 1
 384 0 l 1
 384 -42.6666666667 384 -85.3333333333 384 -128 c 1
 320 -128 l 1
 320 -192 l 1
 277.333333333 -192 234.666666667 -192 192 -192 c 1
EndSplineSet
EndChar

StartChar: LATIN CAPITAL LETTER T WITH CARON
Encoding: 356 356 292
Width: 512
Flags: HW
LayerCount: 2
Fore
SplineSet
0 512 m 1
 0 576 l 1
 192 576 l 1
 192 640 l 1
 128 640 l 1
 128 704 l 1
 64 704 l 1
 64 768 l 1
 106.666666667 768 149.333333333 768 192 768 c 1
 192 704 l 1
 256 704 l 1
 256 768 l 1
 298.666666667 768 341.333333333 768 384 768 c 1
 384 704 l 1
 320 704 l 1
 320 640 l 1
 256 640 l 1
 256 576 l 1
 341.333333333 576 426.666666667 576 512 576 c 1
 512 512 l 1
 320 512 l 1
 320 341.333333333 320 170.666666667 320 0 c 1
 277.333333333 -0 234.666666667 0 192 0 c 1
 192 170.666666667 192 341.333333333 192 512 c 1
 0 512 l 1
EndSplineSet
EndChar

StartChar: LATIN SMALL LETTER T WITH CARON
Encoding: 357 357 293
Width: 512
Flags: HW
LayerCount: 2
Fore
SplineSet
64 384 m 1
 64 448 l 1
 128 448 l 1
 128 490.666666667 128 533.333333333 128 576 c 1
 192 576 l 1
 192 640 l 1
 128 640 l 1
 128 704 l 1
 64 704 l 1
 64 768 l 1
 106.666666667 768 149.333333333 768 192 768 c 1
 192 704 l 1
 256 704 l 1
 256 768 l 1
 298.666666667 768 341.333333333 768 384 768 c 1
 384 704 l 1
 320 704 l 1
 320 640 l 1
 256 640 l 1
 256 448 l 1
 298.666666667 448 341.333333333 448 384 448 c 1
 384 384 l 1
 341.333333333 384 298.666666667 384 256 384 c 1
 256 64 l 1
 448 64 l 1
 448 0 l 1
 362.666666667 -0 277.333333333 0 192 0 c 1
 192 64 l 1
 128 64 l 1
 128 384 l 1
 64 384 l 1
EndSplineSet
EndChar

StartChar: LATIN CAPITAL LETTER T WITH STROKE
Encoding: 358 358 294
Width: 512
Flags: HW
LayerCount: 2
Fore
SplineSet
64 256 m 1
 64 320 l 1
 106.666666667 320 149.333333333 320 192 320 c 1
 192 405.333333333 192 490.666666667 192 576 c 1
 0 576 l 1
 0 640 l 1
 170.666666667 640 341.333333333 640 512 640 c 1
 512 576 l 1
 320 576 l 1
 320 490.666666667 320 405.333333333 320 320 c 1
 362.666666667 320 405.333333333 320 448 320 c 1
 448 256 l 1
 405.333333333 256 362.666666667 256 320 256 c 1
 320 170.666666667 320 85.3333333333 320 0 c 1
 277.333333333 -0 234.666666667 0 192 0 c 1
 192 85.3333333333 192 170.666666667 192 256 c 1
 149.333333333 256 106.666666667 256 64 256 c 1
EndSplineSet
EndChar

StartChar: LATIN SMALL LETTER T WITH STROKE
Encoding: 359 359 295
Width: 512
Flags: HW
LayerCount: 2
Fore
SplineSet
64 256 m 1
 64 320 l 1
 128 320 l 1
 128 384 l 1
 64 384 l 1
 64 448 l 1
 128 448 l 1
 128 640 l 1
 170.666666667 640 213.333333333 640 256 640 c 1
 256 448 l 1
 298.666666667 448 341.333333333 448 384 448 c 1
 384 384 l 1
 341.333333333 384 298.666666667 384 256 384 c 1
 256 320 l 1
 298.666666667 320 341.333333333 320 384 320 c 1
 384 256 l 1
 341.333333333 256 298.666666667 256 256 256 c 1
 256 64 l 1
 448 64 l 1
 448 0 l 1
 362.666666667 -0 277.333333333 0 192 0 c 1
 192 64 l 1
 128 64 l 1
 128 256 l 1
 64 256 l 1
EndSplineSet
EndChar

StartChar: LATIN CAPITAL LETTER U WITH TILDE
Encoding: 360 360 296
Width: 512
Flags: HW
LayerCount: 2
Fore
SplineSet
64 640 m 1
 64 704 l 1
 128 704 l 1
 128 640 l 1
 64 640 l 1
384 0 m 1
 64 0 l 1
 64 64 l 1
 0 64 l 1
 -0 234.666666667 0 405.333333333 0 576 c 1
 42.6666666667 576 85.3333333333 576 128 576 c 1
 128 405.333333333 128 234.666666667 128 64 c 1
 320 64 l 1
 320 234.666666667 320 405.333333333 320 576 c 1
 362.666666667 576 405.333333333 576 448 576 c 1
 448 405.333333333 448 234.666666667 448 64 c 1
 384 64 l 1
 384 0 l 1
384 640 m 1
 341.333333333 640 298.666666667 640 256 640 c 1
 256 704 l 1
 298.666666667 704 341.333333333 704 384 704 c 1
 384 640 l 1
384 704 m 1
 384 768 l 1
 448 768 l 1
 448 704 l 1
 384 704 l 1
256 704 m 1
 213.333333333 704 170.666666667 704 128 704 c 1
 128 768 l 1
 170.666666667 768 213.333333333 768 256 768 c 1
 256 704 l 1
EndSplineSet
EndChar

StartChar: LATIN SMALL LETTER U WITH TILDE
Encoding: 361 361 297
Width: 512
Flags: HW
LayerCount: 2
Fore
SplineSet
384 0 m 1
 64 0 l 1
 64 64 l 1
 0 64 l 1
 -0 192 0 320 0 448 c 1
 42.6666666667 448 85.3333333333 448 128 448 c 1
 128 320 128 192 128 64 c 1
 320 64 l 1
 320 192 320 320 320 448 c 1
 362.666666667 448 405.333333333 448 448 448 c 1
 448 320 448 192 448 64 c 1
 384 64 l 1
 384 0 l 1
384 512 m 1
 341.333333333 512 298.666666667 512 256 512 c 1
 256 576 l 1
 213.333333333 576 170.666666667 576 128 576 c 1
 128 512 l 1
 64 512 l 1
 64 554.666666667 64 597.333333333 64 640 c 1
 128 640 l 1
 128 704 l 1
 170.666666667 704 213.333333333 704 256 704 c 1
 256 640 l 1
 298.666666667 640 341.333333333 640 384 640 c 1
 384 704 l 1
 448 704 l 1
 448 661.333333333 448 618.666666667 448 576 c 1
 384 576 l 1
 384 512 l 1
EndSplineSet
EndChar

StartChar: LATIN CAPITAL LETTER U WITH MACRON
Encoding: 362 362 298
Width: 512
Flags: HW
LayerCount: 2
Fore
SplineSet
64 640 m 1
 64 704 l 1
 384 704 l 1
 384 640 l 1
 64 640 l 1
448 0 m 1
 320 -0 192 0 64 0 c 1
 64 64 l 1
 0 64 l 1
 -0 234.666666667 0 405.333333333 0 576 c 1
 42.6666666667 576 85.3333333333 576 128 576 c 1
 128 405.333333333 128 234.666666667 128 64 c 1
 320 64 l 1
 320 234.666666667 320 405.333333333 320 576 c 1
 362.666666667 576 405.333333333 576 448 576 c 1
 448 0 l 1
EndSplineSet
EndChar

StartChar: LATIN SMALL LETTER U WITH MACRON
Encoding: 363 363 299
Width: 512
Flags: HW
LayerCount: 2
Fore
SplineSet
64 512 m 1
 64 576 l 1
 384 576 l 1
 384 512 l 1
 64 512 l 1
448 0 m 1
 320 -0 192 0 64 0 c 1
 64 64 l 1
 0 64 l 1
 -0 192 0 320 0 448 c 1
 42.6666666667 448 85.3333333333 448 128 448 c 1
 128 320 128 192 128 64 c 1
 320 64 l 1
 320 192 320 320 320 448 c 1
 362.666666667 448 405.333333333 448 448 448 c 1
 448 0 l 1
EndSplineSet
EndChar

StartChar: LATIN CAPITAL LETTER U WITH BREVE
Encoding: 364 364 300
Width: 512
Flags: HW
LayerCount: 2
Fore
SplineSet
64 704 m 1
 64 768 l 1
 106.666666667 768 149.333333333 768 192 768 c 1
 192 704 l 1
 256 704 l 1
 256 768 l 1
 298.666666667 768 341.333333333 768 384 768 c 1
 384 704 l 1
 320 704 l 1
 320 640 l 1
 128 640 l 1
 128 704 l 1
 64 704 l 1
448 0 m 1
 320 -0 192 0 64 0 c 1
 64 64 l 1
 0 64 l 1
 -0 234.666666667 0 405.333333333 0 576 c 1
 42.6666666667 576 85.3333333333 576 128 576 c 1
 128 405.333333333 128 234.666666667 128 64 c 1
 320 64 l 1
 320 234.666666667 320 405.333333333 320 576 c 1
 362.666666667 576 405.333333333 576 448 576 c 1
 448 0 l 1
EndSplineSet
EndChar

StartChar: LATIN SMALL LETTER U WITH BREVE
Encoding: 365 365 301
Width: 512
Flags: HW
LayerCount: 2
Fore
SplineSet
448 0 m 1
 320 -0 192 0 64 0 c 1
 64 64 l 1
 0 64 l 1
 -0 192 0 320 0 448 c 1
 42.6666666667 448 85.3333333333 448 128 448 c 1
 128 320 128 192 128 64 c 1
 320 64 l 1
 320 192 320 320 320 448 c 1
 362.666666667 448 405.333333333 448 448 448 c 1
 448 0 l 1
320 512 m 1
 128 512 l 1
 128 576 l 1
 64 576 l 1
 64 618.666666667 64 661.333333333 64 704 c 1
 106.666666667 704 149.333333333 704 192 704 c 1
 192 661.333333333 192 618.666666667 192 576 c 1
 256 576 l 1
 256 618.666666667 256 661.333333333 256 704 c 1
 298.666666667 704 341.333333333 704 384 704 c 1
 384 661.333333333 384 618.666666667 384 576 c 1
 320 576 l 1
 320 512 l 1
EndSplineSet
EndChar

StartChar: LATIN CAPITAL LETTER U WITH RING ABOVE
Encoding: 366 366 302
Width: 512
Flags: HW
LayerCount: 2
Fore
SplineSet
64 640 m 1
 64 704 l 1
 128 704 l 1
 128 768 l 1
 320 768 l 1
 320 704 l 1
 384 704 l 1
 384 640 l 1
 320 640 l 1
 320 576 l 1
 362.666666667 576 405.333333333 576 448 576 c 1
 448 0 l 1
 320 -0 192 0 64 0 c 1
 64 64 l 1
 0 64 l 1
 -0 234.666666667 0 405.333333333 0 576 c 1
 42.6666666667 576 85.3333333333 576 128 576 c 1
 128 405.333333333 128 234.666666667 128 64 c 1
 320 64 l 1
 320 234.666666667 320 405.333333333 320 576 c 1
 128 576 l 1
 128 640 l 1
 64 640 l 1
256 640 m 1
 256 704 l 1
 192 704 l 1
 192 640 l 1
 256 640 l 1
EndSplineSet
EndChar

StartChar: LATIN SMALL LETTER U WITH RING ABOVE
Encoding: 367 367 303
Width: 512
Flags: HW
LayerCount: 2
Fore
SplineSet
64 576 m 1
 64 640 l 1
 128 640 l 1
 128 704 l 1
 320 704 l 1
 320 640 l 1
 384 640 l 1
 384 576 l 1
 320 576 l 1
 320 512 l 1
 128 512 l 1
 128 576 l 1
 64 576 l 1
448 0 m 1
 320 -0 192 0 64 0 c 1
 64 64 l 1
 0 64 l 1
 -0 192 0 320 0 448 c 1
 42.6666666667 448 85.3333333333 448 128 448 c 1
 128 320 128 192 128 64 c 1
 320 64 l 1
 320 192 320 320 320 448 c 1
 362.666666667 448 405.333333333 448 448 448 c 1
 448 0 l 1
256 576 m 1
 256 640 l 1
 192 640 l 1
 192 576 l 1
 256 576 l 1
EndSplineSet
EndChar

StartChar: LATIN CAPITAL LETTER U WITH DOUBLE ACUTE
Encoding: 368 368 304
Width: 512
Flags: HW
LayerCount: 2
Fore
SplineSet
256 640 m 1
 256 704 l 1
 320 704 l 1
 320 768 l 1
 362.666666667 768 405.333333333 768 448 768 c 1
 448 704 l 1
 384 704 l 1
 384 640 l 1
 341.333333333 640 298.666666667 640 256 640 c 1
0 640 m 1
 0 704 l 1
 64 704 l 1
 64 768 l 1
 106.666666667 768 149.333333333 768 192 768 c 1
 192 704 l 1
 128 704 l 1
 128 640 l 1
 85.3333333333 640 42.6666666667 640 0 640 c 1
448 0 m 1
 320 -0 192 0 64 0 c 1
 64 64 l 1
 0 64 l 1
 -0 234.666666667 0 405.333333333 0 576 c 1
 42.6666666667 576 85.3333333333 576 128 576 c 1
 128 405.333333333 128 234.666666667 128 64 c 1
 320 64 l 1
 320 234.666666667 320 405.333333333 320 576 c 1
 362.666666667 576 405.333333333 576 448 576 c 1
 448 0 l 1
EndSplineSet
EndChar

StartChar: LATIN SMALL LETTER U WITH DOUBLE ACUTE
Encoding: 369 369 305
Width: 512
Flags: HW
LayerCount: 2
Fore
SplineSet
0 512 m 1
 0 576 l 1
 64 576 l 1
 64 640 l 1
 128 640 l 1
 128 704 l 1
 170.666666667 704 213.333333333 704 256 704 c 1
 256 640 l 1
 320 640 l 1
 320 704 l 1
 362.666666667 704 405.333333333 704 448 704 c 1
 448 640 l 1
 384 640 l 1
 384 576 l 1
 320 576 l 1
 320 512 l 1
 277.333333333 512 234.666666667 512 192 512 c 1
 192 576 l 1
 256 576 l 1
 256 640 l 1
 192 640 l 1
 192 576 l 1
 128 576 l 1
 128 512 l 1
 85.3333333333 512 42.6666666667 512 0 512 c 1
448 0 m 1
 320 -0 192 0 64 0 c 1
 64 64 l 1
 0 64 l 1
 -0 192 0 320 0 448 c 1
 42.6666666667 448 85.3333333333 448 128 448 c 1
 128 320 128 192 128 64 c 1
 320 64 l 1
 320 192 320 320 320 448 c 1
 362.666666667 448 405.333333333 448 448 448 c 1
 448 0 l 1
EndSplineSet
EndChar

StartChar: LATIN CAPITAL LETTER U WITH OGONEK
Encoding: 370 370 306
Width: 512
Flags: HW
LayerCount: 2
Fore
SplineSet
448 -192 m 1
 405.333333333 -192 362.666666667 -192 320 -192 c 1
 320 -128 l 1
 362.666666667 -128 405.333333333 -128 448 -128 c 1
 448 -192 l 1
320 -128 m 1
 256 -128 l 1
 256 -85.3333333333 256 -42.6666666667 256 0 c 1
 64 0 l 1
 64 64 l 1
 0 64 l 1
 0 640 l 1
 42.6666666667 640 85.3333333333 640 128 640 c 1
 128 64 l 1
 320 64 l 1
 320 640 l 1
 362.666666667 640 405.333333333 640 448 640 c 1
 448 426.666666667 448 213.333333333 448 0 c 1
 384 0 l 1
 384 -64 l 1
 320 -64 l 1
 320 -128 l 1
EndSplineSet
EndChar

